ply
format ascii 1.0
element vertex 162
property float x
property float y
property float z
property uchar red
property uchar green
property uchar blue
property uchar alpha
end_header
0.2628656 0.9510565 0.1624599 156 201 158 255 
0.5257311 0.8506508 0 170 194 141 255 
0.2628656 0.9510565 -0.1624599 153 201 123 255 
0 1 0 137 206 141 255 
0.5 0.809017 0.309017 167 190 168 255 
0.5 0.809017 -0.309017 166 190 105 255 
0 0.9619383 -0.2732666 134 202 107 255 
0.2598919 0.8626685 -0.4338886 149 192 87 255 
0 0.8506508 -0.5257311 129 188 73 255 
0.2598919 0.8626685 0.4338886 154 193 178 255 
0 0.9619383 0.2732666 140 202 169 255 
0 0.8506508 0.5257311 139 192 185 255 
0.7020464 0.6937805 -0.160622 180 184 123 255 
0.7020464 0.6937805 0.160622 179 184 155 255 
0.8506508 0.5257311 0 189 174 138 255 
-0.2628656 0.9510565 -0.1624599 112 201 117 255 
-0.5257311 0.8506508 0 85 192 131 255 
-0.2628656 0.9510565 0.1624599 117 203 158 255 
-0.5 0.809017 -0.309017 82 181 93 255 
-0.5 0.809017 0.309017 95 191 168 255 
-0.2598919 0.8626685 0.4338886 120 195 180 255 
-0.2598919 0.8626685 -0.4338886 107 187 82 255 
-0.7020464 0.6937805 0.160622 71 180 145 255 
-0.7020464 0.6937805 -0.160622 64 173 105 255 
-0.8506508 0.5257311 0 56 163 118 255 
0.2628656 -0.9510565 -0.1624599 142 54 116 255 
0.5257311 -0.8506508 0 154 58 127 255 
0.2628656 -0.9510565 0.1624599 140 54 143 255 
0 -1 0 123 51 129 255 
0.5 -0.809017 -0.309017 153 60 103 255 
0.5 -0.809017 0.309017 151 60 156 255 
0 -0.9619383 0.2732666 123 53 150 255 
0.2598919 -0.8626685 0.4338886 138 60 165 255 
0 -0.8506508 0.5257311 125 61 170 255 
0.2598919 -0.8626685 -0.4338886 139 60 92 255 
0 -0.9619383 -0.2732666 121 55 105 255 
0 -0.8506508 -0.5257311 122 63 86 255 
0.7020464 -0.6937805 0.160622 165 67 142 255 
0.7020464 -0.6937805 -0.160622 167 67 114 255 
0.8506508 -0.5257311 0 181 80 127 255 
-0.2628656 -0.9510565 0.1624599 108 53 139 255 
-0.5257311 -0.8506508 0 90 59 123 255 
-0.2628656 -0.9510565 -0.1624599 105 55 112 255 
-0.5 -0.809017 0.309017 93 60 149 255 
-0.5 -0.809017 -0.309017 92 63 99 255 
-0.2598919 -0.8626685 -0.4338886 106 62 92 255 
-0.2598919 -0.8626685 0.4338886 109 59 159 255 
-0.7020464 -0.6937805 -0.160622 79 68 108 255 
-0.7020464 -0.6937805 0.160622 77 67 136 255 
-0.8506508 -0.5257311 0 64 77 121 255 
0.9510565 -0.1624599 -0.2628656 196 113 104 255 
0.8506508 0 -0.5257311 189 134 75 255 
0.9510565 0.1624599 -0.2628656 200 146 106 255 
1 0 0 206 132 135 255 
0.809017 -0.309017 -0.5 179 99 81 255 
0.809017 0.309017 -0.5 186 156 80 255 
0.9619383 0.2732666 0 200 154 136 255 
0.8626685 0.4338886 -0.2598919 191 166 108 255 
0.8626685 -0.4338886 -0.2598919 183 86 105 255 
0.9619383 -0.2732666 0 195 103 131 255 
0.6937805 0.160622 -0.7020464 173 144 58 255 
0.6937805 -0.160622 -0.7020464 171 116 61 255 
0.5257311 0 -0.8506508 158 132 46 255 
0.9510565 0.1624599 0.2628656 198 146 165 255 
0.8506508 0 0.5257311 188 136 188 255 
0.9510565 -0.1624599 0.2628656 198 116 160 255 
0.809017 0.309017 0.5 183 162 187 255 
0.809017 -0.309017 0.5 182 106 181 255 
0.8626685 -0.4338886 0.2598919 184 92 157 255 
0.8626685 0.4338886 0.2598919 188 168 165 255 
0.6937805 -0.160622 0.7020464 175 121 198 255 
0.6937805 0.160622 0.7020464 175 152 202 255 
0.5257311 0 0.8506508 166 141 210 255 
-0.9510565 -0.1624599 0.2628656 51 111 144 255 
-0.8506508 0 0.5257311 63 134 174 255 
-0.9510565 0.1624599 0.2628656 50 139 145 255 
-1 0 0 43 127 117 255 
-0.809017 -0.309017 0.5 68 99 168 255 
-0.809017 0.309017 0.5 69 155 175 255 
-0.9619383 0.2732666 0 46 144 115 255 
-0.8626685 0.4338886 0.2598919 59 161 150 255 
-0.8626685 -0.4338886 0.2598919 62 85 144 255 
-0.9619383 -0.2732666 0 50 99 120 255 
-0.6937805 0.160622 0.7020464 82 149 192 255 
-0.6937805 -0.160622 0.7020464 80 119 189 255 
-0.5257311 0 0.8506508 97 140 205 255 
-0.9510565 0.1624599 -0.2628656 50 140 90 255 
-0.8506508 0 -0.5257311 61 130 72 255 
-0.9510565 -0.1624599 -0.2628656 51 110 96 255 
-0.809017 0.309017 -0.5 63 146 71 255 
-0.809017 -0.309017 -0.5 68 97 79 255 
-0.8626685 -0.4338886 -0.2598919 64 85 99 255 
-0.8626685 0.4338886 -0.2598919 54 152 89 255 
-0.6937805 -0.160622 -0.7020464 76 113 61 255 
-0.6937805 0.160622 -0.7020464 75 141 59 255 
-0.5257311 0 -0.8506508 88 129 48 255 
-0.1624599 -0.2628656 0.9510565 125 113 209 255 
0 -0.5257311 0.8506508 133 90 199 255 
0.1624599 -0.2628656 0.9510565 144 115 210 255 
0 0 1 137 142 216 255 
-0.309017 -0.5 0.809017 112 89 194 255 
0.309017 -0.5 0.809017 149 94 199 255 
0.2732666 0 0.9619383 153 142 215 255 
0.4338886 -0.2598919 0.8626685 159 114 206 255 
-0.4338886 -0.2598919 0.8626685 104 112 202 255 
-0.2732666 0 0.9619383 118 141 213 255 
0.160622 -0.7020464 0.6937805 137 76 187 255 
-0.160622 -0.7020464 0.6937805 119 73 184 255 
0.1624599 0.2628656 0.9510565 147 158 211 255 
0 0.5257311 0.8506508 138 172 204 255 
-0.1624599 0.2628656 0.9510565 127 158 211 255 
0.309017 0.5 0.809017 155 170 202 255 
-0.309017 0.5 0.809017 117 172 202 255 
-0.4338886 0.2598919 0.8626685 107 157 205 255 
0.4338886 0.2598919 0.8626685 161 158 207 255 
-0.160622 0.7020464 0.6937805 128 183 195 255 
0.160622 0.7020464 0.6937805 148 181 195 255 
-0.1624599 0.2628656 -0.9510565 111 146 40 255 
0 0.5257311 -0.8506508 122 164 48 255 
0.1624599 0.2628656 -0.9510565 133 146 39 255 
0 0 -1 121 131 36 255 
-0.309017 0.5 -0.809017 101 160 51 255 
0.309017 0.5 -0.809017 145 164 51 255 
0.2732666 0 -0.9619383 140 131 38 255 
0.4338886 0.2598919 -0.8626685 152 148 46 255 
-0.4338886 0.2598919 -0.8626685 94 147 48 255 
-0.2732666 0 -0.9619383 104 130 40 255 
0.160622 0.7020464 -0.6937805 137 177 60 255 
-0.160622 0.7020464 -0.6937805 113 173 57 255 
0.1624599 -0.2628656 -0.9510565 131 108 46 255 
0 -0.5257311 -0.8506508 121 87 59 255 
-0.1624599 -0.2628656 -0.9510565 111 108 47 255 
0.309017 -0.5 -0.809017 140 87 60 255 
-0.309017 -0.5 -0.809017 103 88 61 255 
-0.4338886 -0.2598919 -0.8626685 95 106 52 255 
0.4338886 -0.2598919 -0.8626685 149 107 51 255 
-0.160622 -0.7020464 -0.6937805 112 74 72 255 
0.160622 -0.7020464 -0.6937805 131 73 72 255 
0.5877853 0.4253254 0.6881909 169 168 197 255 
0.6881909 0.5877853 0.4253254 177 177 178 255 
0.4253254 0.6881909 0.5877853 162 181 189 255 
-0.6881909 0.5877853 0.4253254 80 175 173 255 
-0.5877853 0.4253254 0.6881909 93 166 193 255 
-0.4253254 0.6881909 0.5877853 107 183 188 255 
0.6881909 0.5877853 -0.4253254 177 176 90 255 
0.5877853 0.4253254 -0.6881909 165 161 60 255 
0.4253254 0.6881909 -0.5877853 155 179 70 255 
-0.5877853 0.4253254 -0.6881909 81 153 58 255 
-0.6881909 0.5877853 -0.4253254 68 160 76 255 
-0.4253254 0.6881909 -0.5877853 90 167 63 255 
0.6881909 -0.5877853 0.4253254 167 80 171 255 
0.5877853 -0.4253254 0.6881909 165 99 194 255 
0.4253254 -0.6881909 0.5877853 150 76 181 255 
-0.5877853 -0.4253254 0.6881909 88 91 184 255 
-0.6881909 -0.5877853 0.4253254 78 74 159 255 
-0.4253254 -0.6881909 0.5877853 99 70 172 255 
0.5877853 -0.4253254 -0.6881909 160 91 67 255 
0.6881909 -0.5877853 -0.4253254 168 74 91 255 
0.4253254 -0.6881909 -0.5877853 148 71 79 255 
-0.6881909 -0.5877853 -0.4253254 79 76 88 255 
-0.5877853 -0.4253254 -0.6881909 86 91 67 255 
-0.4253254 -0.6881909 -0.5877853 96 72 80 255 
