ply
format ascii 1.0
element sh_coefficients 121
property uchar l
property char m
property list uchar float coefficients
element vertex 162
property float x
property float y
property float z
property uchar red
property uchar green
property uchar blue
property uchar alpha
end_header
0 0 3 1.86581301689147949 1.89620125293731689 1.89921557903289795
1 -1 3 -0.00537236034870147705 0.132713556289672852 -0.020357176661491394
1 0 3 0.0164064168930053711 0.025304257869720459 0.232024684548377991
1 1 3 0.123201228678226471 -0.0068556666374206543 -0.0193678885698318481
2 -2 3 0.0321759283542633057 0.0382283926010131836 0.0337511450052261353
2 -1 3 -0.00153481960296630859 0.00278532505035400391 0.0145230889320373535
2 0 3 0.109278649091720581 0.12193598598241806 0.101383484899997711
2 1 3 -0.0117955207824707031 -0.000564932823181152344 -0.0171229243278503418
2 2 3 -0.0145442783832550049 0.0070902407169342041 -0.00827273726463317871
3 -3 3 -0.0448845550417900085 -0.0303940288722515106 -0.0400427654385566711
3 -2 3 -0.00594563037157058716 -0.00544701144099235535 -0.00228822603821754456
3 -1 3 -0.029243767261505127 -0.0283474326133728027 -0.043349146842956543
3 0 3 0.0169818662106990814 0.0139604359865188599 -0.00841068290174007416
3 1 3 -0.0455744117498397827 -0.0393540859222412109 -0.0526021122932434082
3 2 3 -0.00425270199775695801 0.00418633222579956055 0.000811517238616943359
3 3 3 0.00453600287437438965 -0.00123203545808792114 0.00128604471683502197
4 -4 3 0.0301820337772369385 0.0456410348415374756 0.040946081280708313
4 -3 3 -0.000701248645782470703 0.00218713283538818359 0.00059172511100769043
4 -2 3 0.0451677776873111725 0.0490363053977489471 0.0490860231220722198
4 -1 3 -0.00599000602960586548 -3.81991267204284668e-05 -0.0244032144546508789
4 0 3 -0.092747710645198822 -0.0937091410160064697 -0.0941604301333427429
4 1 3 -0.00567205995321273804 -0.00621723383665084839 -0.00481416657567024231
4 2 3 -0.022394225001335144 -0.00104775279760360718 -0.00926654040813446045
4 3 3 0.00411795824766159058 -0.00123351812362670898 0.0015077739953994751
4 4 3 0.00181420519948005676 0.0111733190715312958 -0.00280370563268661499
5 -5 3 -0.0296026766300201416 -0.038554660975933075 -0.0409057214856147766
5 -4 3 -0.00241065770387649536 -8.46013426780700684e-05 0.00287597626447677612
5 -3 3 -0.0488050617277622223 -0.0503898486495018005 -0.0497673153877258301
5 -2 3 0.00348262116312980652 0.00152890942990779877 0.0118152964860200882
5 -1 3 -0.0209561288356781006 -0.0068276524543762207 -0.0171147137880325317
5 0 3 0.00627832487225532532 0.00470267236232757568 -0.0232203267514705658
5 1 3 0.00589840486645698547 -0.0017482321709394455 -0.00298047717660665512
5 2 3 -0.00518481433391571045 -0.00192090868949890137 -0.00324743986129760742
5 3 3 -0.0042814984917640686 -0.00897805392742156982 -0.00629992783069610596
5 4 3 -0.000465318560600280762 -0.0033044181764125824 0.00241395458579063416
5 5 3 0.0117205381393432617 0.0125790312886238098 0.014754951000213623
6 -6 3 0.0291734598577022552 0.0391040556132793427 0.0377801656723022461
6 -5 3 0.00318925082683563232 0.000652484595775604248 -0.0041846930980682373
6 -4 3 0.0407755151391029358 0.0437159687280654907 0.044949658215045929
6 -3 3 -0.00171342119574546814 -0.00135400518774986267 -0.0219132490456104279
6 -2 3 0.0428105480968952179 0.0409569963812828064 0.046351354569196701
6 -1 3 0.000313924625515937805 -0.000501466915011405945 0.000983482226729393005
6 0 3 -0.250265777111053467 -0.258755326271057129 -0.254929542541503906
6 1 3 -0.000868920236825942993 0.00281069427728652954 -0.00236649811267852783
6 2 3 -0.0286925956606864929 -0.0300818160176277161 -0.0287956856191158295
6 3 3 0.00846989452838897705 0.005898255854845047 0.00511252880096435547
6 4 3 0.0250419527292251587 0.0267981439828872681 0.0183516591787338257
6 5 3 0.00120457261800765991 0.0043372325599193573 0.00501487962901592255
6 6 3 -0.0203300602734088898 -0.0163975730538368225 -0.0266434457153081894
7 -7 3 -0.034634023904800415 -0.0412523485720157623 -0.0408794134855270386
7 -6 3 0.0129067674279212952 0.0116027742624282837 0.0154680423438549042
7 -5 3 -0.0404168516397476196 -0.0388855487108230591 -0.0442138388752937317
7 -4 3 0.00536053534597158432 0.00480377674102783203 0.0134441247209906578
7 -3 3 -0.0606557279825210571 -0.0645235776901245117 -0.0642736107110977173
7 -2 3 0.00651618652045726776 0.00829313136637210846 0.0108262747526168823
7 -1 3 0.0153258554637432098 0.016408674418926239 0.0174692533910274506
7 0 3 -0.00618929415941238403 -0.00252719223499298096 -0.0429187268018722534
7 1 3 0.0405270867049694061 0.0499270036816596985 0.048608388751745224
7 2 3 -0.00657565519213676453 -0.00380208529531955719 -0.0188689008355140686
7 3 3 -0.000720747746527194977 0.000954954884946346283 0.000767671503126621246
7 4 3 0.000924192368984222412 -0.00151627510786056519 0.00511015951633453369
7 5 3 0.0141242742538452148 0.0183567553758621216 0.0173151195049285889
7 6 3 -0.00089288223534822464 -0.00290048867464065552 -0.00652663316577672958
7 7 3 0.0249698162078857422 0.0255537256598472595 0.0248909443616867065
8 -8 3 0.0296427905559539795 0.0365859046578407288 0.0353215485811233521
8 -7 3 0.00499834120273590088 0.004503592848777771 0.00102782994508743286
8 -6 3 0.0301239416003227234 0.0352684631943702698 0.0343647673726081848
8 -5 3 -0.0064736492931842804 -0.00648145005106925964 -0.0163411013782024384
8 -4 3 0.0646581053733825684 0.0700787156820297241 0.0694865882396697998
8 -3 3 -0.00266494601964950562 1.80527567863464355e-05 -0.00691337883472442627
8 -2 3 0.00607600994408130646 0.00865766033530235291 0.00600183010101318359
8 -1 3 0.00580901652574539185 0.00891556590795516968 0.0110724493861198425
8 0 3 -0.209071114659309387 -0.211783424019813538 -0.212549939751625061
8 1 3 0.00322957895696163177 0.000273982062935829163 0.0146976113319396973
8 2 3 -0.0962676107883453369 -0.09969310462474823 -0.100498288869857788
8 3 3 0.000372640788555145264 0.0002519264817237854 0.00355324894189834595
8 4 3 -0.00974614918231964111 -0.00991959869861602783 -0.010224469006061554
8 5 3 -0.00181127339601516724 -0.00275645405054092407 0.00205629318952560425
8 6 3 -0.0733169317245483398 -0.0713812187314033508 -0.0723588094115257263
8 7 3 0.00234346464276313782 0.00252920016646385193 0.00497874245047569275
8 8 3 -0.00773129239678382874 -0.0115704871714115143 -0.0115082152187824249
9 -9 3 -0.0286668483167886734 -0.0313946381211280823 -0.0339676998555660248
9 -8 3 0.00503230094909667969 0.00120427832007408142 0.00661082565784454346
9 -7 3 -0.0208556205034255981 -0.0233036838471889496 -0.0245032459497451782
9 -6 3 -0.0159273073077201843 -0.0111998952925205231 -0.00704342126846313477
9 -5 3 -0.0468508303165435791 -0.0451233126223087311 -0.0572470314800739288
9 -4 3 -0.00688632205128669739 -0.00661635398864746094 -0.0034703575074672699
9 -3 3 -0.0284166783094406128 -0.024002373218536377 -0.0267721116542816162
9 -2 3 -0.00611212849617004395 -0.00584315881133079529 -0.00751757062971591949
9 -1 3 0.0244456306099891663 0.0136437416076660156 0.026208922266960144
9 0 3 -0.0103755742311477661 -0.0128550902009010315 -0.0228818580508232117
9 1 3 0.0206483695656061172 0.0286282580345869064 0.0317103452980518341
9 2 3 -0.00513743981719017029 -0.00753536820411682129 -0.0167677216231822968
9 3 3 0.0241044908761978149 0.0293187648057937622 0.0314671322703361511
9 4 3 -0.0016733705997467041 -0.00134584307670593262 -0.00554667413234710693
9 5 3 0.0319956541061401367 0.0341164693236351013 0.0364945605397224426
9 6 3 -0.00413298048079013824 -0.00434433668851852417 -0.0184049122035503387
9 7 3 0.0112991519272327423 0.0211435146629810333 0.0202160626649856567
9 8 3 -0.000122316181659698486 -0.00182718411087989807 -0.00893337279558181763
9 9 3 0.0300824977457523346 0.0367570668458938599 0.0380679816007614136
10 -10 3 0.0241969488561153412 0.0308313332498073578 0.0294198542833328247
10 -9 3 0.00471121631562709808 0.0036012604832649231 0.00114503130316734314
10 -8 3 0.0297288447618484497 0.0300231743603944778 0.0298461001366376877
10 -7 3 -0.00162109732627868652 -0.00219910219311714172 -0.00614428147673606873
10 -6 3 0.0474726855754852295 0.0547448843717575073 0.051691688597202301
10 -5 3 0.00558198988437652588 0.00374220311641693115 -0.000720987096428871155
10 -4 3 0.0294326730072498322 0.0321892052888870239 0.0331313014030456543
10 -3 3 -0.00274711102247238159 -0.001971416175365448 -0.00356753915548324585
10 -2 3 -0.0209792628884315491 -0.0234724432229995728 -0.0200603976845741272
10 -1 3 0.00415629148483276367 0.00162744522094726562 0.00544841727241873741
10 0 3 -0.0187381505966186523 -0.015310581773519516 -0.0112056843936443329
10 1 3 0.005326099693775177 0.00400665402412414551 -0.00197768211364746094
10 2 3 -0.0400060787796974182 -0.045573212206363678 -0.0463729016482830048
10 3 3 -0.00355309993028640747 -0.0019302666187286377 0.00951024144887924194
10 4 3 -0.1059742271900177 -0.104530900716781616 -0.109791666269302368
10 5 3 0.00302723981440067291 0.00546042993664741516 0.00552548281848430634
10 6 3 -0.159113526344299316 -0.165104061365127563 -0.166330069303512573
10 7 3 -0.00245321542024612427 -0.0021909959614276886 0.00264587998390197754
10 8 3 -0.116518139839172363 -0.119050279259681702 -0.121564619243144989
10 9 3 -0.00575796887278556824 -0.00233044102787971497 0.000736318528652191162
10 10 3 -0.0652134865522384644 -0.0709335803985595703 -0.0708617344498634338
0.262865602970123291 0.951056480407714844 0.162459895014762878 134 145 138 255
0.525731086730957031 0.850650787353515625 0 138 144 131 255
0.262865602970123291 0.951056480407714844 -0.162459895014762878 134 147 126 255
0 1 0 131 147 133 255
0.5 0.809017002582550049 0.309017002582550049 135 142 137 255
0.5 0.809017002582550049 -0.309017002582550049 137 145 119 255
0 0.961938321590423584 -0.273266613483428955 130 147 122 255
0.259891897439956665 0.862668514251708984 -0.433888614177703857 133 140 113 255
0 0.850650787353515625 -0.525731086730957031 131 139 111 255
0.259891897439956665 0.862668514251708984 0.433888614177703857 131 141 142 255
0 0.961938321590423584 0.273266613483428955 133 145 143 255
0 0.850650787353515625 0.525731086730957031 131 140 142 255
0.702046394348144531 0.693780481815338135 -0.160622000694274902 141 142 126 255
0.702046394348144531 0.693780481815338135 0.160622000694274902 137 140 136 255
0.850650787353515625 0.525731086730957031 0 140 138 130 255
-0.262865602970123291 0.951056480407714844 -0.162459895014762878 124 149 124 255
-0.525731086730957031 0.850650787353515625 0 116 147 129 255
-0.262865602970123291 0.951056480407714844 0.162459895014762878 125 146 140 255
-0.5 0.809017002582550049 -0.309017002582550049 115 137 115 255
-0.5 0.809017002582550049 0.309017002582550049 118 141 145 255
-0.259891897439956665 0.862668514251708984 0.433888614177703857 128 140 144 255
-0.259891897439956665 0.862668514251708984 -0.433888614177703857 124 138 111 255
-0.702046394348144531 0.693780481815338135 0.160622000694274902 112 134 137 255
-0.702046394348144531 0.693780481815338135 -0.160622000694274902 108 137 117 255
-0.850650787353515625 0.525731086730957031 0 105 132 123 255
0.262865602970123291 -0.951056480407714844 -0.162459895014762878 128 109 125 255
0.525731086730957031 -0.850650787353515625 0 135 110 124 255
0.262865602970123291 -0.951056480407714844 0.162459895014762878 127 112 134 255
0 -1 0 121 107 127 255
0.5 -0.809017002582550049 -0.309017002582550049 132 111 124 255
0.5 -0.809017002582550049 0.309017002582550049 132 114 135 255
0 -0.961938321590423584 0.273266613483428955 122 110 136 255
0.259891897439956665 -0.862668514251708984 0.433888614177703857 127 111 137 255
0 -0.850650787353515625 0.525731086730957031 125 112 138 255
0.259891897439956665 -0.862668514251708984 -0.433888614177703857 130 113 119 255
0 -0.961938321590423584 -0.273266613483428955 124 110 121 255
0 -0.850650787353515625 -0.525731086730957031 125 112 117 255
0.702046394348144531 -0.693780481815338135 0.160622000694274902 137 112 129 255
0.702046394348144531 -0.693780481815338135 -0.160622000694274902 136 112 126 255
0.850650787353515625 -0.525731086730957031 0 139 113 126 255
-0.262865602970123291 -0.951056480407714844 0.162459895014762878 119 107 132 255
-0.525731086730957031 -0.850650787353515625 0 117 109 126 255
-0.262865602970123291 -0.951056480407714844 -0.162459895014762878 120 110 122 255
-0.5 -0.809017002582550049 0.309017002582550049 115 107 133 255
-0.5 -0.809017002582550049 -0.309017002582550049 116 111 119 255
-0.259891897439956665 -0.862668514251708984 -0.433888614177703857 119 109 118 255
-0.259891897439956665 -0.862668514251708984 0.433888614177703857 120 109 134 255
-0.702046394348144531 -0.693780481815338135 -0.160622000694274902 113 110 123 255
-0.702046394348144531 -0.693780481815338135 0.160622000694274902 113 110 129 255
-0.850650787353515625 -0.525731086730957031 0 109 113 127 255
0.951056480407714844 -0.162459895014762878 -0.262865602970123291 142 122 122 255
0.850650787353515625 0 -0.525731086730957031 140 134 111 255
0.951056480407714844 0.162459895014762878 -0.262865602970123291 142 134 121 255
1 0 0 143 129 127 255
0.809017002582550049 -0.309017002582550049 -0.5 137 120 114 255
0.809017002582550049 0.309017002582550049 -0.5 139 135 113 255
0.961938321590423584 0.273266613483428955 0 144 136 129 255
0.862668514251708984 0.433888614177703857 -0.259891897439956665 141 138 121 255
0.862668514251708984 -0.433888614177703857 -0.259891897439956665 140 114 125 255
0.961938321590423584 -0.273266613483428955 0 142 119 127 255
0.693780481815338135 0.160622000694274902 -0.702046394348144531 135 133 108 255
0.693780481815338135 -0.160622000694274902 -0.702046394348144531 135 125 107 255
0.525731086730957031 0 -0.850650787353515625 133 131 104 255
0.951056480407714844 0.162459895014762878 0.262865602970123291 141 136 135 255
0.850650787353515625 0 0.525731086730957031 137 135 142 255
0.951056480407714844 -0.162459895014762878 0.262865602970123291 140 125 131 255
0.809017002582550049 0.309017002582550049 0.5 136 137 143 255
0.809017002582550049 -0.309017002582550049 0.5 138 123 139 255
0.862668514251708984 -0.433888614177703857 0.259891897439956665 141 117 132 255
0.862668514251708984 0.433888614177703857 0.259891897439956665 137 138 136 255
0.693780481815338135 -0.160622000694274902 0.702046394348144531 133 127 146 255
0.693780481815338135 0.160622000694274902 0.702046394348144531 134 136 143 255
0.525731086730957031 0 0.850650787353515625 131 135 144 255
-0.951056480407714844 -0.162459895014762878 0.262865602970123291 105 124 131 255
-0.850650787353515625 0 0.525731086730957031 109 133 142 255
-0.951056480407714844 0.162459895014762878 0.262865602970123291 105 128 136 255
-1 0 0 104 129 123 255
-0.809017002582550049 -0.309017002582550049 0.5 109 121 139 255
-0.809017002582550049 0.309017002582550049 0.5 112 133 143 255
-0.961938321590423584 0.273266613483428955 0 104 125 121 255
-0.862668514251708984 0.433888614177703857 0.259891897439956665 108 131 141 255
-0.862668514251708984 -0.433888614177703857 0.259891897439956665 107 115 131 255
-0.961938321590423584 -0.273266613483428955 0 103 118 124 255
-0.693780481815338135 0.160622000694274902 0.702046394348144531 113 134 147 255
-0.693780481815338135 -0.160622000694274902 0.702046394348144531 112 127 145 255
-0.525731086730957031 0 0.850650787353515625 117 133 149 255
-0.951056480407714844 0.162459895014762878 -0.262865602970123291 106 131 112 255
-0.850650787353515625 0 -0.525731086730957031 108 132 111 255
-0.951056480407714844 -0.162459895014762878 -0.262865602970123291 104 125 117 255
-0.809017002582550049 0.309017002582550049 -0.5 109 128 109 255
-0.809017002582550049 -0.309017002582550049 -0.5 109 118 114 255
-0.862668514251708984 -0.433888614177703857 -0.259891897439956665 109 114 120 255
-0.862668514251708984 0.433888614177703857 -0.259891897439956665 105 128 110 255
-0.693780481815338135 -0.160622000694274902 -0.702046394348144531 113 126 108 255
-0.693780481815338135 0.160622000694274902 -0.702046394348144531 113 132 107 255
-0.525731086730957031 0 -0.850650787353515625 117 132 107 255
-0.162459895014762878 -0.262865602970123291 0.951056480407714844 125 124 148 255
0 -0.525731086730957031 0.850650787353515625 128 120 148 255
0.162459895014762878 -0.262865602970123291 0.951056480407714844 130 126 146 255
0 0 1 128 136 147 255
-0.309017002582550049 -0.5 0.809017002582550049 124 116 147 255
0.309017002582550049 -0.5 0.809017002582550049 130 121 145 255
0.273266613483428955 0 0.961938321590423584 128 136 145 255
0.433888614177703857 -0.259891897439956665 0.862668514251708984 131 124 145 255
-0.433888614177703857 -0.259891897439956665 0.862668514251708984 120 124 147 255
-0.273266613483428955 0 0.961938321590423584 124 135 148 255
0.160622000694274902 -0.702046394348144531 0.693780481815338135 129 116 145 255
-0.160622000694274902 -0.702046394348144531 0.693780481815338135 123 114 144 255
0.162459895014762878 0.262865602970123291 0.951056480407714844 129 136 144 255
0 0.525731086730957031 0.850650787353515625 128 137 145 255
-0.162459895014762878 0.262865602970123291 0.951056480407714844 126 136 146 255
0.309017002582550049 0.5 0.809017002582550049 130 137 143 255
-0.309017002582550049 0.5 0.809017002582550049 123 136 145 255
-0.433888614177703857 0.259891897439956665 0.862668514251708984 120 135 148 255
0.433888614177703857 0.259891897439956665 0.862668514251708984 130 136 143 255
-0.160622000694274902 0.702046394348144531 0.693780481815338135 128 135 145 255
0.160622000694274902 0.702046394348144531 0.693780481815338135 130 138 143 255
-0.162459895014762878 0.262865602970123291 -0.951056480407714844 123 131 106 255
0 0.525731086730957031 -0.850650787353515625 126 136 105 255
0.162459895014762878 0.262865602970123291 -0.951056480407714844 127 131 105 255
0 0 -1 125 132 104 255
-0.309017002582550049 0.5 -0.809017002582550049 118 132 107 255
0.309017002582550049 0.5 -0.809017002582550049 133 135 107 255
0.273266613483428955 0 -0.961938321590423584 130 132 105 255
0.433888614177703857 0.259891897439956665 -0.862668514251708984 132 132 109 255
-0.433888614177703857 0.259891897439956665 -0.862668514251708984 117 131 108 255
-0.273266613483428955 0 -0.961938321590423584 121 132 105 255
0.160622000694274902 0.702046394348144531 -0.693780481815338135 133 138 106 255
-0.160622000694274902 0.702046394348144531 -0.693780481815338135 125 136 104 255
0.162459895014762878 -0.262865602970123291 -0.951056480407714844 127 123 106 255
0 -0.525731086730957031 -0.850650787353515625 124 118 108 255
-0.162459895014762878 -0.262865602970123291 -0.951056480407714844 123 124 107 255
0.309017002582550049 -0.5 -0.809017002582550049 128 119 109 255
-0.309017002582550049 -0.5 -0.809017002582550049 119 118 109 255
-0.433888614177703857 -0.259891897439956665 -0.862668514251708984 118 123 109 255
0.433888614177703857 -0.259891897439956665 -0.862668514251708984 131 122 106 255
-0.160622000694274902 -0.702046394348144531 -0.693780481815338135 121 115 112 255
0.160622000694274902 -0.702046394348144531 -0.693780481815338135 128 114 113 255
0.587785303592681885 0.425325393676757812 0.688190877437591553 131 137 142 255
0.688190877437591553 0.587785303592681885 0.425325393676757812 132 140 141 255
0.425325393676757812 0.688190877437591553 0.587785303592681885 130 138 144 255
-0.688190877437591553 0.587785303592681885 0.425325393676757812 114 135 146 255
-0.587785303592681885 0.425325393676757812 0.688190877437591553 117 136 146 255
-0.425325393676757812 0.688190877437591553 0.587785303592681885 120 137 146 255
0.688190877437591553 0.587785303592681885 -0.425325393676757812 139 138 115 255
0.587785303592681885 0.425325393676757812 -0.688190877437591553 134 134 107 255
0.425325393676757812 0.688190877437591553 -0.587785303592681885 134 137 109 255
-0.587785303592681885 0.425325393676757812 -0.688190877437591553 115 129 107 255
-0.688190877437591553 0.587785303592681885 -0.425325393676757812 108 130 106 255
-0.425325393676757812 0.688190877437591553 -0.587785303592681885 117 132 105 255
0.688190877437591553 -0.587785303592681885 0.425325393676757812 138 115 138 255
0.587785303592681885 -0.425325393676757812 0.688190877437591553 132 123 145 255
0.425325393676757812 -0.688190877437591553 0.587785303592681885 129 117 141 255
-0.587785303592681885 -0.425325393676757812 0.688190877437591553 114 116 142 255
-0.688190877437591553 -0.587785303592681885 0.425325393676757812 112 111 135 255
-0.425325393676757812 -0.688190877437591553 0.587785303592681885 118 111 139 255
0.587785303592681885 -0.425325393676757812 -0.688190877437591553 133 118 110 255
0.688190877437591553 -0.587785303592681885 -0.425325393676757812 137 111 120 255
0.425325393676757812 -0.688190877437591553 -0.587785303592681885 130 112 114 255
-0.688190877437591553 -0.587785303592681885 -0.425325393676757812 112 111 119 255
-0.587785303592681885 -0.425325393676757812 -0.688190877437591553 115 117 112 255
-0.425325393676757812 -0.688190877437591553 -0.587785303592681885 117 113 116 255
