ply
format ascii 1.0
element vertex 322
property float x
property float y
property float z
property uchar red
property uchar green
property uchar blue
property uchar alpha
element camera 162
property float x
property float y
property float z
property uchar red
property uchar green
property uchar blue
property uchar alpha
end_header
0.2628656 0.9510565 0.1624599 151 182 152 255 
0.5257311 0.8506508 0 161 179 137 255 
0.2628656 0.9510565 -0.1624599 150 184 121 255 
0 1 0 138 187 138 255 
0.5 0.809017 0.309017 158 175 159 255 
0.5 0.809017 -0.309017 159 176 106 255 
0 0.9619383 -0.2732666 136 183 109 255 
0.2598919 0.8626685 -0.4338886 148 176 92 255 
0 0.8506508 -0.5257311 133 172 81 255 
0.2598919 0.8626685 0.4338886 148 176 168 255 
0 0.9619383 0.2732666 139 182 162 255 
0 0.8506508 0.5257311 137 174 174 255 
0.7020464 0.6937805 -0.160622 168 173 121 255 
0.7020464 0.6937805 0.160622 166 173 147 255 
0.8506508 0.5257311 0 173 166 133 255 
-0.2628656 0.9510565 -0.1624599 119 185 119 255 
-0.5257311 0.8506508 0 96 171 134 255 
-0.2628656 0.9510565 0.1624599 122 183 153 255 
-0.5 0.809017 -0.309017 93 163 98 255 
-0.5 0.809017 0.309017 101 170 163 255 
-0.2598919 0.8626685 0.4338886 123 174 172 255 
-0.2598919 0.8626685 -0.4338886 114 172 87 255 
-0.7020464 0.6937805 0.160622 85 160 145 255 
-0.7020464 0.6937805 -0.160622 78 155 109 255 
-0.8506508 0.5257311 0 72 148 120 255 
0.2628656 -0.9510565 -0.1624599 139 60 117 255 
0.5257311 -0.8506508 0 151 63 128 255 
0.2628656 -0.9510565 0.1624599 138 61 146 255 
0 -1 0 122 58 129 255 
0.5 -0.809017 -0.309017 150 69 107 255 
0.5 -0.809017 0.309017 147 69 158 255 
0 -0.9619383 0.2732666 123 63 152 255 
0.2598919 -0.8626685 0.4338886 136 69 166 255 
0 -0.8506508 0.5257311 124 70 171 255 
0.2598919 -0.8626685 -0.4338886 138 70 98 255 
0 -0.9619383 -0.2732666 123 64 109 255 
0 -0.8506508 -0.5257311 124 72 92 255 
0.7020464 -0.6937805 0.160622 158 75 141 255 
0.7020464 -0.6937805 -0.160622 161 76 116 255 
0.8506508 -0.5257311 0 169 88 126 255 
-0.2628656 -0.9510565 0.1624599 109 61 142 255 
-0.5257311 -0.8506508 0 96 67 126 255 
-0.2628656 -0.9510565 -0.1624599 110 64 115 255 
-0.5 -0.809017 0.309017 97 69 150 255 
-0.5 -0.809017 -0.309017 100 72 105 255 
-0.2598919 -0.8626685 -0.4338886 111 71 99 255 
-0.2598919 -0.8626685 0.4338886 110 67 161 255 
-0.7020464 -0.6937805 -0.160622 88 77 113 255 
-0.7020464 -0.6937805 0.160622 85 76 137 255 
-0.8506508 -0.5257311 0 77 86 123 255 
0.9510565 -0.1624599 -0.2628656 180 117 105 255 
0.8506508 0 -0.5257311 176 133 80 255 
0.9510565 0.1624599 -0.2628656 183 144 106 255 
1 0 0 186 133 129 255 
0.809017 -0.309017 -0.5 168 104 87 255 
0.809017 0.309017 -0.5 174 151 84 255 
0.9619383 0.2732666 0 182 151 131 255 
0.8626685 0.4338886 -0.2598919 176 160 108 255 
0.8626685 -0.4338886 -0.2598919 171 94 108 255 
0.9619383 -0.2732666 0 178 108 127 255 
0.6937805 0.160622 -0.7020464 164 141 66 255 
0.6937805 -0.160622 -0.7020464 163 118 71 255 
0.5257311 0 -0.8506508 154 130 58 255 
0.9510565 0.1624599 0.2628656 181 147 154 255 
0.8506508 0 0.5257311 172 138 176 255 
0.9510565 -0.1624599 0.2628656 180 122 152 255 
0.809017 0.309017 0.5 167 156 173 255 
0.809017 -0.309017 0.5 167 114 174 255 
0.8626685 -0.4338886 0.2598919 170 99 152 255 
0.8626685 0.4338886 0.2598919 171 162 155 255 
0.6937805 -0.160622 0.7020464 161 127 187 255 
0.6937805 0.160622 0.7020464 161 150 188 255 
0.5257311 0 0.8506508 153 140 194 255 
-0.9510565 -0.1624599 0.2628656 66 112 142 255 
-0.8506508 0 0.5257311 74 129 169 255 
-0.9510565 0.1624599 0.2628656 66 132 144 255 
-1 0 0 61 124 119 255 
-0.809017 -0.309017 0.5 78 103 163 255 
-0.809017 0.309017 0.5 81 145 169 255 
-0.9619383 0.2732666 0 64 135 117 255 
-0.8626685 0.4338886 0.2598919 75 147 149 255 
-0.8626685 -0.4338886 0.2598919 73 92 142 255 
-0.9619383 -0.2732666 0 66 103 122 255 
-0.6937805 0.160622 0.7020464 90 141 183 255 
-0.6937805 -0.160622 0.7020464 88 119 181 255 
-0.5257311 0 0.8506508 102 135 193 255 
-0.9510565 0.1624599 -0.2628656 66 133 96 255 
-0.8506508 0 -0.5257311 73 127 79 255 
-0.9510565 -0.1624599 -0.2628656 66 113 101 255 
-0.809017 0.309017 -0.5 77 139 80 255 
-0.809017 -0.309017 -0.5 80 101 87 255 
-0.8626685 -0.4338886 -0.2598919 77 91 105 255 
-0.8626685 0.4338886 -0.2598919 69 141 96 255 
-0.6937805 -0.160622 -0.7020464 88 114 72 255 
-0.6937805 0.160622 -0.7020464 86 135 69 255 
-0.5257311 0 -0.8506508 98 127 62 255 
-0.1624599 -0.2628656 0.9510565 122 117 197 255 
0 -0.5257311 0.8506508 129 99 191 255 
0.1624599 -0.2628656 0.9510565 138 119 197 255 
0 0 1 131 138 200 255 
-0.309017 -0.5 0.809017 113 97 188 255 
0.309017 -0.5 0.809017 141 103 190 255 
0.2732666 0 0.9619383 143 140 199 255 
0.4338886 -0.2598919 0.8626685 148 120 193 255 
-0.4338886 -0.2598919 0.8626685 106 115 192 255 
-0.2732666 0 0.9619383 117 137 199 255 
0.160622 -0.7020464 0.6937805 133 86 183 255 
-0.160622 -0.7020464 0.6937805 118 83 181 255 
0.1624599 0.2628656 0.9510565 139 151 194 255 
0 0.5257311 0.8506508 133 159 189 255 
-0.1624599 0.2628656 0.9510565 125 149 196 255 
0.309017 0.5 0.809017 145 160 186 255 
-0.309017 0.5 0.809017 118 157 189 255 
-0.4338886 0.2598919 0.8626685 110 148 192 255 
0.4338886 0.2598919 0.8626685 148 152 190 255 
-0.160622 0.7020464 0.6937805 128 165 183 255 
0.160622 0.7020464 0.6937805 142 167 180 255 
-0.1624599 0.2628656 -0.9510565 116 140 53 255 
0 0.5257311 -0.8506508 126 154 58 255 
0.1624599 0.2628656 -0.9510565 133 141 52 255 
0 0 -1 124 129 51 255 
-0.309017 0.5 -0.809017 107 149 61 255 
0.309017 0.5 -0.809017 144 156 60 255 
0.2732666 0 -0.9619383 139 129 52 255 
0.4338886 0.2598919 -0.8626685 149 143 57 255 
-0.4338886 0.2598919 -0.8626685 102 140 59 255 
-0.2732666 0 -0.9619383 111 128 54 255 
0.160622 0.7020464 -0.6937805 140 165 68 255 
-0.160622 0.7020464 -0.6937805 119 160 65 255 
0.1624599 -0.2628656 -0.9510565 131 111 60 255 
0 -0.5257311 -0.8506508 123 95 71 255 
-0.1624599 -0.2628656 -0.9510565 116 111 61 255 
0.309017 -0.5 -0.809017 138 95 72 255 
-0.309017 -0.5 -0.809017 109 96 73 255 
-0.4338886 -0.2598919 -0.8626685 104 110 66 255 
0.4338886 -0.2598919 -0.8626685 146 111 64 255 
-0.160622 -0.7020464 -0.6937805 116 83 82 255 
0.160622 -0.7020464 -0.6937805 132 82 82 255 
0.5877853 0.4253254 0.6881909 155 160 182 255 
0.6881909 0.5877853 0.4253254 162 167 167 255 
0.4253254 0.6881909 0.5877853 152 168 176 255 
-0.6881909 0.5877853 0.4253254 89 158 167 255 
-0.5877853 0.4253254 0.6881909 99 154 183 255 
-0.4253254 0.6881909 0.5877853 109 165 178 255 
0.6881909 0.5877853 -0.4253254 167 166 94 255 
0.5877853 0.4253254 -0.6881909 159 154 68 255 
0.4253254 0.6881909 -0.5877853 153 167 76 255 
-0.5877853 0.4253254 -0.6881909 91 143 68 255 
-0.6881909 0.5877853 -0.4253254 80 146 84 255 
-0.4253254 0.6881909 -0.5877853 98 154 70 255 
0.6881909 -0.5877853 0.4253254 158 88 168 255 
0.5877853 -0.4253254 0.6881909 154 108 186 255 
0.4253254 -0.6881909 0.5877853 143 84 178 255 
-0.5877853 -0.4253254 0.6881909 94 97 177 255 
-0.6881909 -0.5877853 0.4253254 86 82 156 255 
-0.4253254 -0.6881909 0.5877853 102 78 170 255 
0.5877853 -0.4253254 -0.6881909 153 97 77 255 
0.6881909 -0.5877853 -0.4253254 161 82 97 255 
0.4253254 -0.6881909 -0.5877853 145 80 87 255 
-0.6881909 -0.5877853 -0.4253254 90 84 97 255 
-0.5877853 -0.4253254 -0.6881909 96 97 80 255 
-0.4253254 -0.6881909 -0.5877853 104 82 89 255 
-0.5367158 -0.3749152 -0.0638075 62 38 63 255 
-0.10470505 -0.54486996 -0.2353085 23 109 55 255 
0.019485865 -0.43268627 0.53000814 91 108 248 255 
0.19244497 -0.11518678 0.49900654 147 227 203 255 
-0.009556937 -0.42611843 -0.35668606 109 95 5 255 
-0.36545804 -0.60488045 -0.048741937 53 172 33 255 
-0.6468057 -0.15574253 0.3084766 29 130 209 255 
-0.49508187 0.44597834 0.14720026 129 254 121 255 
0.08367221 -0.7293458 0.46957648 138 6 166 255 
-0.16748288 -0.36945152 -0.19335255 13 95 80 255 
0.3593695 -0.5707987 -0.23286337 181 64 30 255 
-0.62280977 0.27998015 0.4681859 72 198 217 255 
-0.28744456 -0.74295974 0.000006750013 131 0 125 255 
-0.06642169 0.048114512 -0.14245552 116 213 34 255 
0.21391429 -0.40918562 0.5488274 150 122 252 255 
-0.7332917 0.14611652 0.097548954 8 135 82 255 
-0.4466288 0.024864402 -0.12332267 78 183 23 255 
0.27531058 0.05152495 -0.15029797 162 187 20 255 
0.0703233 -0.69689775 0.1597586 128 0 128 255 
-0.7020341 0.2749173 0.3740687 10 161 164 255 
-0.4962677 -0.21696734 0.43100503 70 128 241 255 
-0.5944496 -0.3801836 0.21556246 36 43 157 255 
-0.63648134 -0.28431156 -0.01463957 20 76 79 255 
-0.3862178 -0.59984463 0.36386427 88 248 138 255 
-0.34017855 0.5214765 0.025652703 50 226 150 255 
-0.15921837 -0.74294686 -0.27969253 117 12 74 255 
0.67486954 -0.6174605 0.1098592 211 31 117 255 
0.11768783 -0.5086012 0.53252935 117 92 249 255 
-0.20231786 0.13628884 0.24458635 133 239 188 255 
-0.14341727 -0.63492036 -0.26375642 110 203 26 255 
0.5934333 -0.39217877 0.017878765 233 141 57 255 
0.05473293 -0.69750273 -0.14312471 117 23 200 255 
0.026805617 0.0916545 0.36041495 94 208 220 255 
-0.29041362 -0.5395418 0.37337586 47 135 226 255 
0.38408688 -0.41814548 -0.24646755 204 111 27 255 
0.018513953 -0.7287386 -0.24427858 151 59 22 255 
0.42449552 -0.57110345 0.3846761 188 85 231 255 
-0.45515043 -0.428185 0.3174963 86 26 193 255 
0.101873524 -0.086960845 0.43871891 124 218 216 255 
0.32732338 0.16465907 0.23117709 178 239 161 255 
0.07177344 -0.24019031 -0.36110294 145 151 3 255 
0.5055416 -0.6687178 -0.018555697 156 45 34 255 
0.036088202 -0.0014614095 -0.18692969 116 196 20 255 
0.1355157 -0.04272912 -0.20922467 147 154 4 255 
0.5770418 -0.6811368 0.09534852 185 14 118 255 
-0.5368322 0.38301882 -0.37229303 61 25 89 255 
0.67352325 -0.6064609 0.21438962 207 39 173 255 
0.34986627 -0.3023432 -0.26050204 183 134 12 255 
-0.04329827 0.47251377 -0.03684356 204 67 209 255 
-0.5089419 -0.72501403 0.1255231 33 90 204 255 
0.64769256 -0.47122303 -0.024934899 151 184 16 255 
-0.21799238 -0.71655935 0.11337325 76 36 201 255 
0.36532128 -0.7203346 0.09391973 76 16 163 255 
-0.4586732 -0.11973429 0.42167455 99 160 247 255 
0.48303393 -0.25612268 0.4126667 208 124 225 255 
0.14603265 -0.6050485 -0.28170142 142 61 19 255 
0.3735628 0.106779754 0.30828604 183 217 199 255 
0.60831004 -0.60194737 -0.028879745 184 58 37 255 
-0.5589463 -0.36619362 0.3136343 49 49 190 255 
-0.50755566 -0.7418691 0.006766874 103 2 123 255 
0.329217 -0.360089 0.51153207 181 97 239 255 
0.04532354 0.11655695 -0.08554742 98 224 50 255 
0.41151133 -0.38449827 0.4408331 209 101 221 255 
0.48317453 -0.024418535 0.3183508 217 179 201 255 
-0.37215915 -0.34435531 0.41560474 120 65 238 255 
-0.64219385 -0.16385129 -0.051331922 25 136 51 255 
-0.4562898 0.0018772266 0.3733023 140 144 253 255 
0.6007384 -0.37984183 0.22728834 230 170 189 255 
-0.143941 -0.7236798 -0.1776442 151 33 210 255 
-0.35371587 -0.7431529 0.14439313 135 0 124 255 
0.2952664 0.18913461 0.07594913 170 246 113 255 
-0.59023076 0.65006375 -0.4785862 10 146 80 255 
0.5533922 -0.36425233 -0.081433654 232 128 55 255 
0.70990413 -0.41254365 0.24124666 208 184 208 255 
-0.56765604 0.38040486 0.38878936 110 230 201 255 
-0.44621965 0.52195674 -0.56762797 169 63 25 255 
0.59144706 -0.2423197 -0.011856505 249 124 91 255 
-0.18143041 0.022009922 0.3488095 125 199 232 255 
-0.013637228 -0.6874897 0.39099103 130 0 137 255 
-0.7326811 0.04436353 0.1737954 22 55 133 255 
0.3757965 -0.65321046 -0.13235366 229 60 90 255 
-0.35765702 -0.24093622 0.44852272 118 123 254 255 
0.45504445 -0.23184353 -0.18932591 195 140 20 255 
0.029113272 -0.5657935 -0.30415836 113 70 14 255 
-0.079048514 0.018746974 0.37311262 94 200 226 255 
0.48735893 -0.715384 0.16651446 164 7 148 255 
-0.03939136 -0.69642895 0.27907777 129 0 135 255 
-0.047914144 -0.69773835 0.052443262 130 0 124 255 
-0.45136568 0.41020328 -0.30394733 235 65 99 255 
-0.07106608 -0.4101494 0.44702756 22 92 191 255 
-0.1380124 -0.3217192 -0.30971798 24 110 54 255 
-0.5811883 0.4358217 0.08599986 97 250 111 255 
-0.11489374 0.0856962 0.29867432 101 226 203 255 
0.5634549 -0.10364688 0.24421978 242 168 163 255 
-0.38008484 -0.7205267 0.45864856 119 53 230 255 
0.58738697 -0.59549636 0.31279388 171 68 231 255 
0.16285929 0.12592182 0.34584296 131 217 218 255 
0.07650622 -0.14339298 0.5369466 116 208 224 255 
0.14438312 0.055885248 -0.15790232 108 205 28 255 
-0.42979476 -0.63829863 0.12920813 77 227 189 255 
0.2325431 0.16533436 -0.041840352 141 236 63 255 
0.13104632 -0.3344311 0.5783633 130 130 254 255 
0.15956655 -0.7249397 0.08883387 54 24 111 255 
0.2635238 -0.494991 0.51791406 177 104 242 255 
-0.62943166 -0.3561655 0.11698054 21 57 131 255 
-0.073987104 -0.13886976 0.43981045 76 172 235 255 
0.56150806 -0.123105064 -0.029889774 237 166 76 255 
0.18055734 -0.24728225 -0.32933655 173 145 9 255 
-0.60516816 -0.03862005 0.31965628 29 136 208 255 
0.1564114 -0.6111236 0.48543522 118 33 212 255 
0.27634585 -0.21508944 -0.2907362 179 147 12 255 
-0.07133851 0.7143923 -0.10332891 111 235 192 255 
-0.6111122 0.25119078 -0.031563845 52 149 26 255 
-0.6986403 -0.12750821 0.21320368 5 142 160 255 
-0.5565278 -0.10417293 0.38065603 57 158 229 255 
-0.35974404 0.38458478 0.2518931 246 154 164 255 
-0.1639921 -0.7357907 0.36684343 125 0 131 255 
-0.540926 0.43094724 0.29576996 117 249 163 255 
-0.03367718 -0.32099798 -0.37014326 116 122 0 255 
-0.26778573 -0.35712013 -0.16474257 104 91 7 255 
-0.16111416 0.57909185 -0.14120972 64 140 17 255 
0.35504258 -0.13253947 -0.21239594 163 165 11 255 
0.39542195 0.14076762 0.15924698 198 233 132 255 
-0.54182893 -0.1204712 -0.13136673 71 158 17 255 
-0.30164292 0.11615237 0.28843808 224 147 208 255 
-0.3404934 -0.7345665 0.3447322 129 0 130 255 
-0.49907795 0.623086 -0.4314784 198 221 176 255 
-0.30179727 0.014049985 -0.16093619 134 183 12 255 
-0.48473027 0.42117587 -0.4676807 182 25 74 255 
-0.28343323 -0.010941708 0.38469616 129 199 232 255 
0.3923352 -0.68321824 0.3691202 220 52 173 255 
0.5393016 -0.48841825 -0.053656835 234 90 68 255 
0.37788624 -0.7122018 -0.011612777 189 28 76 255 
0.30916706 -0.4886122 -0.26925138 166 117 6 255 
-0.7283445 0.16779783 0.36242443 5 162 134 255 
-0.0878615 -0.20656277 -0.33170155 61 190 38 255 
-0.45905346 -0.19411838 -0.1742616 95 136 4 255 
0.1905878 -0.7329561 0.19157419 89 8 153 255 
-0.12296914 -0.16506489 -0.23321731 73 178 24 255 
-0.5250795 0.057605498 -0.06851254 83 130 7 255 
0.56099695 -0.19131905 0.2986787 238 145 187 255 
-0.33704883 0.269581 0.23826662 233 185 167 255 
-0.73240703 0.077515036 0.4084442 13 89 170 255 
0.5785935 -0.08966497 0.10061853 246 174 129 255 
-0.36332977 0.042090226 0.3467582 163 163 244 255 
0.22223777 -0.259765 0.5565216 162 117 249 255 
-0.68548876 -0.041132033 0.1410838 6 167 125 255 
0.15108435 -0.49178898 -0.31500033 155 93 7 255 
0.1329946 0.18449585 -0.001685852 116 247 85 255 
0.45527118 -0.09403985 0.3910086 202 188 210 255 
0.21990663 0.20598496 0.17191671 135 254 140 255 
-0.24013066 0.5560106 0.04047532 141 186 239 255 
-0.45173833 0.53221506 -0.31048092 238 187 142 255 
-0.46465132 -0.4701445 0.010872295 86 11 92 255 
-0.6733467 0.16665874 0.47987628 35 136 215 255 
0.10507147 -0.39453873 -0.3399606 156 105 5 255 
-0.44262806 -0.6794969 -0.06315336 80 181 21 255 
0.15455978 -0.14567444 -0.30234244 151 215 38 255 
-0.64956176 0.117250696 -0.027507517 61 105 20 255 
-0.092356175 -0.31579775 0.47786027 23 81 185 255 
-0.62549216 -0.28308 0.31194416 30 77 193 255 
-0.3450218 0.110776216 -0.09608405 101 213 36 255 
-0.06888748 0.49934983 -0.1320428 131 37 37 255 
-0.61819255 0.032992184 0.4612424 90 58 228 255 
-0.6644494 0.0057669603 0.24676105 33 49 165 255 
0.0250777 0.16979071 0.021375548 99 247 92 255 
0.1417455 0.012163823 0.4204257 129 171 247 255 
-0.44059753 0.4510625 -0.16438676 248 159 149 255 
-0.7517825 0.15499732 0.22409388 2 147 140 255 
0.46027964 -0.3342741 -0.19291535 214 125 34 255 
-0.24393202 -0.74234766 0.2700697 123 0 131 255 
-0.15568326 0.47840887 0.029993605 155 207 222 255 
0.39647427 -0.24922459 0.4772406 195 144 234 255 
0.44519863 0.09794853 0.06798347 209 223 112 255 
0.484737 -0.57398635 -0.061544977 186 72 28 255 
0.024281804 -0.6940318 -0.033066083 131 0 124 255 
-0.47386298 0.6450018 -0.5783633 70 136 13 255 
-0.514293 0.23527876 0.47697774 206 163 220 255 
-0.40603963 0.35116443 0.33671427 228 126 205 255 
-0.6841316 -0.17531644 0.049491953 6 129 86 255 
-0.48594674 -0.4658048 0.2180336 78 18 171 255 
-0.06505654 0.1549944 0.16987938 90 247 150 255 
-0.25397548 0.1853681 0.09862709 179 244 123 255 
-0.15379816 -0.47459438 -0.14124873 17 87 77 255 
-0.4060471 -0.74434704 0.006581944 127 0 126 255 
-0.21804981 -0.10667508 -0.2039241 116 157 3 255 
-0.2067821 -0.6952876 -0.062221337 177 12 149 255 
-0.009442263 -0.7169152 0.51537085 157 58 230 255 
0.21349445 -0.68569666 0.3314982 107 1 131 255 
-0.15641561 -0.567612 -0.096963 53 177 36 255 
0.70886093 -0.41147658 0.03442008 196 188 39 255 
-0.2619808 0.36437643 -0.012111387 159 20 66 255 
-0.5279578 0.36115032 -0.25901705 92 7 103 255 
-0.1269917 -0.6151092 0.47194892 62 217 190 255 
-0.09533814 -0.7028167 0.16106495 237 62 119 255 
0.057129838 0.16239838 0.27623504 94 237 182 255 
-0.567774 0.1612729 -0.06917037 88 129 6 255 
0.11442216 -0.6870764 0.3647875 130 0 136 255 
-0.018738613 0.7443469 -0.18777893 80 241 96 255 
-0.47339553 -0.34685346 0.3887126 83 62 227 255 
0.2927124 -0.16596603 0.5080503 175 186 229 255 
-0.5643926 0.41285023 -0.17951958 5 163 118 255 
-0.68651885 0.39232844 0.107188486 38 196 67 255 
-0.26692978 -0.74239266 -0.2039406 78 11 105 255 
-0.58429843 -0.2643281 -0.102415614 36 92 45 255 
-0.3314046 -0.09152881 -0.20107844 113 157 4 255 
-0.22088276 0.61784947 -0.06481481 49 223 96 255 
-0.2523602 0.45694607 0.059152935 174 196 223 255 
0.49560633 0.017017018 -0.0130557325 224 200 88 255 
0.13237965 -0.6911389 -0.01828286 127 0 122 255 
-0.06794177 -0.69463605 -0.09894833 129 0 126 255 
0.37506735 -0.47836506 0.46744156 197 121 233 255 
0.26103768 -0.5910832 -0.2605661 151 69 16 255 
-0.3391006 -0.7040028 -0.10545075 96 157 7 255 
0.47215983 -0.44167912 -0.17055416 209 113 31 255 
-0.024906302 -0.17518198 0.5308794 74 193 222 255 
-0.34032205 -0.5977761 0.21871462 18 169 76 255 
0.44124553 -0.11871992 -0.16108395 198 168 29 255 
-0.6281626 0.43226388 0.19979773 93 250 134 255 
-0.21381147 -0.24204366 -0.20397145 90 93 10 255 
0.009109898 0.6294032 -0.17230791 198 165 226 255 
0.5938369 -0.2748945 0.24690904 247 131 169 255 
-0.16287148 -0.7164 0.4849798 50 69 211 255 
-0.48879087 0.45519564 -0.0515024 208 215 171 255 
-0.27413496 -0.46043512 -0.12123673 113 87 7 255 
0.34109432 0.10940427 -0.06583513 178 224 61 255 
0.6229131 -0.3540232 0.12928653 209 225 123 255 
-0.4021569 0.21860306 0.3668879 184 192 221 255 
0.49632722 -0.04996036 -0.09052315 212 183 50 255 
-0.11927132 0.14926508 0.0839928 131 254 115 255 
0.031875953 0.51243174 -0.10774607 234 109 194 255 
0.71241724 -0.51625484 0.24437667 229 95 196 255 
-0.42428297 0.44146866 0.050738532 56 229 100 255 
-0.1438663 0.5456618 -0.046930574 195 163 229 255 
-0.34604767 0.41644877 0.13411206 198 207 197 255 
-0.6948167 0.033370584 0.06517974 33 61 72 255 
-0.6116098 -0.06464412 -0.05561956 40 163 41 255 
0.5398228 -0.6708918 0.2510195 172 21 181 255 
-0.30737525 0.26556224 0.13719368 246 172 134 255 
-0.45763338 0.17040673 -0.074267 144 138 1 255 
-0.06768135 -0.08070175 -0.22258861 122 152 2 255 
-0.2528921 0.5047494 -0.091615565 60 127 19 255 
-0.142581 0.4310375 -0.065833285 159 17 71 255 
-0.44769734 0.35674733 -0.118405245 246 85 106 255 
-0.20034382 0.012890537 -0.16832162 124 189 15 255 
-0.5542627 0.10417743 0.52675724 109 115 253 255 
0.5232649 0.004509515 0.19120122 234 195 141 255 
0.7517825 -0.4305256 0.14427505 253 144 130 255 
-0.19695531 0.16466771 0.012126054 162 247 101 255 
-0.3911565 -0.5409616 0.031383682 0 138 119 255 
0.35970595 -0.09469277 0.45267588 172 181 233 255 
0.29791266 -0.73059106 -0.17190728 174 17 84 255 
-0.17914672 -0.40381238 0.41018814 163 112 249 255 
-0.3984651 -0.39432156 -0.1311917 110 40 35 255 
-0.49240214 0.039408457 0.4747542 199 39 185 255 
-0.094948396 -0.43753663 -0.2985444 37 88 46 255 
0.35739753 -0.7277512 0.28053647 156 3 140 255 
-0.3258882 0.4393564 -0.041698694 63 114 17 255 
-0.0015221958 -0.5660022 0.478861 64 81 228 255 
-0.7023846 0.25542593 0.2604912 1 142 141 255 
0.07818593 0.60870296 -0.2504578 245 101 87 255 
-0.1632709 -0.061515085 0.40394476 102 187 236 255 
-0.28908825 -0.41261932 0.39325064 71 87 234 255 
-0.49638462 -0.29149172 -0.15750226 75 96 15 255 
-0.45604616 -0.07439711 -0.1609583 79 151 11 255 
0.30856463 -0.62506825 0.43359444 172 121 246 255 
0.2786614 -0.73587507 -0.0491149 122 0 124 255 
0.06465258 -0.11594083 -0.2603795 115 242 74 255 
0.35330248 0.021180358 0.3729674 163 188 233 255 
-0.5278371 0.5159024 -0.4314266 7 107 88 255 
0.19448695 -0.72134006 0.45523822 150 55 230 255 
-0.5858424 0.40103433 -0.04547811 2 139 104 255 
-0.36130846 0.33771876 -0.0020791916 158 109 5 255 
-0.22086093 -0.3109793 0.42510232 128 114 254 255 
-0.55104494 0.49510893 -0.3337019 16 75 90 255 
0.61065555 -0.46833134 0.30192688 109 190 236 255 
-0.6947632 0.3860421 0.26137787 40 209 171 255 
-0.5274147 -0.460168 0.09406187 53 24 115 255 
-0.2240156 0.11043273 -0.10357682 156 205 30 255 
-0.09126378 0.12536295 -0.034720454 121 245 80 255 
0.18443292 -0.7157314 -0.13475737 97 47 222 255 
-0.1599414 -0.20962885 0.43265498 108 93 248 255 
-0.34852776 -0.21305229 -0.20366776 124 117 0 255 
-0.0884162 -0.5189871 0.38885006 28 123 208 255 
0.6080841 -0.22454509 0.0904145 254 138 124 255 
0.3362807 -0.037860367 -0.16333397 160 185 18 255 
0.71969414 -0.52555573 0.047732502 238 90 76 255 
-0.40582743 -0.5081955 0.13898437 98 3 129 255 
0.5054628 -0.47104877 0.3735568 220 102 211 255 
-0.5582794 0.5180098 -0.14203668 69 227 181 255 
-0.17026758 -0.57884246 0.3801545 132 180 243 255 
0.5355835 -0.3350255 0.34876323 230 123 202 255 
-0.012647864 -0.049871087 0.42397887 121 166 248 255 
-0.3514649 -0.4911937 0.26300547 34 53 173 255 
0.08412357 0.19527425 0.17238757 105 252 136 255 
0.021312263 -0.32597566 0.55681026 103 103 250 255 
-0.7277193 0.32179996 0.18129866 0 127 119 255 
-0.679567 0.27484944 0.05290423 19 174 78 255 
-0.42024857 -0.6671416 0.23138851 45 202 65 255 
-0.3651431 0.23159869 -0.030048607 200 164 30 255 
-0.49056643 -0.6417744 0.023957677 53 227 97 255 
0.42128798 0.024323 -0.09328469 186 196 38 255 
-0.5206254 0.3018719 -0.07339008 98 50 30 255 
-0.67840207 -0.2669568 0.15591331 0 120 139 255 
-0.26426247 -0.104338475 0.41990963 149 148 251 255 
-0.23444045 -0.62151766 -0.16540378 55 225 90 255 
0.24393713 0.030882865 0.3947722 163 166 243 255 
-0.23761937 -0.6508473 0.4174465 161 168 243 255 
-0.37407637 -0.06331198 0.41150013 132 180 243 255 
-0.46952644 -0.72025174 0.39460212 18 86 178 255 
-0.52010626 0.5713871 -0.24498065 160 242 172 255 
-0.60478985 0.58472806 -0.39273924 7 92 100 255 
-0.43425363 0.1315318 0.42650008 222 144 211 255 
0.25404677 -0.7194293 0.05261238 152 18 188 255 
0.22341642 -0.0996336 -0.20765153 143 199 23 255 
0.5375432 -0.19430128 -0.11307915 221 165 50 255 
-0.72730744 0.06714501 0.3076126 12 72 118 255 
-0.47669658 -0.72918344 0.29409814 36 40 108 255 
-0.36202103 -0.48725858 -0.06504729 41 86 42 255 
0.11800734 -0.6963939 -0.23788433 143 111 2 255 
0.22560667 -0.382156 -0.31659532 161 94 9 255 
-0.3717175 -0.3113537 -0.18299347 122 72 12 255 
