ply
format ascii 1.0
element vertex 322
property float x
property float y
property float z
property uchar red
property uchar green
property uchar blue
property uchar alpha
element camera 162
property float x
property float y
property float z
property uchar red
property uchar green
property uchar blue
property uchar alpha
end_header
0.2628656 0.9510565 0.1624599 152 186 153 255 
0.5257311 0.8506508 0 163 182 137 255 
0.2628656 0.9510565 -0.1624599 151 188 121 255 
0 1 0 138 191 139 255 
0.5 0.809017 0.309017 159 178 160 255 
0.5 0.809017 -0.309017 160 178 106 255 
0 0.9619383 -0.2732666 135 186 108 255 
0.2598919 0.8626685 -0.4338886 149 178 91 255 
0 0.8506508 -0.5257311 133 174 79 255 
0.2598919 0.8626685 0.4338886 149 179 170 255 
0 0.9619383 0.2732666 138 186 163 255 
0 0.8506508 0.5257311 138 177 177 255 
0.7020464 0.6937805 -0.160622 170 175 120 255 
0.7020464 0.6937805 0.160622 168 175 148 255 
0.8506508 0.5257311 0 176 168 133 255 
-0.2628656 0.9510565 -0.1624599 118 188 120 255 
-0.5257311 0.8506508 0 94 173 135 255 
-0.2628656 0.9510565 0.1624599 121 187 154 255 
-0.5 0.809017 -0.309017 91 165 98 255 
-0.5 0.809017 0.309017 100 173 164 255 
-0.2598919 0.8626685 0.4338886 122 177 173 255 
-0.2598919 0.8626685 -0.4338886 113 173 87 255 
-0.7020464 0.6937805 0.160622 82 162 146 255 
-0.7020464 0.6937805 -0.160622 76 156 109 255 
-0.8506508 0.5257311 0 69 149 121 255 
0.2628656 -0.9510565 -0.1624599 140 54 116 255 
0.5257311 -0.8506508 0 152 59 127 255 
0.2628656 -0.9510565 0.1624599 139 55 147 255 
0 -1 0 123 52 129 255 
0.5 -0.809017 -0.309017 151 65 105 255 
0.5 -0.809017 0.309017 148 65 160 255 
0 -0.9619383 0.2732666 123 57 154 255 
0.2598919 -0.8626685 0.4338886 137 65 169 255 
0 -0.8506508 0.5257311 124 67 173 255 
0.2598919 -0.8626685 -0.4338886 139 66 96 255 
0 -0.9619383 -0.2732666 123 59 107 255 
0 -0.8506508 -0.5257311 124 69 90 255 
0.7020464 -0.6937805 0.160622 160 73 142 255 
0.7020464 -0.6937805 -0.160622 163 74 115 255 
0.8506508 -0.5257311 0 172 87 126 255 
-0.2628656 -0.9510565 0.1624599 108 57 143 255 
-0.5257311 -0.8506508 0 94 64 125 255 
-0.2628656 -0.9510565 -0.1624599 108 60 114 255 
-0.5 -0.809017 0.309017 95 67 151 255 
-0.5 -0.809017 -0.309017 98 70 104 255 
-0.2598919 -0.8626685 -0.4338886 110 68 97 255 
-0.2598919 -0.8626685 0.4338886 109 64 163 255 
-0.7020464 -0.6937805 -0.160622 87 75 112 255 
-0.7020464 -0.6937805 0.160622 83 74 137 255 
-0.8506508 -0.5257311 0 75 84 123 255 
0.9510565 -0.1624599 -0.2628656 183 116 104 255 
0.8506508 0 -0.5257311 179 132 79 255 
0.9510565 0.1624599 -0.2628656 186 144 105 255 
1 0 0 189 132 129 255 
0.809017 -0.309017 -0.5 170 103 86 255 
0.809017 0.309017 -0.5 176 152 82 255 
0.9619383 0.2732666 0 185 152 131 255 
0.8626685 0.4338886 -0.2598919 179 161 107 255 
0.8626685 -0.4338886 -0.2598919 173 93 107 255 
0.9619383 -0.2732666 0 181 108 127 255 
0.6937805 0.160622 -0.7020464 166 142 64 255 
0.6937805 -0.160622 -0.7020464 164 117 69 255 
0.5257311 0 -0.8506508 155 130 56 255 
0.9510565 0.1624599 0.2628656 184 147 155 255 
0.8506508 0 0.5257311 175 138 179 255 
0.9510565 -0.1624599 0.2628656 182 122 153 255 
0.809017 0.309017 0.5 170 157 176 255 
0.809017 -0.309017 0.5 169 114 175 255 
0.8626685 -0.4338886 0.2598919 172 98 152 255 
0.8626685 0.4338886 0.2598919 175 163 156 255 
0.6937805 -0.160622 0.7020464 163 126 190 255 
0.6937805 0.160622 0.7020464 163 150 192 255 
0.5257311 0 0.8506508 155 140 198 255 
-0.9510565 -0.1624599 0.2628656 63 112 143 255 
-0.8506508 0 0.5257311 73 129 170 255 
-0.9510565 0.1624599 0.2628656 64 133 145 255 
-1 0 0 58 123 120 255 
-0.809017 -0.309017 0.5 76 102 164 255 
-0.809017 0.309017 0.5 79 145 170 255 
-0.9619383 0.2732666 0 61 136 117 255 
-0.8626685 0.4338886 0.2598919 73 148 149 255 
-0.8626685 -0.4338886 0.2598919 71 91 143 255 
-0.9619383 -0.2732666 0 64 101 122 255 
-0.6937805 0.160622 0.7020464 89 141 185 255 
-0.6937805 -0.160622 0.7020464 86 119 182 255 
-0.5257311 0 0.8506508 101 135 195 255 
-0.9510565 0.1624599 -0.2628656 63 132 96 255 
-0.8506508 0 -0.5257311 71 126 78 255 
-0.9510565 -0.1624599 -0.2628656 63 111 100 255 
-0.809017 0.309017 -0.5 74 139 79 255 
-0.809017 -0.309017 -0.5 78 99 86 255 
-0.8626685 -0.4338886 -0.2598919 75 89 104 255 
-0.8626685 0.4338886 -0.2598919 66 141 95 255 
-0.6937805 -0.160622 -0.7020464 87 112 70 255 
-0.6937805 0.160622 -0.7020464 84 134 67 255 
-0.5257311 0 -0.8506508 97 126 59 255 
-0.1624599 -0.2628656 0.9510565 122 117 200 255 
0 -0.5257311 0.8506508 129 98 194 255 
0.1624599 -0.2628656 0.9510565 138 119 201 255 
0 0 1 132 138 204 255 
-0.309017 -0.5 0.809017 112 96 190 255 
0.309017 -0.5 0.809017 142 102 193 255 
0.2732666 0 0.9619383 144 140 202 255 
0.4338886 -0.2598919 0.8626685 150 120 197 255 
-0.4338886 -0.2598919 0.8626685 106 114 194 255 
-0.2732666 0 0.9619383 117 137 202 255 
0.160622 -0.7020464 0.6937805 133 83 185 255 
-0.160622 -0.7020464 0.6937805 117 81 183 255 
0.1624599 0.2628656 0.9510565 140 152 198 255 
0 0.5257311 0.8506508 133 161 192 255 
-0.1624599 0.2628656 0.9510565 124 150 199 255 
0.309017 0.5 0.809017 147 162 190 255 
-0.309017 0.5 0.809017 117 159 191 255 
-0.4338886 0.2598919 0.8626685 108 148 195 255 
0.4338886 0.2598919 0.8626685 150 153 195 255 
-0.160622 0.7020464 0.6937805 127 168 185 255 
0.160622 0.7020464 0.6937805 143 170 184 255 
-0.1624599 0.2628656 -0.9510565 116 140 50 255 
0 0.5257311 -0.8506508 126 155 55 255 
0.1624599 0.2628656 -0.9510565 134 142 49 255 
0 0 -1 124 128 48 255 
-0.309017 0.5 -0.809017 107 150 58 255 
0.309017 0.5 -0.809017 145 157 58 255 
0.2732666 0 -0.9619383 140 129 50 255 
0.4338886 0.2598919 -0.8626685 150 144 54 255 
-0.4338886 0.2598919 -0.8626685 101 140 57 255 
-0.2732666 0 -0.9619383 111 127 52 255 
0.160622 0.7020464 -0.6937805 140 166 66 255 
-0.160622 0.7020464 -0.6937805 118 161 63 255 
0.1624599 -0.2628656 -0.9510565 132 110 58 255 
0 -0.5257311 -0.8506508 124 93 69 255 
-0.1624599 -0.2628656 -0.9510565 116 110 58 255 
0.309017 -0.5 -0.809017 139 93 70 255 
-0.309017 -0.5 -0.809017 110 94 71 255 
-0.4338886 -0.2598919 -0.8626685 104 109 64 255 
0.4338886 -0.2598919 -0.8626685 147 110 62 255 
-0.160622 -0.7020464 -0.6937805 116 81 81 255 
0.160622 -0.7020464 -0.6937805 133 80 79 255 
0.5877853 0.4253254 0.6881909 158 162 186 255 
0.6881909 0.5877853 0.4253254 165 169 169 255 
0.4253254 0.6881909 0.5877853 154 171 179 255 
-0.6881909 0.5877853 0.4253254 88 159 168 255 
-0.5877853 0.4253254 0.6881909 97 154 185 255 
-0.4253254 0.6881909 0.5877853 108 167 180 255 
0.6881909 0.5877853 -0.4253254 169 167 93 255 
0.5877853 0.4253254 -0.6881909 160 155 66 255 
0.4253254 0.6881909 -0.5877853 153 168 75 255 
-0.5877853 0.4253254 -0.6881909 90 144 66 255 
-0.6881909 0.5877853 -0.4253254 78 147 83 255 
-0.4253254 0.6881909 -0.5877853 97 155 69 255 
0.6881909 -0.5877853 0.4253254 159 87 169 255 
0.5877853 -0.4253254 0.6881909 155 107 188 255 
0.4253254 -0.6881909 0.5877853 144 82 180 255 
-0.5877853 -0.4253254 0.6881909 93 96 179 255 
-0.6881909 -0.5877853 0.4253254 84 81 157 255 
-0.4253254 -0.6881909 0.5877853 101 76 172 255 
0.5877853 -0.4253254 -0.6881909 155 96 75 255 
0.6881909 -0.5877853 -0.4253254 162 81 95 255 
0.4253254 -0.6881909 -0.5877853 147 78 85 255 
-0.6881909 -0.5877853 -0.4253254 89 82 97 255 
-0.5877853 -0.4253254 -0.6881909 95 95 78 255 
-0.4253254 -0.6881909 -0.5877853 103 80 88 255 
-0.39116964 -0.18498074 -0.13711248 62 38 63 255 
-0.004331276 -0.33716446 -0.2906808 23 109 55 255 
0.10687385 -0.23671107 0.39461198 91 108 248 255 
0.2617478 0.04758967 0.366852 147 227 203 255 
0.08086785 -0.23082998 -0.39936677 109 95 5 255 
-0.23781912 -0.39090008 -0.12362221 53 172 33 255 
-0.48974818 0.011274561 0.1962444 29 130 209 255 
-0.35388908 0.5500776 0.051831655 129 254 121 255 
0.16434866 -0.502351 0.34049922 138 6 166 255 
-0.060544856 -0.18008837 -0.2531119 13 95 80 255 
0.41121817 -0.36038202 -0.28849134 181 64 30 255 
-0.4682613 0.40143672 0.33925405 72 198 217 255 
-0.16796297 -0.5145413 -0.07997084 131 0 125 255 
0.029949063 0.19381566 -0.2075368 116 213 34 255 
0.28097224 -0.21566774 0.4114634 150 122 252 255 
-0.5671909 0.2815703 0.007372044 8 135 82 255 
-0.3105024 0.17299667 -0.19040455 78 183 23 255 
0.33594874 0.1968695 -0.21455923 162 187 20 255 
0.15239556 -0.4732958 0.06307686 128 0 128 255 
-0.53920174 0.39690325 0.25497803 10 161 164 255 
-0.3549509 -0.0435484 0.3059609 70 128 241 255 
-0.4428666 -0.18969823 0.11304569 36 43 157 255 
-0.48050338 -0.1038509 -0.09308569 20 76 79 255 
-0.25640818 -0.3863908 0.24584061 88 248 138 255 
-0.21518293 0.61768144 -0.057006508 50 226 150 255 
-0.05314452 -0.5145298 -0.3304239 117 12 74 255 
0.69372857 -0.40216473 0.01839509 211 31 117 255 
0.1948075 -0.3046881 0.3968695 117 92 249 255 
-0.0917374 0.2727702 0.13903475 133 239 188 255 
-0.038995616 -0.417799 -0.31615415 110 203 26 255 
0.6208076 -0.20043917 -0.06396758 233 141 57 255 
0.13843538 -0.47383752 -0.20813604 117 23 200 255 
0.11342823 0.23280299 0.24275197 94 208 220 255 
-0.17062159 -0.33239344 0.25435764 47 135 226 255 
0.43335104 -0.22369072 -0.300673 204 111 27 255 
0.10600356 -0.5018073 -0.29871294 151 59 22 255 
0.46953443 -0.36065495 0.26447627 188 85 231 255 
-0.318133 -0.23268047 0.20432101 86 26 193 255 
0.18064679 0.07286421 0.31286824 124 218 216 255 
0.3825229 0.29817393 0.12702762 178 239 161 255 
0.15369406 -0.06434309 -0.4033218 145 151 3 255 
0.5421061 -0.4480624 -0.09659234 156 45 34 255 
0.1217402 0.14942357 -0.24736062 116 196 20 255 
0.21077125 0.11247093 -0.2673244 147 154 4 255 
0.60613 -0.45918283 0.0054016956 185 14 118 255 
-0.3912739 0.49370134 -0.41334182 61 25 89 255 
0.69252306 -0.39231533 0.11199549 207 39 173 255 
0.40270862 -0.11999707 -0.31324 183 134 12 255 
0.050654616 0.57383835 -0.11296797 204 67 209 255 
-0.36629987 -0.49847212 0.03242114 33 90 204 255 
0.6693933 -0.27121833 -0.10230451 151 184 16 255 
-0.10577293 -0.4909015 0.021541705 76 36 201 255 
0.41654763 -0.494282 0.0041223057 76 16 163 255 
-0.32128742 0.043517675 0.29760605 99 160 247 255 
0.52195185 -0.07860953 0.2895401 208 124 225 255 
0.2201885 -0.39105055 -0.3322227 142 61 19 255 
0.4239274 0.2463467 0.19607377 183 217 199 255 
0.63412875 -0.3882737 -0.105836876 184 58 37 255 
-0.41107562 -0.17717111 0.20086285 49 49 190 255 
-0.36505857 -0.51356477 -0.073917575 103 2 123 255 
0.3842185 -0.17170481 0.37806776 181 97 239 255 
0.13000986 0.25510156 -0.15657921 98 224 50 255 
0.4579079 -0.19356176 0.31476134 209 101 221 255 
0.52207774 0.12886691 0.20508616 217 179 201 255 
-0.24381955 -0.15761629 0.2921709 120 65 238 255 
-0.48561856 0.0040136757 -0.12594138 25 136 51 255 
-0.31915322 0.1524131 0.25429177 140 144 253 255 
0.62734884 -0.18939222 0.12354547 230 170 189 255 
-0.039464597 -0.4972774 -0.23904605 151 33 210 255 
-0.22730476 -0.51471436 0.04931805 135 0 124 255 
0.3538179 0.32009026 -0.011969228 170 246 113 255 
-0.43908888 0.73282325 -0.50852066 10 146 80 255 
0.58495325 -0.17543282 -0.15289558 232 128 55 255 
0.72509986 -0.21867463 0.13604426 208 184 208 255 
-0.41887465 0.49136072 0.26815942 110 230 201 255 
-0.31013605 0.61811143 -0.5882518 169 63 25 255 
0.619029 -0.06624983 -0.090593636 249 124 91 255 
-0.073034 0.17044066 0.23236 125 199 232 255 
0.07721421 -0.46487144 0.2701309 130 0 137 255 
-0.5666442 0.1904569 0.07564593 22 55 133 255 
0.42592752 -0.43417656 -0.19849123 229 60 90 255 
-0.2308338 -0.06501102 0.3216469 118 123 254 255 
0.49688905 -0.056869075 -0.24950628 195 140 20 255 
0.11549459 -0.3559002 -0.3523315 113 70 14 255 
0.018642535 0.16751888 0.2541219 94 200 226 255 
0.5258246 -0.48984906 0.0691263 164 7 148 255 
0.05415301 -0.472876 0.16991964 129 0 135 255 
0.046521395 -0.47404847 -0.033017255 130 0 124 255 
-0.314744 0.5180433 -0.35214254 235 65 99 255 
0.0257903 -0.21653073 0.3203081 22 92 191 255 
-0.034155898 -0.13734706 -0.3573098 24 110 54 255 
-0.43099195 0.54098296 -0.0029694391 97 250 111 255 
-0.013454603 0.2274677 0.18746711 101 226 203 255 
0.5939638 0.057922926 0.13870652 242 168 163 255 
-0.2509165 -0.494454 0.33071396 119 53 230 255 
0.61539346 -0.38249722 0.20011029 171 68 231 255 
0.2352557 0.2634872 0.22970365 131 217 218 255 
0.15793197 0.022332797 0.40082487 116 208 224 255 
0.21871144 0.20077388 -0.22136843 108 205 28 255 
-0.2954286 -0.420824 0.03572084 77 227 189 255 
0.29765317 0.29877865 -0.11744228 141 236 63 255 
0.2067692 -0.14872979 0.4379109 130 130 254 255 
0.23230726 -0.49840558 -0.00043176056 54 24 111 255 
0.3253944 -0.29250103 0.3837825 177 104 242 255 
-0.47419086 -0.16819157 0.024771806 21 57 131 255 
0.023174705 0.026383057 0.31384557 76 172 235 255 
0.59222054 0.04049935 -0.10674129 237 166 76 255 
0.2511032 -0.07069348 -0.374877 173 145 9 255 
-0.45246437 0.11615034 0.20625512 29 136 208 255 
0.22948201 -0.39649042 0.35469973 118 33 212 255 
0.33687574 -0.04186684 -0.34031278 179 147 12 255 
0.025546351 0.79042536 -0.1725014 111 235 192 255 
-0.45778692 0.37565765 -0.10824031 52 149 26 255 
-0.5361628 0.03655662 0.11093355 5 142 160 255 
-0.40891004 0.05745188 0.26087657 57 158 229 255 
-0.2327026 0.49510357 0.14557749 246 154 164 255 
-0.05741909 -0.50812197 0.24850826 125 0 131 255 
-0.3949396 0.53661823 0.18486646 117 249 163 255 
0.059269696 -0.13670127 -0.4114168 116 122 0 255 
-0.15035973 -0.16904639 -0.22749346 104 91 7 255 
-0.054842066 0.66927236 -0.20642127 64 140 17 255 
0.4073437 0.032051444 -0.27016404 163 165 11 255 
0.44350088 0.27678066 0.06261873 198 233 132 255 
-0.39574808 0.042857807 -0.1976075 71 158 17 255 
-0.1806767 0.25473928 0.17830122 224 147 208 255 
-0.21546488 -0.5070258 0.22870904 129 0 130 255 
-0.35746732 0.7086663 -0.46633855 198 221 176 255 
-0.18081492 0.16331303 -0.22408508 134 183 12 255 
-0.34461987 0.52786857 -0.4987554 182 25 74 255 
-0.16437109 0.14093456 0.26449424 129 199 232 255 
0.4407369 -0.46104664 0.25054696 220 52 173 255 
0.57233596 -0.28661555 -0.12802319 234 90 68 255 
0.42779875 -0.48699957 -0.09037539 189 28 76 255 
0.36626506 -0.2867892 -0.3210745 166 117 6 255 
-0.562761 0.30098453 0.24455132 5 162 134 255 
0.010751057 -0.034231756 -0.37699467 61 190 38 255 
-0.32162791 -0.023088595 -0.23601714 95 136 4 255 
0.26008484 -0.50558376 0.0915657 89 8 153 255 
-0.020685615 0.0029269839 -0.2888083 73 178 24 255 
-0.38075003 0.20231426 -0.14132553 83 130 7 255 
0.59176284 -0.02058197 0.18747103 238 145 187 255 
-0.21238045 0.39212492 0.13337582 233 185 167 255 
-0.5663988 0.22014199 0.2857591 13 89 170 255 
0.60751945 0.07044284 0.0101206545 246 174 129 255 
-0.2359134 0.18842131 0.23052317 163 163 244 255 
0.28842536 -0.081870995 0.41835305 162 117 249 255 
-0.52438647 0.11390103 0.046354752 6 167 125 255 
0.22471197 -0.2896338 -0.36203977 155 93 7 255 
0.20851375 0.31593654 -0.081486456 116 247 85 255 
0.49709207 0.066525415 0.27014664 202 188 210 255 
0.286338 0.3351787 0.07396368 135 254 140 255 
-0.12559637 0.6486046 -0.04373379 141 186 239 255 
-0.31507766 0.62729716 -0.35799295 238 187 142 255 
-0.32664046 -0.2702526 -0.07024143 86 11 92 255 
-0.513514 0.29996455 0.34972203 35 136 215 255 
0.18351035 -0.20255236 -0.38439012 156 105 5 255 
-0.30692002 -0.45771438 -0.13652673 80 181 21 255 
0.227824 0.020289905 -0.35070547 151 215 38 255 
-0.49221608 0.25572276 -0.104608126 61 105 20 255 
0.006726357 -0.13204479 0.3479168 23 81 185 255 
-0.47066325 -0.10274812 0.19934942 30 77 193 255 
-0.21951978 0.24992527 -0.16601409 101 213 36 255 
0.027741099 0.5978684 -0.19821286 131 37 37 255 
-0.46412694 0.18027458 0.33303657 90 58 228 255 
-0.505547 0.1558961 0.14098206 33 49 165 255 
0.11188098 0.30276904 -0.06083643 99 247 92 255 
0.21634962 0.1616241 0.29648778 129 171 247 255 
-0.30510178 0.5546301 -0.22717486 248 159 149 255 
-0.5837482 0.28952247 0.12068504 2 147 140 255 
0.50157684 -0.14858921 -0.2527204 214 125 34 255 
-0.12900025 -0.51399326 0.16185346 123 0 131 255 
-0.04997905 0.5791172 -0.053119503 155 207 222 255 
0.44444317 -0.07243272 0.34736195 195 144 234 255 
0.48807275 0.23843889 -0.019101975 209 223 112 255 
0.5234769 -0.3632364 -0.13508652 186 72 28 255 
0.11116831 -0.47072947 -0.10958547 131 0 124 255 
-0.3348889 0.7282906 -0.59786475 70 136 13 255 
-0.37109143 0.36140943 0.34712657 206 163 220 255 
-0.27415738 0.46517774 0.22152948 228 126 205 255 
-0.5231712 -0.006252643 -0.035659965 6 129 86 255 
-0.34570915 -0.2663666 0.11525844 78 18 171 255 
0.031171462 0.28951988 0.07213938 90 247 150 255 
-0.13799353 0.31671762 0.008337451 179 244 123 255 
-0.048291065 -0.27423716 -0.2064562 17 87 77 255 
-0.27416408 -0.5157836 -0.07408317 127 0 126 255 
-0.10582436 0.055211365 -0.26257804 116 157 3 255 
-0.09573483 -0.47185397 -0.13569216 177 12 149 255 
0.08097054 -0.49122012 0.38150516 157 58 230 255 
0.2805963 -0.4632659 0.21685882 107 1 131 255 
-0.050634816 -0.35752854 -0.16680112 53 177 36 255 
0.72416574 -0.21771914 -0.049155876 196 188 39 255 
-0.1451618 0.47700825 -0.09082186 159 20 66 255 
-0.3833274 0.47411948 -0.3119103 92 7 103 255 
-0.024287561 -0.40005928 0.3426236 62 217 190 255 
0.0040561953 -0.47859585 0.06424661 237 62 119 255 
0.14058164 0.29614967 0.16737416 94 237 182 255 
-0.4189803 0.29514185 -0.14191458 88 129 6 255 
0.1918833 -0.46450135 0.24666728 130 0 136 255 
0.072646245 0.81724787 -0.24812107 80 241 96 255 
-0.3344703 -0.15985319 0.26809072 83 62 227 255 
0.35153094 0.0021200534 0.37495008 175 186 229 255 
-0.41595244 0.52041346 -0.24072534 5 163 118 255 
-0.5253088 0.5020375 0.016003639 38 196 67 255 
-0.14959328 -0.5140336 -0.26259282 78 11 105 255 
-0.4337769 -0.085956946 -0.1716836 36 92 45 255 
-0.20732638 0.068773896 -0.26002994 113 157 4 255 
-0.10836108 0.70397735 -0.13801447 49 223 96 255 
-0.13654713 0.55989856 -0.027009167 174 196 223 255 
0.5332097 0.16596982 -0.09166747 224 200 88 255 
0.20796311 -0.46813905 -0.09634803 127 0 122 255 
0.028587926 -0.47127056 -0.16857886 129 0 126 255 
0.4252746 -0.27761355 0.33858752 197 121 233 255 
0.32316828 -0.37854558 -0.31329736 151 69 16 255 
-0.21421771 -0.47965786 -0.17440137 96 157 7 255 
0.5122148 -0.24476361 -0.23269737 209 113 31 255 
0.067123465 -0.006132244 0.39539203 74 193 222 255 
-0.21531142 -0.38453862 0.11586825 18 169 76 255 
0.484533 0.044425968 -0.22421739 198 168 29 255 
-0.47305447 0.53779715 0.098929375 93 250 134 255 
-0.10202919 -0.06600266 -0.26262045 90 93 10 255 
0.09758282 0.714323 -0.23426774 198 165 226 255 
0.621169 -0.095418505 0.14111456 247 131 169 255 
-0.056415632 -0.49075884 0.35429192 50 69 211 255 
-0.34825587 0.55833113 -0.12609403 208 215 171 255 
-0.15604506 -0.2615584 -0.18853672 113 87 7 255 
0.39485392 0.24869677 -0.13892809 178 224 61 255 
0.6472049 -0.16627327 0.035791032 209 225 123 255 
-0.27068064 0.3464774 0.24854806 184 192 221 255 
0.5338552 0.10599581 -0.16103466 212 183 50 255 
-0.017374456 0.28438962 -0.004766633 131 254 115 255 
0.11796839 0.6095824 -0.17645667 234 109 194 255 
0.7273502 -0.31154144 0.138847 229 95 196 255 
-0.29049313 0.54603946 -0.034543734 56 229 100 255 
-0.039397698 0.6393379 -0.12200025 195 163 229 255 
-0.22043838 0.52363575 0.040112004 198 207 197 255 
-0.532739 0.18061341 -0.02161254 33 61 72 255 
-0.45823252 0.09284743 -0.1297807 40 163 41 255 
0.5728028 -0.45000908 0.14479522 172 21 181 255 
-0.18580964 0.38852638 0.042871393 246 172 134 255 
-0.3203563 0.30332065 -0.1464783 144 138 1 255 
0.02882111 0.078468844 -0.27929094 122 152 2 255 
-0.13702342 0.6027034 -0.16201285 60 127 19 255 
-0.0382468 0.536699 -0.13892643 159 17 71 255 
-0.31145924 0.47017688 -0.1860013 246 85 106 255 
-0.089969754 0.16227482 -0.23069827 124 189 15 255 
-0.40688178 0.24401647 0.39170098 109 115 253 255 
0.5579762 0.15477015 0.09123174 234 195 141 255 
0.76259923 -0.23477633 0.04921231 253 144 130 255 
-0.08693556 0.2981817 -0.06911877 162 247 101 255 
-0.26083046 -0.33366483 -0.051874775 0 138 119 255 
0.41151947 0.06594077 0.3253658 172 181 233 255 
0.35618746 -0.503466 -0.233909 174 17 84 255 
-0.0709891 -0.21085632 0.2873207 163 112 249 255 
-0.26737484 -0.20235792 -0.19745076 110 40 35 255 
-0.35148954 0.18601994 0.34513554 199 39 185 255 
0.00440519 -0.24105427 -0.34730452 37 88 46 255 
0.4094524 -0.5009231 0.17122582 156 3 140 255 
-0.20238683 0.544148 -0.11731543 63 114 17 255 
0.08806245 -0.35608706 0.34881294 64 81 228 255 
-0.53951555 0.37944996 0.15327652 1 142 141 255 
0.15943605 0.6957872 -0.30424607 245 101 87 255 
-0.056773316 0.09564929 0.28173015 102 187 236 255 
-0.1694348 -0.2187424 0.2721542 71 87 234 255 
-0.35505563 -0.11028026 -0.22101022 75 96 15 255 
-0.31893507 0.084114246 -0.22410488 79 151 11 255 
0.36572564 -0.40897697 0.30827954 172 121 246 255 
0.33894917 -0.5081975 -0.12395618 122 0 124 255 
0.1473178 0.04691447 -0.3131303 115 242 74 255 
0.40578556 0.16969785 0.25399187 163 188 233 255 
-0.38321933 0.6126902 -0.4662922 7 107 88 255 
0.26357627 -0.49518234 0.32766017 150 55 230 255 
-0.4351594 0.5098331 -0.12069966 2 139 104 255 
-0.23410344 0.453138 -0.08183867 158 109 5 255 
-0.10834153 -0.12773016 0.3006754 128 114 254 255 
-0.4040005 0.5940709 -0.37878588 16 75 90 255 
0.636229 -0.26862895 0.19037957 109 190 236 255 
-0.5326911 0.4964085 0.15407051 40 209 171 255 
-0.38284105 -0.26131925 0.004249582 53 24 115 255 
-0.111166336 0.2496177 -0.17272338 156 205 30 255 
0.00770454 0.26298678 -0.11106686 121 245 80 255 
0.25457352 -0.49016008 -0.20064358 97 47 222 255 
-0.053791944 -0.036977243 0.3074383 108 93 248 255 
-0.22265911 -0.04004271 -0.2623485 124 117 0 255 
0.0102543635 -0.31398806 0.2682138 28 123 208 255 
0.6339264 -0.0503338 0.0009835962 254 138 124 255 
0.39054364 0.116830595 -0.22623214 160 185 18 255 
0.73386616 -0.3198698 -0.037235443 238 90 76 255 
-0.27396736 -0.30432484 0.044474848 98 3 129 255 
0.5420355 -0.27106228 0.25451964 220 102 211 255 
-0.4104785 0.61457723 -0.20716175 69 227 181 255 
-0.06303839 -0.36758474 0.26042747 132 180 243 255 
0.5690067 -0.14926203 0.23231857 230 123 202 255 
0.07810012 0.106075756 0.2996694 121 166 248 255 
-0.22528915 -0.2891008 0.15552792 34 53 173 255 
0.16475283 0.32558793 0.0743853 105 252 136 255 
0.10850927 -0.14115848 0.41861153 103 103 250 255 
-0.5622012 0.43888372 0.08236461 0 127 119 255 
-0.51908386 0.39684248 -0.03260449 19 174 78 255 
-0.28688058 -0.44665098 0.12721692 45 202 65 255 
-0.2375371 0.35811415 -0.10688351 200 164 30 255 
-0.3498458 -0.42393628 -0.058524296 53 227 97 255 
0.46666226 0.17251188 -0.16350745 186 196 38 255 
-0.37676173 0.4210394 -0.14569308 98 50 30 255 
-0.5180407 -0.08831079 0.05963364 0 120 139 255 
-0.14720488 0.05730365 0.29602566 149 148 251 255 
-0.12050114 -0.4057977 -0.22808553 55 225 90 255 
0.30785578 0.17838581 0.27351668 163 166 243 255 
-0.12334766 -0.43206048 0.2938201 161 168 243 255 
-0.2455363 0.09404028 0.2884955 132 180 243 255 
-0.3310058 -0.49420783 0.27336442 18 86 178 255 
-0.37629685 0.66237324 -0.2993416 160 242 172 255 
-0.45212564 0.6743192 -0.43165007 7 92 100 255 
-0.29942125 0.26851058 0.30192703 222 144 211 255 
0.3169083 -0.49347138 -0.032865822 152 18 188 255 
0.2894808 0.061516568 -0.26591572 143 199 23 255 
0.5707615 -0.023252362 -0.18123212 221 165 50 255 
-0.56183237 0.21085629 0.19547075 12 72 118 255 
-0.3374262 -0.5022056 0.18336943 36 40 108 255 
-0.23474148 -0.28557712 -0.13822262 41 86 42 255 
0.19509362 -0.47284466 -0.2929873 143 111 2 255 
0.291442 -0.1914644 -0.363468 161 94 9 255 
-0.24342407 -0.12806544 -0.24383599 122 72 12 255 
