ply
format ascii 1.0
element vertex 162
property float x
property float y
property float z
property uchar red
property uchar green
property uchar blue
property uchar alpha
end_header
0.2628656 0.9510565 0.1624599 151 182 152 255 
0.5257311 0.8506508 0 161 179 137 255 
0.2628656 0.9510565 -0.1624599 150 184 121 255 
0 1 0 138 187 138 255 
0.5 0.809017 0.309017 158 175 159 255 
0.5 0.809017 -0.309017 159 176 106 255 
0 0.9619383 -0.2732666 136 183 109 255 
0.2598919 0.8626685 -0.4338886 148 176 92 255 
0 0.8506508 -0.5257311 133 172 81 255 
0.2598919 0.8626685 0.4338886 148 176 168 255 
0 0.9619383 0.2732666 139 182 162 255 
0 0.8506508 0.5257311 137 174 174 255 
0.7020464 0.6937805 -0.160622 168 173 121 255 
0.7020464 0.6937805 0.160622 166 173 147 255 
0.8506508 0.5257311 0 173 166 133 255 
-0.2628656 0.9510565 -0.1624599 119 185 119 255 
-0.5257311 0.8506508 0 96 171 134 255 
-0.2628656 0.9510565 0.1624599 122 183 153 255 
-0.5 0.809017 -0.309017 93 163 98 255 
-0.5 0.809017 0.309017 101 170 163 255 
-0.2598919 0.8626685 0.4338886 123 174 172 255 
-0.2598919 0.8626685 -0.4338886 114 172 87 255 
-0.7020464 0.6937805 0.160622 85 160 145 255 
-0.7020464 0.6937805 -0.160622 78 155 109 255 
-0.8506508 0.5257311 0 72 148 120 255 
0.2628656 -0.9510565 -0.1624599 139 60 117 255 
0.5257311 -0.8506508 0 151 63 128 255 
0.2628656 -0.9510565 0.1624599 138 61 146 255 
0 -1 0 122 58 129 255 
0.5 -0.809017 -0.309017 150 69 107 255 
0.5 -0.809017 0.309017 147 69 158 255 
0 -0.9619383 0.2732666 123 63 152 255 
0.2598919 -0.8626685 0.4338886 136 69 166 255 
0 -0.8506508 0.5257311 124 70 171 255 
0.2598919 -0.8626685 -0.4338886 138 70 98 255 
0 -0.9619383 -0.2732666 123 64 109 255 
0 -0.8506508 -0.5257311 124 72 92 255 
0.7020464 -0.6937805 0.160622 158 75 141 255 
0.7020464 -0.6937805 -0.160622 161 76 116 255 
0.8506508 -0.5257311 0 169 88 126 255 
-0.2628656 -0.9510565 0.1624599 109 61 142 255 
-0.5257311 -0.8506508 0 96 67 126 255 
-0.2628656 -0.9510565 -0.1624599 110 64 115 255 
-0.5 -0.809017 0.309017 97 69 150 255 
-0.5 -0.809017 -0.309017 100 72 105 255 
-0.2598919 -0.8626685 -0.4338886 111 71 99 255 
-0.2598919 -0.8626685 0.4338886 110 67 161 255 
-0.7020464 -0.6937805 -0.160622 88 77 113 255 
-0.7020464 -0.6937805 0.160622 85 76 137 255 
-0.8506508 -0.5257311 0 77 86 123 255 
0.9510565 -0.1624599 -0.2628656 180 117 105 255 
0.8506508 0 -0.5257311 176 133 80 255 
0.9510565 0.1624599 -0.2628656 183 144 106 255 
1 0 0 186 133 129 255 
0.809017 -0.309017 -0.5 168 104 87 255 
0.809017 0.309017 -0.5 174 151 84 255 
0.9619383 0.2732666 0 182 151 131 255 
0.8626685 0.4338886 -0.2598919 176 160 108 255 
0.8626685 -0.4338886 -0.2598919 171 94 108 255 
0.9619383 -0.2732666 0 178 108 127 255 
0.6937805 0.160622 -0.7020464 164 141 66 255 
0.6937805 -0.160622 -0.7020464 163 118 71 255 
0.5257311 0 -0.8506508 154 130 58 255 
0.9510565 0.1624599 0.2628656 181 147 154 255 
0.8506508 0 0.5257311 172 138 176 255 
0.9510565 -0.1624599 0.2628656 180 122 152 255 
0.809017 0.309017 0.5 167 156 173 255 
0.809017 -0.309017 0.5 167 114 174 255 
0.8626685 -0.4338886 0.2598919 170 99 152 255 
0.8626685 0.4338886 0.2598919 171 162 155 255 
0.6937805 -0.160622 0.7020464 161 127 187 255 
0.6937805 0.160622 0.7020464 161 150 188 255 
0.5257311 0 0.8506508 153 140 194 255 
-0.9510565 -0.1624599 0.2628656 66 112 142 255 
-0.8506508 0 0.5257311 74 129 169 255 
-0.9510565 0.1624599 0.2628656 66 132 144 255 
-1 0 0 61 124 119 255 
-0.809017 -0.309017 0.5 78 103 163 255 
-0.809017 0.309017 0.5 81 145 169 255 
-0.9619383 0.2732666 0 64 135 117 255 
-0.8626685 0.4338886 0.2598919 75 147 149 255 
-0.8626685 -0.4338886 0.2598919 73 92 142 255 
-0.9619383 -0.2732666 0 66 103 122 255 
-0.6937805 0.160622 0.7020464 90 141 183 255 
-0.6937805 -0.160622 0.7020464 88 119 181 255 
-0.5257311 0 0.8506508 102 135 193 255 
-0.9510565 0.1624599 -0.2628656 66 133 96 255 
-0.8506508 0 -0.5257311 73 127 79 255 
-0.9510565 -0.1624599 -0.2628656 66 113 101 255 
-0.809017 0.309017 -0.5 77 139 80 255 
-0.809017 -0.309017 -0.5 80 101 87 255 
-0.8626685 -0.4338886 -0.2598919 77 91 105 255 
-0.8626685 0.4338886 -0.2598919 69 141 96 255 
-0.6937805 -0.160622 -0.7020464 88 114 72 255 
-0.6937805 0.160622 -0.7020464 86 135 69 255 
-0.5257311 0 -0.8506508 98 127 62 255 
-0.1624599 -0.2628656 0.9510565 122 117 197 255 
0 -0.5257311 0.8506508 129 99 191 255 
0.1624599 -0.2628656 0.9510565 138 119 197 255 
0 0 1 131 138 200 255 
-0.309017 -0.5 0.809017 113 97 188 255 
0.309017 -0.5 0.809017 141 103 190 255 
0.2732666 0 0.9619383 143 140 199 255 
0.4338886 -0.2598919 0.8626685 148 120 193 255 
-0.4338886 -0.2598919 0.8626685 106 115 192 255 
-0.2732666 0 0.9619383 117 137 199 255 
0.160622 -0.7020464 0.6937805 133 86 183 255 
-0.160622 -0.7020464 0.6937805 118 83 181 255 
0.1624599 0.2628656 0.9510565 139 151 194 255 
0 0.5257311 0.8506508 133 159 189 255 
-0.1624599 0.2628656 0.9510565 125 149 196 255 
0.309017 0.5 0.809017 145 160 186 255 
-0.309017 0.5 0.809017 118 157 189 255 
-0.4338886 0.2598919 0.8626685 110 148 192 255 
0.4338886 0.2598919 0.8626685 148 152 190 255 
-0.160622 0.7020464 0.6937805 128 165 183 255 
0.160622 0.7020464 0.6937805 142 167 180 255 
-0.1624599 0.2628656 -0.9510565 116 140 53 255 
0 0.5257311 -0.8506508 126 154 58 255 
0.1624599 0.2628656 -0.9510565 133 141 52 255 
0 0 -1 124 129 51 255 
-0.309017 0.5 -0.809017 107 149 61 255 
0.309017 0.5 -0.809017 144 156 60 255 
0.2732666 0 -0.9619383 139 129 52 255 
0.4338886 0.2598919 -0.8626685 149 143 57 255 
-0.4338886 0.2598919 -0.8626685 102 140 59 255 
-0.2732666 0 -0.9619383 111 128 54 255 
0.160622 0.7020464 -0.6937805 140 165 68 255 
-0.160622 0.7020464 -0.6937805 119 160 65 255 
0.1624599 -0.2628656 -0.9510565 131 111 60 255 
0 -0.5257311 -0.8506508 123 95 71 255 
-0.1624599 -0.2628656 -0.9510565 116 111 61 255 
0.309017 -0.5 -0.809017 138 95 72 255 
-0.309017 -0.5 -0.809017 109 96 73 255 
-0.4338886 -0.2598919 -0.8626685 104 110 66 255 
0.4338886 -0.2598919 -0.8626685 146 111 64 255 
-0.160622 -0.7020464 -0.6937805 116 83 82 255 
0.160622 -0.7020464 -0.6937805 132 82 82 255 
0.5877853 0.4253254 0.6881909 155 160 182 255 
0.6881909 0.5877853 0.4253254 162 167 167 255 
0.4253254 0.6881909 0.5877853 152 168 176 255 
-0.6881909 0.5877853 0.4253254 89 158 167 255 
-0.5877853 0.4253254 0.6881909 99 154 183 255 
-0.4253254 0.6881909 0.5877853 109 165 178 255 
0.6881909 0.5877853 -0.4253254 167 166 94 255 
0.5877853 0.4253254 -0.6881909 159 154 68 255 
0.4253254 0.6881909 -0.5877853 153 167 76 255 
-0.5877853 0.4253254 -0.6881909 91 143 68 255 
-0.6881909 0.5877853 -0.4253254 80 146 84 255 
-0.4253254 0.6881909 -0.5877853 98 154 70 255 
0.6881909 -0.5877853 0.4253254 158 88 168 255 
0.5877853 -0.4253254 0.6881909 154 108 186 255 
0.4253254 -0.6881909 0.5877853 143 84 178 255 
-0.5877853 -0.4253254 0.6881909 94 97 177 255 
-0.6881909 -0.5877853 0.4253254 86 82 156 255 
-0.4253254 -0.6881909 0.5877853 102 78 170 255 
0.5877853 -0.4253254 -0.6881909 153 97 77 255 
0.6881909 -0.5877853 -0.4253254 161 82 97 255 
0.4253254 -0.6881909 -0.5877853 145 80 87 255 
-0.6881909 -0.5877853 -0.4253254 90 84 97 255 
-0.5877853 -0.4253254 -0.6881909 96 97 80 255 
-0.4253254 -0.6881909 -0.5877853 104 82 89 255 
