<?xml version="1.0" encoding="utf-8" standalone="no"?>
<!DOCTYPE svg PUBLIC "-//W3C//DTD SVG 1.1//EN"
  "http://www.w3.org/Graphics/SVG/1.1/DTD/svg11.dtd">
<svg xmlns:xlink="http://www.w3.org/1999/xlink" width="360pt" height="360pt" viewBox="0 0 360 360" xmlns="http://www.w3.org/2000/svg" version="1.1">
 <metadata>
  <rdf:RDF xmlns:dc="http://purl.org/dc/elements/1.1/" xmlns:cc="http://creativecommons.org/ns#" xmlns:rdf="http://www.w3.org/1999/02/22-rdf-syntax-ns#">
   <cc:Work>
    <dc:type rdf:resource="http://purl.org/dc/dcmitype/StillImage"/>
    <dc:date>2022-09-08T17:04:01.239815</dc:date>
    <dc:format>image/svg+xml</dc:format>
    <dc:creator>
     <cc:Agent>
      <dc:title>Matplotlib v3.5.2, https://matplotlib.org/</dc:title>
     </cc:Agent>
    </dc:creator>
   </cc:Work>
  </rdf:RDF>
 </metadata>
 <defs>
  <style type="text/css">*{stroke-linejoin: round; stroke-linecap: butt}</style>
 </defs>
 <g id="figure_1">
  <g id="patch_1">
   <path d="M 0 360 
L 360 360 
L 360 0 
L 0 0 
z
" style="fill: #ffffff"/>
  </g>
  <g id="axes_1">
   <g id="patch_2">
    <path d="M 58.22416 310.54 
L 347.04 310.54 
L 347.04 12.96 
L 58.22416 12.96 
z
" style="fill: #eaeaf2"/>
   </g>
   <g id="matplotlib.axis_1">
    <g id="xtick_1">
     <g id="text_1">
      <!-- 0 -->
      <g style="fill: #262626" transform="translate(67.852778 328.398281)scale(0.11 -0.11)">
       <defs>
        <path id="DejaVuSans-30" d="M 2034 4250 
Q 1547 4250 1301 3770 
Q 1056 3291 1056 2328 
Q 1056 1369 1301 889 
Q 1547 409 2034 409 
Q 2525 409 2770 889 
Q 3016 1369 3016 2328 
Q 3016 3291 2770 3770 
Q 2525 4250 2034 4250 
z
M 2034 4750 
Q 2819 4750 3233 4129 
Q 3647 3509 3647 2328 
Q 3647 1150 3233 529 
Q 2819 -91 2034 -91 
Q 1250 -91 836 529 
Q 422 1150 422 2328 
Q 422 3509 836 4129 
Q 1250 4750 2034 4750 
z
" transform="scale(0.015625)"/>
       </defs>
       <use xlink:href="#DejaVuSans-30"/>
      </g>
     </g>
    </g>
    <g id="xtick_2">
     <g id="text_2">
      <!-- $\pi$ -->
      <g style="fill: #262626" transform="translate(330.557 328.398281)scale(0.11 -0.11)">
       <defs>
        <path id="DejaVuSans-Oblique-3c0" d="M 584 3500 
L 3938 3500 
L 3825 2925 
L 3384 2925 
L 2966 775 
Q 2922 550 2981 450 
Q 3038 353 3209 353 
Q 3256 353 3325 363 
Q 3397 369 3419 372 
L 3338 -44 
Q 3222 -84 3103 -103 
Q 2981 -122 2866 -122 
Q 2491 -122 2388 81 
Q 2284 288 2391 838 
L 2797 2925 
L 1506 2925 
L 938 0 
L 350 0 
L 919 2925 
L 472 2925 
L 584 3500 
z
" transform="scale(0.015625)"/>
       </defs>
       <use xlink:href="#DejaVuSans-Oblique-3c0" transform="translate(0 0.3125)"/>
      </g>
     </g>
    </g>
    <g id="text_3">
     <!-- $\theta$ -->
     <g style="fill: #262626" transform="translate(198.91208 343.804062)scale(0.12 -0.12)">
      <defs>
       <path id="DejaVuSans-Oblique-3b8" d="M 2913 2219 
L 925 2219 
Q 791 1284 928 888 
Q 1100 400 1566 400 
Q 2034 400 2391 891 
Q 2703 1322 2913 2219 
z
M 3009 2750 
Q 3094 3638 2984 3950 
Q 2813 4444 2353 4444 
Q 1875 4444 1525 3956 
Q 1250 3563 1034 2750 
L 3009 2750 
z
M 2444 4913 
Q 3194 4913 3494 4250 
Q 3794 3591 3566 2422 
Q 3341 1256 2781 594 
Q 2225 -72 1475 -72 
Q 722 -72 425 594 
Q 128 1256 353 2422 
Q 581 3591 1134 4250 
Q 1691 4913 2444 4913 
z
" transform="scale(0.015625)"/>
      </defs>
      <use xlink:href="#DejaVuSans-Oblique-3b8" transform="translate(0 0.234375)"/>
     </g>
    </g>
   </g>
   <g id="matplotlib.axis_2">
    <g id="ytick_1">
     <g id="text_4">
      <!-- 0 -->
      <g style="fill: #262626" transform="translate(41.72541 308.678852)scale(0.11 -0.11)">
       <use xlink:href="#DejaVuSans-30"/>
      </g>
     </g>
    </g>
    <g id="ytick_2">
     <g id="text_5">
      <!-- $2\pi$ -->
      <g style="fill: #262626" transform="translate(35.08416 30.665512)scale(0.11 -0.11)">
       <defs>
        <path id="DejaVuSans-32" d="M 1228 531 
L 3431 531 
L 3431 0 
L 469 0 
L 469 531 
Q 828 903 1448 1529 
Q 2069 2156 2228 2338 
Q 2531 2678 2651 2914 
Q 2772 3150 2772 3378 
Q 2772 3750 2511 3984 
Q 2250 4219 1831 4219 
Q 1534 4219 1204 4116 
Q 875 4013 500 3803 
L 500 4441 
Q 881 4594 1212 4672 
Q 1544 4750 1819 4750 
Q 2544 4750 2975 4387 
Q 3406 4025 3406 3419 
Q 3406 3131 3298 2873 
Q 3191 2616 2906 2266 
Q 2828 2175 2409 1742 
Q 1991 1309 1228 531 
z
" transform="scale(0.015625)"/>
       </defs>
       <use xlink:href="#DejaVuSans-32" transform="translate(0 0.78125)"/>
       <use xlink:href="#DejaVuSans-Oblique-3c0" transform="translate(63.623047 0.78125)"/>
      </g>
     </g>
    </g>
    <g id="text_6">
     <!-- $\phi$ -->
     <g style="fill: #262626" transform="translate(28.56416 165.71)rotate(-90)scale(0.12 -0.12)">
      <defs>
       <path id="DejaVuSans-Oblique-3d5" d="M 2991 4863 
L 2738 3572 
Q 3363 3572 3684 3094 
Q 4016 2606 3850 1747 
Q 3681 888 3159 400 
Q 2653 -78 2028 -78 
L 1784 -1331 
L 1213 -1331 
L 1456 -78 
Q 834 -78 509 400 
Q 178 888 347 1747 
Q 513 2606 1034 3094 
Q 1544 3572 2166 3572 
L 2419 4863 
L 2991 4863 
z
M 2128 434 
Q 2481 434 2784 756 
Q 3116 1116 3244 1747 
Q 3369 2372 3169 2738 
Q 2991 3059 2638 3059 
L 2128 434 
z
M 1556 434 
L 2066 3059 
Q 1716 3059 1413 2738 
Q 1072 2372 953 1747 
Q 834 1116 1028 756 
Q 1203 434 1556 434 
z
" transform="scale(0.015625)"/>
      </defs>
      <use xlink:href="#DejaVuSans-Oblique-3d5" transform="translate(0 0.015625)"/>
     </g>
    </g>
   </g>
   <g id="PathCollection_1">
    <defs>
     <path id="C0_0_ef56624e17" d="M 0 7.071068 
C 1.875269 7.071068 3.673985 6.326016 5 5 
C 6.326016 3.673985 7.071068 1.875269 7.071068 -0 
C 7.071068 -1.875269 6.326016 -3.673985 5 -5 
C 3.673985 -6.326016 1.875269 -7.071068 0 -7.071068 
C -1.875269 -7.071068 -3.673985 -6.326016 -5 -5 
C -6.326016 -3.673985 -7.071068 -1.875269 -7.071068 0 
C -7.071068 1.875269 -6.326016 3.673985 -5 5 
C -3.673985 6.326016 -1.875269 7.071068 0 7.071068 
z
"/>
    </defs>
    <g clip-path="url(#pdfbcc2944f)">
     <use xlink:href="#C0_0_ef56624e17" x="188.993979" y="107.921447" style="fill: #9dcda0; stroke: #9dcda0"/>
    </g>
    <g clip-path="url(#pdfbcc2944f)">
     <use xlink:href="#C0_0_ef56624e17" x="202.63208" y="120.483829" style="fill: #adc58e; stroke: #adc58e"/>
    </g>
    <g clip-path="url(#pdfbcc2944f)">
     <use xlink:href="#C0_0_ef56624e17" x="216.270172" y="107.921447" style="fill: #9bcc7b; stroke: #9bcc7b"/>
    </g>
    <g clip-path="url(#pdfbcc2944f)">
     <use xlink:href="#C0_0_ef56624e17" x="202.63208" y="95.989706" style="fill: #88d38f; stroke: #88d38f"/>
    </g>
    <g clip-path="url(#pdfbcc2944f)">
     <use xlink:href="#C0_0_ef56624e17" x="176.376095" y="120.483829" style="fill: #a9c2aa; stroke: #a9c2aa"/>
    </g>
    <g clip-path="url(#pdfbcc2944f)">
     <use xlink:href="#C0_0_ef56624e17" x="228.888066" y="120.483829" style="fill: #a7c168; stroke: #a7c168"/>
    </g>
    <g clip-path="url(#pdfbcc2944f)">
     <use xlink:href="#C0_0_ef56624e17" x="225.764676" y="95.989706" style="fill: #85cf6d; stroke: #85cf6d"/>
    </g>
    <g clip-path="url(#pdfbcc2944f)">
     <use xlink:href="#C0_0_ef56624e17" x="240.141073" y="108.937181" style="fill: #96c358; stroke: #96c358"/>
    </g>
    <g clip-path="url(#pdfbcc2944f)">
     <use xlink:href="#C0_0_ef56624e17" x="248.897263" y="95.989706" style="fill: #81c04a; stroke: #81c04a"/>
    </g>
    <g clip-path="url(#pdfbcc2944f)">
     <use xlink:href="#C0_0_ef56624e17" x="165.123077" y="108.937181" style="fill: #9bc5b5; stroke: #9bc5b5"/>
    </g>
    <g clip-path="url(#pdfbcc2944f)">
     <use xlink:href="#C0_0_ef56624e17" x="179.499474" y="95.989706" style="fill: #8bd0ab; stroke: #8bd0ab"/>
    </g>
    <g clip-path="url(#pdfbcc2944f)">
     <use xlink:href="#C0_0_ef56624e17" x="156.366887" y="95.989706" style="fill: #89c5bc; stroke: #89c5bc"/>
    </g>
    <g clip-path="url(#pdfbcc2944f)">
     <use xlink:href="#C0_0_ef56624e17" x="216.11453" y="131.003391" style="fill: #b7ba7a; stroke: #b7ba7a"/>
    </g>
    <g clip-path="url(#pdfbcc2944f)">
     <use xlink:href="#C0_0_ef56624e17" x="189.14963" y="131.003391" style="fill: #b6bc9c; stroke: #b6bc9c"/>
    </g>
    <g clip-path="url(#pdfbcc2944f)">
     <use xlink:href="#C0_0_ef56624e17" x="202.63208" y="140.998925" style="fill: #c0b189; stroke: #c0b189"/>
    </g>
    <g clip-path="url(#pdfbcc2944f)">
     <use xlink:href="#C0_0_ef56624e17" x="216.270172" y="84.057965" style="fill: #6dce78; stroke: #6dce78"/>
    </g>
    <g clip-path="url(#pdfbcc2944f)">
     <use xlink:href="#C0_0_ef56624e17" x="202.63208" y="71.495583" style="fill: #50c486; stroke: #50c486"/>
    </g>
    <g clip-path="url(#pdfbcc2944f)">
     <use xlink:href="#C0_0_ef56624e17" x="188.993979" y="84.057965" style="fill: #72d2a0; stroke: #72d2a0"/>
    </g>
    <g clip-path="url(#pdfbcc2944f)">
     <use xlink:href="#C0_0_ef56624e17" x="228.888066" y="71.495583" style="fill: #4db85f; stroke: #4db85f"/>
    </g>
    <g clip-path="url(#pdfbcc2944f)">
     <use xlink:href="#C0_0_ef56624e17" x="176.376095" y="71.495583" style="fill: #5ac4ab; stroke: #5ac4ab"/>
    </g>
    <g clip-path="url(#pdfbcc2944f)">
     <use xlink:href="#C0_0_ef56624e17" x="165.123077" y="83.042231" style="fill: #75c8b7; stroke: #75c8b7"/>
    </g>
    <g clip-path="url(#pdfbcc2944f)">
     <use xlink:href="#C0_0_ef56624e17" x="240.141073" y="83.042231" style="fill: #69bf54; stroke: #69bf54"/>
    </g>
    <g clip-path="url(#pdfbcc2944f)">
     <use xlink:href="#C0_0_ef56624e17" x="189.14963" y="60.97602" style="fill: #41b893; stroke: #41b893"/>
    </g>
    <g clip-path="url(#pdfbcc2944f)">
     <use xlink:href="#C0_0_ef56624e17" x="216.11453" y="60.97602" style="fill: #3ab16c; stroke: #3ab16c"/>
    </g>
    <g clip-path="url(#pdfbcc2944f)">
     <use xlink:href="#C0_0_ef56624e17" x="202.63208" y="50.980465" style="fill: #30a478; stroke: #30a478"/>
    </g>
    <g clip-path="url(#pdfbcc2944f)">
     <use xlink:href="#C0_0_ef56624e17" x="216.270172" y="223.064628" style="fill: #91236c; stroke: #91236c"/>
    </g>
    <g clip-path="url(#pdfbcc2944f)">
     <use xlink:href="#C0_0_ef56624e17" x="202.63208" y="210.502257" style="fill: #a02b7e; stroke: #a02b7e"/>
    </g>
    <g clip-path="url(#pdfbcc2944f)">
     <use xlink:href="#C0_0_ef56624e17" x="188.993979" y="223.064628" style="fill: #8f2193; stroke: #8f2193"/>
    </g>
    <g clip-path="url(#pdfbcc2944f)">
     <use xlink:href="#C0_0_ef56624e17" x="202.63208" y="234.996374" style="fill: #7c1c7d; stroke: #7c1c7d"/>
    </g>
    <g clip-path="url(#pdfbcc2944f)">
     <use xlink:href="#C0_0_ef56624e17" x="228.888066" y="210.502257" style="fill: #9f3061; stroke: #9f3061"/>
    </g>
    <g clip-path="url(#pdfbcc2944f)">
     <use xlink:href="#C0_0_ef56624e17" x="176.376095" y="210.502257" style="fill: #9b2fa1; stroke: #9b2fa1"/>
    </g>
    <g clip-path="url(#pdfbcc2944f)">
     <use xlink:href="#C0_0_ef56624e17" x="179.499474" y="234.996374" style="fill: #7b239c; stroke: #7b239c"/>
    </g>
    <g clip-path="url(#pdfbcc2944f)">
     <use xlink:href="#C0_0_ef56624e17" x="165.123077" y="222.048888" style="fill: #8c2fab; stroke: #8c2fab"/>
    </g>
    <g clip-path="url(#pdfbcc2944f)">
     <use xlink:href="#C0_0_ef56624e17" x="156.366887" y="234.996374" style="fill: #7c33b1; stroke: #7c33b1"/>
    </g>
    <g clip-path="url(#pdfbcc2944f)">
     <use xlink:href="#C0_0_ef56624e17" x="240.141073" y="222.048888" style="fill: #903055; stroke: #903055"/>
    </g>
    <g clip-path="url(#pdfbcc2944f)">
     <use xlink:href="#C0_0_ef56624e17" x="225.764676" y="234.996374" style="fill: #782760; stroke: #782760"/>
    </g>
    <g clip-path="url(#pdfbcc2944f)">
     <use xlink:href="#C0_0_ef56624e17" x="248.897263" y="234.996374" style="fill: #7a354d; stroke: #7a354d"/>
    </g>
    <g clip-path="url(#pdfbcc2944f)">
     <use xlink:href="#C0_0_ef56624e17" x="189.14963" y="199.982684" style="fill: #ab3b8e; stroke: #ab3b8e"/>
    </g>
    <g clip-path="url(#pdfbcc2944f)">
     <use xlink:href="#C0_0_ef56624e17" x="216.11453" y="199.982684" style="fill: #ad3a6e; stroke: #ad3a6e"/>
    </g>
    <g clip-path="url(#pdfbcc2944f)">
     <use xlink:href="#C0_0_ef56624e17" x="202.63208" y="189.98715" style="fill: #bb4b7e; stroke: #bb4b7e"/>
    </g>
    <g clip-path="url(#pdfbcc2944f)">
     <use xlink:href="#C0_0_ef56624e17" x="188.993979" y="246.928121" style="fill: #68258c; stroke: #68258c"/>
    </g>
    <g clip-path="url(#pdfbcc2944f)">
     <use xlink:href="#C0_0_ef56624e17" x="202.63208" y="259.490481" style="fill: #543179; stroke: #543179"/>
    </g>
    <g clip-path="url(#pdfbcc2944f)">
     <use xlink:href="#C0_0_ef56624e17" x="216.270172" y="246.928121" style="fill: #66286a; stroke: #66286a"/>
    </g>
    <g clip-path="url(#pdfbcc2944f)">
     <use xlink:href="#C0_0_ef56624e17" x="176.376095" y="259.490481" style="fill: #583497; stroke: #583497"/>
    </g>
    <g clip-path="url(#pdfbcc2944f)">
     <use xlink:href="#C0_0_ef56624e17" x="228.888066" y="259.490481" style="fill: #57385d; stroke: #57385d"/>
    </g>
    <g clip-path="url(#pdfbcc2944f)">
     <use xlink:href="#C0_0_ef56624e17" x="240.141073" y="247.943855" style="fill: #663554; stroke: #663554"/>
    </g>
    <g clip-path="url(#pdfbcc2944f)">
     <use xlink:href="#C0_0_ef56624e17" x="165.123077" y="247.943855" style="fill: #6a30a5; stroke: #6a30a5"/>
    </g>
    <g clip-path="url(#pdfbcc2944f)">
     <use xlink:href="#C0_0_ef56624e17" x="216.11453" y="270.010065" style="fill: #474069; stroke: #474069"/>
    </g>
    <g clip-path="url(#pdfbcc2944f)">
     <use xlink:href="#C0_0_ef56624e17" x="189.14963" y="270.010065" style="fill: #453f88; stroke: #453f88"/>
    </g>
    <g clip-path="url(#pdfbcc2944f)">
     <use xlink:href="#C0_0_ef56624e17" x="202.63208" y="280.005599" style="fill: #394c79; stroke: #394c79"/>
    </g>
    <g clip-path="url(#pdfbcc2944f)">
     <use xlink:href="#C0_0_ef56624e17" x="224.862381" y="172.979112" style="fill: #c86f65; stroke: #c86f65"/>
    </g>
    <g clip-path="url(#pdfbcc2944f)">
     <use xlink:href="#C0_0_ef56624e17" x="248.897263" y="165.493037" style="fill: #c08249; stroke: #c08249"/>
    </g>
    <g clip-path="url(#pdfbcc2944f)">
     <use xlink:href="#C0_0_ef56624e17" x="224.862381" y="158.006963" style="fill: #cb9268; stroke: #cb9268"/>
    </g>
    <g clip-path="url(#pdfbcc2944f)">
     <use xlink:href="#C0_0_ef56624e17" x="202.63208" y="165.493037" style="fill: #d18285; stroke: #d18285"/>
    </g>
    <g clip-path="url(#pdfbcc2944f)">
     <use xlink:href="#C0_0_ef56624e17" x="246.392056" y="181.637241" style="fill: #b8604e; stroke: #b8604e"/>
    </g>
    <g clip-path="url(#pdfbcc2944f)">
     <use xlink:href="#C0_0_ef56624e17" x="246.392056" y="149.348834" style="fill: #bd9c4d; stroke: #bd9c4d"/>
    </g>
    <g clip-path="url(#pdfbcc2944f)">
     <use xlink:href="#C0_0_ef56624e17" x="202.63208" y="153.245976" style="fill: #cc9c87; stroke: #cc9c87"/>
    </g>
    <g clip-path="url(#pdfbcc2944f)">
     <use xlink:href="#C0_0_ef56624e17" x="224.604908" y="144.873239" style="fill: #c3a86b; stroke: #c3a86b"/>
    </g>
    <g clip-path="url(#pdfbcc2944f)">
     <use xlink:href="#C0_0_ef56624e17" x="224.604908" y="186.112836" style="fill: #bd5267; stroke: #bd5267"/>
    </g>
    <g clip-path="url(#pdfbcc2944f)">
     <use xlink:href="#C0_0_ef56624e17" x="202.63208" y="177.740099" style="fill: #c86581; stroke: #c86581"/>
    </g>
    <g clip-path="url(#pdfbcc2944f)">
     <use xlink:href="#C0_0_ef56624e17" x="267.676054" y="155.426411" style="fill: #ae8e37; stroke: #ae8e37"/>
    </g>
    <g clip-path="url(#pdfbcc2944f)">
     <use xlink:href="#C0_0_ef56624e17" x="267.676054" y="175.559663" style="fill: #ad7039; stroke: #ad7039"/>
    </g>
    <g clip-path="url(#pdfbcc2944f)">
     <use xlink:href="#C0_0_ef56624e17" x="287.646795" y="165.493037" style="fill: #a0812a; stroke: #a0812a"/>
    </g>
    <g clip-path="url(#pdfbcc2944f)">
     <use xlink:href="#C0_0_ef56624e17" x="180.40177" y="158.006963" style="fill: #ca92a5; stroke: #ca92a5"/>
    </g>
    <g clip-path="url(#pdfbcc2944f)">
     <use xlink:href="#C0_0_ef56624e17" x="156.366887" y="165.493037" style="fill: #c087bf; stroke: #c087bf"/>
    </g>
    <g clip-path="url(#pdfbcc2944f)">
     <use xlink:href="#C0_0_ef56624e17" x="180.40177" y="172.979112" style="fill: #ca74a0; stroke: #ca74a0"/>
    </g>
    <g clip-path="url(#pdfbcc2944f)">
     <use xlink:href="#C0_0_ef56624e17" x="158.872104" y="149.348834" style="fill: #baa2bd; stroke: #baa2bd"/>
    </g>
    <g clip-path="url(#pdfbcc2944f)">
     <use xlink:href="#C0_0_ef56624e17" x="158.872104" y="181.637241" style="fill: #b968b7; stroke: #b968b7"/>
    </g>
    <g clip-path="url(#pdfbcc2944f)">
     <use xlink:href="#C0_0_ef56624e17" x="180.659252" y="186.112836" style="fill: #bd589c; stroke: #bd589c"/>
    </g>
    <g clip-path="url(#pdfbcc2944f)">
     <use xlink:href="#C0_0_ef56624e17" x="180.659252" y="144.873239" style="fill: #c0aba5; stroke: #c0aba5"/>
    </g>
    <g clip-path="url(#pdfbcc2944f)">
     <use xlink:href="#C0_0_ef56624e17" x="137.588101" y="175.559663" style="fill: #b179ca; stroke: #b179ca"/>
    </g>
    <g clip-path="url(#pdfbcc2944f)">
     <use xlink:href="#C0_0_ef56624e17" x="137.588101" y="155.426411" style="fill: #b297cc; stroke: #b297cc"/>
    </g>
    <g clip-path="url(#pdfbcc2944f)">
     <use xlink:href="#C0_0_ef56624e17" x="117.617351" y="165.493037" style="fill: #a88dd6; stroke: #a88dd6"/>
    </g>
    <g clip-path="url(#pdfbcc2944f)">
     <use xlink:href="#C0_0_ef56624e17" x="180.40177" y="297.013636" style="fill: #2d6d90; stroke: #2d6d90"/>
    </g>
    <g clip-path="url(#pdfbcc2944f)">
     <use xlink:href="#C0_0_ef56624e17" x="156.366887" y="26.486364" style="fill: #3a84ae; stroke: #3a84ae"/>
    </g>
    <g clip-path="url(#pdfbcc2944f)">
     <use xlink:href="#C0_0_ef56624e17" x="180.40177" y="33.972438" style="fill: #2c8a90; stroke: #2c8a90"/>
    </g>
    <g clip-path="url(#pdfbcc2944f)">
     <use xlink:href="#C0_0_ef56624e17" x="202.63208" y="26.486364" style="fill: #257d76; stroke: #257d76"/>
    </g>
    <g clip-path="url(#pdfbcc2944f)">
     <use xlink:href="#C0_0_ef56624e17" x="158.872104" y="288.355507" style="fill: #3e61a8; stroke: #3e61a8"/>
    </g>
    <g clip-path="url(#pdfbcc2944f)">
     <use xlink:href="#C0_0_ef56624e17" x="158.872104" y="42.630567" style="fill: #409caf; stroke: #409caf"/>
    </g>
    <g clip-path="url(#pdfbcc2944f)">
     <use xlink:href="#C0_0_ef56624e17" x="202.63208" y="38.733425" style="fill: #289073; stroke: #289073"/>
    </g>
    <g clip-path="url(#pdfbcc2944f)">
     <use xlink:href="#C0_0_ef56624e17" x="180.659252" y="47.106152" style="fill: #35a396; stroke: #35a396"/>
    </g>
    <g clip-path="url(#pdfbcc2944f)">
     <use xlink:href="#C0_0_ef56624e17" x="180.659252" y="283.879912" style="fill: #385390; stroke: #385390"/>
    </g>
    <g clip-path="url(#pdfbcc2944f)">
     <use xlink:href="#C0_0_ef56624e17" x="202.63208" y="292.25265" style="fill: #2c6278; stroke: #2c6278"/>
    </g>
    <g clip-path="url(#pdfbcc2944f)">
     <use xlink:href="#C0_0_ef56624e17" x="137.588101" y="36.553" style="fill: #4e95c1; stroke: #4e95c1"/>
    </g>
    <g clip-path="url(#pdfbcc2944f)">
     <use xlink:href="#C0_0_ef56624e17" x="137.588101" y="294.433085" style="fill: #4b75be; stroke: #4b75be"/>
    </g>
    <g clip-path="url(#pdfbcc2944f)">
     <use xlink:href="#C0_0_ef56624e17" x="117.617351" y="26.486364" style="fill: #5e8bcf; stroke: #5e8bcf"/>
    </g>
    <g clip-path="url(#pdfbcc2944f)">
     <use xlink:href="#C0_0_ef56624e17" x="224.862381" y="33.972438" style="fill: #2b8a5b; stroke: #2b8a5b"/>
    </g>
    <g clip-path="url(#pdfbcc2944f)">
     <use xlink:href="#C0_0_ef56624e17" x="248.897263" y="26.486364" style="fill: #377f46; stroke: #377f46"/>
    </g>
    <g clip-path="url(#pdfbcc2944f)">
     <use xlink:href="#C0_0_ef56624e17" x="224.862381" y="297.013636" style="fill: #2d6c5f; stroke: #2d6c5f"/>
    </g>
    <g clip-path="url(#pdfbcc2944f)">
     <use xlink:href="#C0_0_ef56624e17" x="246.392056" y="42.630567" style="fill: #389146; stroke: #389146"/>
    </g>
    <g clip-path="url(#pdfbcc2944f)">
     <use xlink:href="#C0_0_ef56624e17" x="246.392056" y="288.355507" style="fill: #3e5f4d; stroke: #3e5f4d"/>
    </g>
    <g clip-path="url(#pdfbcc2944f)">
     <use xlink:href="#C0_0_ef56624e17" x="224.604908" y="283.879912" style="fill: #3a5361; stroke: #3a5361"/>
    </g>
    <g clip-path="url(#pdfbcc2944f)">
     <use xlink:href="#C0_0_ef56624e17" x="224.604908" y="47.106152" style="fill: #2f995a; stroke: #2f995a"/>
    </g>
    <g clip-path="url(#pdfbcc2944f)">
     <use xlink:href="#C0_0_ef56624e17" x="267.676054" y="294.433085" style="fill: #476e3b; stroke: #476e3b"/>
    </g>
    <g clip-path="url(#pdfbcc2944f)">
     <use xlink:href="#C0_0_ef56624e17" x="267.676054" y="36.553" style="fill: #468a38; stroke: #468a38"/>
    </g>
    <g clip-path="url(#pdfbcc2944f)">
     <use xlink:href="#C0_0_ef56624e17" x="287.646795" y="26.486364" style="fill: #547e2d; stroke: #547e2d"/>
    </g>
    <g clip-path="url(#pdfbcc2944f)">
     <use xlink:href="#C0_0_ef56624e17" x="97.608148" y="259.490492" style="fill: #7c70d4; stroke: #7c70d4"/>
    </g>
    <g clip-path="url(#pdfbcc2944f)">
     <use xlink:href="#C0_0_ef56624e17" x="117.617351" y="234.996374" style="fill: #8359cb; stroke: #8359cb"/>
    </g>
    <g clip-path="url(#pdfbcc2944f)">
     <use xlink:href="#C0_0_ef56624e17" x="97.608148" y="210.502257" style="fill: #9171d6; stroke: #9171d6"/>
    </g>
    <g clip-path="url(#pdfbcc2944f)">
     <use xlink:href="#C0_0_ef56624e17" x="71.352153" y="165.493037" style="fill: #888ddb; stroke: #888ddb"/>
    </g>
    <g clip-path="url(#pdfbcc2944f)">
     <use xlink:href="#C0_0_ef56624e17" x="123.864124" y="259.490492" style="fill: #6e57c6; stroke: #6e57c6"/>
    </g>
    <g clip-path="url(#pdfbcc2944f)">
     <use xlink:href="#C0_0_ef56624e17" x="123.864124" y="210.502257" style="fill: #965ccb; stroke: #965ccb"/>
    </g>
    <g clip-path="url(#pdfbcc2944f)">
     <use xlink:href="#C0_0_ef56624e17" x="94.484762" y="165.493037" style="fill: #998ddb; stroke: #998ddb"/>
    </g>
    <g clip-path="url(#pdfbcc2944f)">
     <use xlink:href="#C0_0_ef56624e17" x="115.670015" y="189.371985" style="fill: #a071d2; stroke: #a071d2"/>
    </g>
    <g clip-path="url(#pdfbcc2944f)">
     <use xlink:href="#C0_0_ef56624e17" x="115.670015" y="280.620763" style="fill: #666dcc; stroke: #666dcc"/>
    </g>
    <g clip-path="url(#pdfbcc2944f)">
     <use xlink:href="#C0_0_ef56624e17" x="94.484762" y="26.486364" style="fill: #758cd8; stroke: #758cd8"/>
    </g>
    <g clip-path="url(#pdfbcc2944f)">
     <use xlink:href="#C0_0_ef56624e17" x="138.552715" y="225.044293" style="fill: #8947c0; stroke: #8947c0"/>
    </g>
    <g clip-path="url(#pdfbcc2944f)">
     <use xlink:href="#C0_0_ef56624e17" x="138.552715" y="244.94845" style="fill: #7545bd; stroke: #7545bd"/>
    </g>
    <g clip-path="url(#pdfbcc2944f)">
     <use xlink:href="#C0_0_ef56624e17" x="97.608148" y="120.483829" style="fill: #939fd7; stroke: #939fd7"/>
    </g>
    <g clip-path="url(#pdfbcc2944f)">
     <use xlink:href="#C0_0_ef56624e17" x="117.617351" y="95.989706" style="fill: #89afcf; stroke: #89afcf"/>
    </g>
    <g clip-path="url(#pdfbcc2944f)">
     <use xlink:href="#C0_0_ef56624e17" x="97.608148" y="71.495583" style="fill: #7d9ed6; stroke: #7d9ed6"/>
    </g>
    <g clip-path="url(#pdfbcc2944f)">
     <use xlink:href="#C0_0_ef56624e17" x="123.864124" y="120.483829" style="fill: #9cadce; stroke: #9cadce"/>
    </g>
    <g clip-path="url(#pdfbcc2944f)">
     <use xlink:href="#C0_0_ef56624e17" x="123.864124" y="71.495583" style="fill: #72adcd; stroke: #72adcd"/>
    </g>
    <g clip-path="url(#pdfbcc2944f)">
     <use xlink:href="#C0_0_ef56624e17" x="115.670015" y="50.365311" style="fill: #689dd0; stroke: #689dd0"/>
    </g>
    <g clip-path="url(#pdfbcc2944f)">
     <use xlink:href="#C0_0_ef56624e17" x="115.670015" y="141.61409" style="fill: #a39fd3; stroke: #a39fd3"/>
    </g>
    <g clip-path="url(#pdfbcc2944f)">
     <use xlink:href="#C0_0_ef56624e17" x="138.552715" y="86.037614" style="fill: #7dbac6; stroke: #7dbac6"/>
    </g>
    <g clip-path="url(#pdfbcc2944f)">
     <use xlink:href="#C0_0_ef56624e17" x="138.552715" y="105.941776" style="fill: #94b9c6; stroke: #94b9c6"/>
    </g>
    <g clip-path="url(#pdfbcc2944f)">
     <use xlink:href="#C0_0_ef56624e17" x="307.656012" y="71.495583" style="fill: #6f9224; stroke: #6f9224"/>
    </g>
    <g clip-path="url(#pdfbcc2944f)">
     <use xlink:href="#C0_0_ef56624e17" x="287.646795" y="95.989706" style="fill: #7aa42b; stroke: #7aa42b"/>
    </g>
    <g clip-path="url(#pdfbcc2944f)">
     <use xlink:href="#C0_0_ef56624e17" x="307.656012" y="120.483829" style="fill: #869123; stroke: #869123"/>
    </g>
    <g clip-path="url(#pdfbcc2944f)">
     <use xlink:href="#C0_0_ef56624e17" x="333.912007" y="165.493037" style="fill: #7a8020; stroke: #7a8020"/>
    </g>
    <g clip-path="url(#pdfbcc2944f)">
     <use xlink:href="#C0_0_ef56624e17" x="281.400036" y="71.495583" style="fill: #62a02e; stroke: #62a02e"/>
    </g>
    <g clip-path="url(#pdfbcc2944f)">
     <use xlink:href="#C0_0_ef56624e17" x="281.400036" y="120.483829" style="fill: #92a52f; stroke: #92a52f"/>
    </g>
    <g clip-path="url(#pdfbcc2944f)">
     <use xlink:href="#C0_0_ef56624e17" x="310.779381" y="165.493037" style="fill: #8e8123; stroke: #8e8123"/>
    </g>
    <g clip-path="url(#pdfbcc2944f)">
     <use xlink:href="#C0_0_ef56624e17" x="289.594135" y="141.61409" style="fill: #9a932a; stroke: #9a932a"/>
    </g>
    <g clip-path="url(#pdfbcc2944f)">
     <use xlink:href="#C0_0_ef56624e17" x="289.594135" y="50.365311" style="fill: #5b922b; stroke: #5b922b"/>
    </g>
    <g clip-path="url(#pdfbcc2944f)">
     <use xlink:href="#C0_0_ef56624e17" x="310.779381" y="26.486364" style="fill: #677f24; stroke: #677f24"/>
    </g>
    <g clip-path="url(#pdfbcc2944f)">
     <use xlink:href="#C0_0_ef56624e17" x="266.71144" y="105.941776" style="fill: #8ab339; stroke: #8ab339"/>
    </g>
    <g clip-path="url(#pdfbcc2944f)">
     <use xlink:href="#C0_0_ef56624e17" x="266.71144" y="86.037614" style="fill: #6faf36; stroke: #6faf36"/>
    </g>
    <g clip-path="url(#pdfbcc2944f)">
     <use xlink:href="#C0_0_ef56624e17" x="307.656012" y="210.502257" style="fill: #84682a; stroke: #84682a"/>
    </g>
    <g clip-path="url(#pdfbcc2944f)">
     <use xlink:href="#C0_0_ef56624e17" x="287.646795" y="234.996374" style="fill: #7a5335; stroke: #7a5335"/>
    </g>
    <g clip-path="url(#pdfbcc2944f)">
     <use xlink:href="#C0_0_ef56624e17" x="307.656012" y="259.490492" style="fill: #6f692a; stroke: #6f692a"/>
    </g>
    <g clip-path="url(#pdfbcc2944f)">
     <use xlink:href="#C0_0_ef56624e17" x="281.400036" y="210.502257" style="fill: #8e5237; stroke: #8e5237"/>
    </g>
    <g clip-path="url(#pdfbcc2944f)">
     <use xlink:href="#C0_0_ef56624e17" x="281.400036" y="259.490492" style="fill: #655538; stroke: #655538"/>
    </g>
    <g clip-path="url(#pdfbcc2944f)">
     <use xlink:href="#C0_0_ef56624e17" x="289.594135" y="280.620763" style="fill: #5d6731; stroke: #5d6731"/>
    </g>
    <g clip-path="url(#pdfbcc2944f)">
     <use xlink:href="#C0_0_ef56624e17" x="289.594135" y="189.371985" style="fill: #97682e; stroke: #97682e"/>
    </g>
    <g clip-path="url(#pdfbcc2944f)">
     <use xlink:href="#C0_0_ef56624e17" x="266.71144" y="244.94845" style="fill: #6f4441; stroke: #6f4441"/>
    </g>
    <g clip-path="url(#pdfbcc2944f)">
     <use xlink:href="#C0_0_ef56624e17" x="266.71144" y="225.044293" style="fill: #854242; stroke: #854242"/>
    </g>
    <g clip-path="url(#pdfbcc2944f)">
     <use xlink:href="#C0_0_ef56624e17" x="139.198973" y="137.776846" style="fill: #abaac8; stroke: #abaac8"/>
    </g>
    <g clip-path="url(#pdfbcc2944f)">
     <use xlink:href="#C0_0_ef56624e17" x="165.915621" y="134.215986" style="fill: #b3b5b4; stroke: #b3b5b4"/>
    </g>
    <g clip-path="url(#pdfbcc2944f)">
     <use xlink:href="#C0_0_ef56624e17" x="150.120099" y="120.483829" style="fill: #a3b9c0; stroke: #a3b9c0"/>
    </g>
    <g clip-path="url(#pdfbcc2944f)">
     <use xlink:href="#C0_0_ef56624e17" x="165.915621" y="57.763405" style="fill: #4cb3ae; stroke: #4cb3ae"/>
    </g>
    <g clip-path="url(#pdfbcc2944f)">
     <use xlink:href="#C0_0_ef56624e17" x="139.198973" y="54.202576" style="fill: #59a7c2; stroke: #59a7c2"/>
    </g>
    <g clip-path="url(#pdfbcc2944f)">
     <use xlink:href="#C0_0_ef56624e17" x="150.120099" y="71.495583" style="fill: #67bbbf; stroke: #67bbbf"/>
    </g>
    <g clip-path="url(#pdfbcc2944f)">
     <use xlink:href="#C0_0_ef56624e17" x="239.34854" y="134.215986" style="fill: #b4b158; stroke: #b4b158"/>
    </g>
    <g clip-path="url(#pdfbcc2944f)">
     <use xlink:href="#C0_0_ef56624e17" x="266.065183" y="137.776846" style="fill: #a7a139; stroke: #a7a139"/>
    </g>
    <g clip-path="url(#pdfbcc2944f)">
     <use xlink:href="#C0_0_ef56624e17" x="255.144041" y="120.483829" style="fill: #9eb545; stroke: #9eb545"/>
    </g>
    <g clip-path="url(#pdfbcc2944f)">
     <use xlink:href="#C0_0_ef56624e17" x="266.065183" y="54.202576" style="fill: #4c9a38; stroke: #4c9a38"/>
    </g>
    <g clip-path="url(#pdfbcc2944f)">
     <use xlink:href="#C0_0_ef56624e17" x="239.34854" y="57.763405" style="fill: #3da14d; stroke: #3da14d"/>
    </g>
    <g clip-path="url(#pdfbcc2944f)">
     <use xlink:href="#C0_0_ef56624e17" x="255.144041" y="71.495583" style="fill: #56aa3e; stroke: #56aa3e"/>
    </g>
    <g clip-path="url(#pdfbcc2944f)">
     <use xlink:href="#C0_0_ef56624e17" x="165.915621" y="196.770089" style="fill: #ab4aac; stroke: #ab4aac"/>
    </g>
    <g clip-path="url(#pdfbcc2944f)">
     <use xlink:href="#C0_0_ef56624e17" x="139.198973" y="193.209228" style="fill: #a761c5; stroke: #a761c5"/>
    </g>
    <g clip-path="url(#pdfbcc2944f)">
     <use xlink:href="#C0_0_ef56624e17" x="150.120099" y="210.502257" style="fill: #9845ba; stroke: #9845ba"/>
    </g>
    <g clip-path="url(#pdfbcc2944f)">
     <use xlink:href="#C0_0_ef56624e17" x="139.198973" y="276.78351" style="fill: #545aba; stroke: #545aba"/>
    </g>
    <g clip-path="url(#pdfbcc2944f)">
     <use xlink:href="#C0_0_ef56624e17" x="165.915621" y="273.22266" style="fill: #4849a0; stroke: #4849a0"/>
    </g>
    <g clip-path="url(#pdfbcc2944f)">
     <use xlink:href="#C0_0_ef56624e17" x="150.120099" y="259.490492" style="fill: #5f42b1; stroke: #5f42b1"/>
    </g>
    <g clip-path="url(#pdfbcc2944f)">
     <use xlink:href="#C0_0_ef56624e17" x="266.065183" y="193.209228" style="fill: #a3573e; stroke: #a3573e"/>
    </g>
    <g clip-path="url(#pdfbcc2944f)">
     <use xlink:href="#C0_0_ef56624e17" x="239.34854" y="196.770089" style="fill: #ad4457; stroke: #ad4457"/>
    </g>
    <g clip-path="url(#pdfbcc2944f)">
     <use xlink:href="#C0_0_ef56624e17" x="255.144041" y="210.502257" style="fill: #983f48; stroke: #983f48"/>
    </g>
    <g clip-path="url(#pdfbcc2944f)">
     <use xlink:href="#C0_0_ef56624e17" x="239.34854" y="273.22266" style="fill: #4a4854; stroke: #4a4854"/>
    </g>
    <g clip-path="url(#pdfbcc2944f)">
     <use xlink:href="#C0_0_ef56624e17" x="266.065183" y="276.78351" style="fill: #525740; stroke: #525740"/>
    </g>
    <g clip-path="url(#pdfbcc2944f)">
     <use xlink:href="#C0_0_ef56624e17" x="255.144041" y="259.490481" style="fill: #5d434b; stroke: #5d434b"/>
    </g>
   </g>
   <g id="patch_3">
    <path d="M 58.22416 310.54 
L 58.22416 12.96 
" style="fill: none; stroke: #ffffff; stroke-width: 1.25; stroke-linejoin: miter; stroke-linecap: square"/>
   </g>
   <g id="patch_4">
    <path d="M 347.04 310.54 
L 347.04 12.96 
" style="fill: none; stroke: #ffffff; stroke-width: 1.25; stroke-linejoin: miter; stroke-linecap: square"/>
   </g>
   <g id="patch_5">
    <path d="M 58.22416 310.54 
L 347.04 310.54 
" style="fill: none; stroke: #ffffff; stroke-width: 1.25; stroke-linejoin: miter; stroke-linecap: square"/>
   </g>
   <g id="patch_6">
    <path d="M 58.22416 12.96 
L 347.04 12.96 
" style="fill: none; stroke: #ffffff; stroke-width: 1.25; stroke-linejoin: miter; stroke-linecap: square"/>
   </g>
  </g>
 </g>
 <defs>
  <clipPath id="pdfbcc2944f">
   <rect x="58.22416" y="12.96" width="288.81584" height="297.58"/>
  </clipPath>
 </defs>
</svg>
