ply
format ascii 1.0
element sh_coefficients 121
property uchar l
property char m
property list uchar float coefficients
element vertex 162
property float x
property float y
property float z
property uchar red
property uchar green
property uchar blue
property uchar alpha
end_header
0 0 3 22.5764331817626953 22.4613857269287109 22.9403915405273438
1 -1 3 0.419241338968276978 6.44322729110717773 -0.03973378986120224
1 0 3 0.18184235692024231 0.396341085433959961 8.08822822570800781
1 1 3 5.82965850830078125 0.535260021686553955 0.330130189657211304
2 -2 3 0.235975071787834167 0.306947320699691772 0.0149665679782629013
2 -1 3 0.132035359740257263 0.0905455723404884338 0.412002891302108765
2 0 3 0.129970371723175049 0.516322195529937744 -0.15813562273979187
2 1 3 -0.158970922231674194 0.062962755560874939 0.0988182201981544495
2 2 3 -0.339172482490539551 0.329251497983932495 -0.344140589237213135
3 -3 3 -0.221186190843582153 0.148660734295845032 -0.0412300229072570801
3 -2 3 -0.180025190114974976 -0.179686248302459717 -0.207674279808998108
3 -1 3 -0.0155116543173789978 -0.216818556189537048 -0.365555137395858765
3 0 3 0.118433959782123566 0.068317897617816925 -0.397761613130569458
3 1 3 -0.287826627492904663 -0.0119552342221140862 -0.176185294985771179
3 2 3 -0.102078184485435486 0.141070425510406494 0.111142344772815704
3 3 3 0.151327133178710938 0.0479724220931529999 0.0281590297818183899
4 -4 3 -0.00438003707677125931 0.0688019692897796631 0.074442744255065918
4 -3 3 0.0092642512172460556 0.0174634438008069992 0.0488122552633285522
4 -2 3 -0.0239798147231340408 -0.0693310871720314026 -0.0801242217421531677
4 -1 3 -0.0663473829627037048 -0.0265957154333591461 -0.0926620662212371826
4 0 3 0.00464686611667275429 0.0551584213972091675 -0.0189039371907711029
4 1 3 0.0186135396361351013 0.0161503013223409653 0.0144143607467412949
4 2 3 0.0188534818589687347 0.214053839445114136 0.120272740721702576
4 3 3 0.0661195293068885803 0.0470377691090106964 0.0729288384318351746
4 4 3 0.161352232098579407 0.249249368906021118 -0.000510085199493914843
5 -5 3 0.101340919733047485 0.19938446581363678 -0.015445290133357048
5 -4 3 -0.0215065460652112961 0.0103326998651027679 0.0266249217092990875
5 -3 3 -0.00579106854274868965 -0.153954386711120605 0.0255078449845314026
5 -2 3 0.0107687870040535927 0.0161322131752967834 0.0771085694432258606
5 -1 3 -0.0273112598806619644 -0.0493325218558311462 0.0882410481572151184
5 0 3 0.00578440818935632706 -0.0191150698810815811 -0.00990071799606084824
5 1 3 0.184831395745277405 -0.0172151103615760803 -0.0108562065288424492
5 2 3 -0.0271843932569026947 0.0172762703150510788 0.392333388328552246
5 3 3 0.0903137475252151489 -0.0477193258702754974 -0.0223842933773994446
5 4 3 0.0160731617361307144 -0.0495178848505020142 0.25556609034538269
5 5 3 -0.0852051228284835815 -0.102547161281108856 -0.024760022759437561
6 -6 3 -0.0524291172623634338 -0.0462700389325618744 0.00173091760370880365
6 -5 3 -0.0408277586102485657 -0.0453707017004489899 0.0121689140796661377
6 -4 3 -0.0378913022577762604 -0.0413774736225605011 -0.0460498407483100891
6 -3 3 -0.00714511564001441002 -0.00278164912015199661 -0.0233392082154750824
6 -2 3 -0.0032179616391658783 0.0107332784682512283 0.0270986836403608322
6 -1 3 0.0182516630738973618 0.00664300983771681786 -0.00103181740269064903
6 0 3 -0.317220002412796021 -0.33278954029083252 -0.307085752487182617
6 1 3 -0.00473928777500987053 -0.00337243592366576195 -0.0479880794882774353
6 2 3 1.04652535915374756 1.04029107093811035 1.00068676471710205
6 3 3 -0.00814400427043437958 -0.0245749875903129578 -0.00286790425889194012
6 4 3 0.859135448932647705 0.883348524570465088 0.841666817665100098
6 5 3 -0.00449665030464529991 0.0272215232253074646 -0.00379711086861789227
6 6 3 -0.69737553596496582 -0.652622222900390625 -0.705388963222503662
7 -7 3 -0.00835520867258310318 -0.151825979351997375 -0.0195063035935163498
7 -6 3 -0.00458389474079012871 0.0177462641149759293 -0.00482736341655254364
7 -5 3 0.0169702395796775818 0.179411590099334717 0.0199712496250867844
7 -4 3 0.00800089817494153976 0.0204688683152198792 0.0176453758031129837
7 -3 3 0.0144880199804902077 0.218579396605491638 -0.0144245000556111336
7 -2 3 -0.0229822825640439987 0.0132577866315841675 -0.0145918326452374458
7 -1 3 0.000751607527490705252 0.0510681644082069397 -0.00527714891359210014
7 0 3 -0.0093201957643032074 0.0106042297556996346 -0.0705005750060081482
7 1 3 -0.126996845006942749 -0.00919192936271429062 0.00219582254067063332
7 2 3 -0.0026297436561435461 0.0294201727956533432 0.278110355138778687
7 3 3 0.116023294627666473 0.010123508982360363 0.0286951661109924316
7 4 3 -0.0118918335065245628 0.0191169045865535736 0.258537143468856812
7 5 3 0.179556101560592651 0.0256720017641782761 0.00265345745719969273
7 6 3 0.00831803679466247559 -0.041531641036272049 -0.100313946604728699
7 7 3 -0.101052239537239075 -0.0199675410985946655 -0.0212216172367334366
8 -8 3 0.0346425659954547882 0.0238457154482603073 0.00503915781155228615
8 -7 3 -0.00522579485550522804 -0.0104693276807665825 0.0134306652471423149
8 -6 3 0.00673896400257945061 0.0080867307260632515 -0.00732457917183637619
8 -5 3 0.0102088013663887978 0.00912537425756454468 -0.00441430788487195969
8 -4 3 0.00602759607136249542 -8.78051505424082279e-05 0.0156709272414445877
8 -3 3 0.0228917356580495834 0.0233158115297555923 0.0298385955393314362
8 -2 3 0.000431405118433758616 0.00748982187360525131 -0.0249703340232372284
8 -1 3 -0.00624266732484102249 0.0248292684555053711 0.00632214639335870743
8 0 3 -0.00947532057762145996 0.0342123731970787048 -0.0425070486962795258
8 1 3 0.011183619499206543 -0.00105656147934496403 0.0190540291368961334
8 2 3 0.0210298299789428711 0.0393128134310245514 -0.0100449388846755028
8 3 3 0.0109386006370186806 0.000610676128417253494 0.0203187018632888794
8 4 3 -0.000615548982750624418 0.0135976923629641533 0.0114254439249634743
8 5 3 -0.035264141857624054 -0.0293234400451183319 -0.0222382918000221252
8 6 3 -0.026559857651591301 0.0216546133160591125 -0.0248379446566104889
8 7 3 0.0114142941311001778 -0.0260058995336294174 -0.0130835166200995445
8 8 3 0.0106842843815684319 0.00870380271226167679 0.0162420701235532761
9 -9 3 0.0326608046889305115 0.140655115246772766 0.0254489071667194366
9 -8 3 0.018926817923784256 0.00560857821255922318 0.00833803694695234299
9 -7 3 0.0125234993174672127 0.241954997181892395 -0.00096924550598487258
9 -6 3 -0.0134821366518735886 0.0086031351238489151 -0.000531043100636452436
9 -5 3 -0.0105695957317948341 0.0433412343263626099 -0.0177856460213661194
9 -4 3 -0.0104636875912547112 0.011191418394446373 -0.0108441021293401718
9 -3 3 0.0055123637430369854 0.0843808427453041077 -0.0293255932629108429
9 -2 3 0.00726405205205082893 0.00536347413435578346 -0.00668722158297896385
9 -1 3 -0.000798889901489019394 -0.204896092414855957 -0.00812654662877321243
9 0 3 0.0100035332143306732 0.0071324007585644722 0.212771028280258179
9 1 3 0.017723381519317627 -0.00110689760185778141 0.0077338055707514286
9 2 3 0.00579256145283579826 0.0120399175211787224 0.245890632271766663
9 3 3 -0.205265194177627563 -0.0140916183590888977 -0.0129370586946606636
9 4 3 -0.0029575335793197155 -0.00377278891392052174 -0.255254894495010376
9 5 3 0.104804746806621552 0.013937653973698616 0.0159110222011804581
9 6 3 0.00220281328074634075 0.000160918294568546116 0.0704820603132247925
9 7 3 -0.202382281422615051 -0.0310213547199964523 -0.00169676903169602156
9 8 3 0.00429249368607997894 -0.0195253919810056686 -0.226682290434837341
9 9 3 -0.0960786193609237671 -0.0233233105391263962 -0.00291069177910685539
10 -10 3 -0.000631296192295849323 0.00755891855806112289 0.00849266443401575089
10 -9 3 -0.00907056126743555069 0.00493770278990268707 -0.0118946023285388947
10 -8 3 0.00810337532311677933 -0.00581599818542599678 0.00293142604641616344
10 -7 3 0.0235506538301706314 0.00724075548350811005 0.0298254955559968948
10 -6 3 0.00475990446284413338 0.016977209597826004 0.00223025842569768429
10 -5 3 0.0017085227882489562 -0.00335756363347172737 0.0151385953649878502
10 -4 3 -0.0106882704421877861 -0.000387949286960065365 0.00380758568644523621
10 -3 3 -0.00792283657938241959 -0.016588166356086731 -0.0149759873747825623
10 -2 3 -0.012215818278491497 -0.0119891706854104996 0.0263805445283651352
10 -1 3 0.0084397047758102417 -0.00493197515606880188 0.00175801664590835571
10 0 3 0.669179916381835938 0.673442542552947998 0.705528438091278076
10 1 3 0.0127707887440919876 0.00943728908896446228 0.00644394010305404663
10 2 3 0.762497127056121826 0.808902502059936523 0.773702561855316162
10 3 3 -0.00808989722281694412 -0.00432502711191773415 -0.0105354748666286469
10 4 3 -0.928983747959136963 -0.91948777437210083 -0.952746808528900146
10 5 3 0.0101377889513969421 0.0114785796031355858 0.0140617284923791885
10 6 3 0.144664794206619263 0.170105665922164917 0.155736580491065979
10 7 3 0.00957647431641817093 -0.00209069997072219849 0.0177848394960165024
10 8 3 -1.11154496669769287 -1.09427368640899658 -1.14527177810668945
10 9 3 -0.00492745405063033104 0.00180418440140783787 -0.0106572089716792107
10 10 3 -0.521297276020050049 -0.497614532709121704 -0.563946306705474854
0.262865602970123291 0.951056480407714844 0.162459895014762878 151 182 152 255
0.525731086730957031 0.850650787353515625 0 161 179 137 255
0.262865602970123291 0.951056480407714844 -0.162459895014762878 150 184 121 255
0 1 0 138 187 138 255
0.5 0.809017002582550049 0.309017002582550049 158 175 159 255
0.5 0.809017002582550049 -0.309017002582550049 159 176 106 255
0 0.961938321590423584 -0.273266613483428955 136 183 109 255
0.259891897439956665 0.862668514251708984 -0.433888614177703857 148 176 92 255
0 0.850650787353515625 -0.525731086730957031 133 172 81 255
0.259891897439956665 0.862668514251708984 0.433888614177703857 148 176 168 255
0 0.961938321590423584 0.273266613483428955 139 182 162 255
0 0.850650787353515625 0.525731086730957031 137 174 174 255
0.702046394348144531 0.693780481815338135 -0.160622000694274902 168 173 121 255
0.702046394348144531 0.693780481815338135 0.160622000694274902 166 173 147 255
0.850650787353515625 0.525731086730957031 0 173 166 133 255
-0.262865602970123291 0.951056480407714844 -0.162459895014762878 119 185 119 255
-0.525731086730957031 0.850650787353515625 0 96 171 134 255
-0.262865602970123291 0.951056480407714844 0.162459895014762878 122 183 153 255
-0.5 0.809017002582550049 -0.309017002582550049 93 163 98 255
-0.5 0.809017002582550049 0.309017002582550049 101 170 163 255
-0.259891897439956665 0.862668514251708984 0.433888614177703857 123 174 172 255
-0.259891897439956665 0.862668514251708984 -0.433888614177703857 114 172 87 255
-0.702046394348144531 0.693780481815338135 0.160622000694274902 85 160 145 255
-0.702046394348144531 0.693780481815338135 -0.160622000694274902 78 155 109 255
-0.850650787353515625 0.525731086730957031 0 72 148 120 255
0.262865602970123291 -0.951056480407714844 -0.162459895014762878 139 60 117 255
0.525731086730957031 -0.850650787353515625 0 151 63 128 255
0.262865602970123291 -0.951056480407714844 0.162459895014762878 138 61 146 255
0 -1 0 122 58 129 255
0.5 -0.809017002582550049 -0.309017002582550049 150 69 107 255
0.5 -0.809017002582550049 0.309017002582550049 147 69 158 255
0 -0.961938321590423584 0.273266613483428955 123 63 152 255
0.259891897439956665 -0.862668514251708984 0.433888614177703857 136 69 166 255
0 -0.850650787353515625 0.525731086730957031 124 70 171 255
0.259891897439956665 -0.862668514251708984 -0.433888614177703857 138 70 98 255
0 -0.961938321590423584 -0.273266613483428955 123 64 109 255
0 -0.850650787353515625 -0.525731086730957031 124 72 92 255
0.702046394348144531 -0.693780481815338135 0.160622000694274902 158 75 141 255
0.702046394348144531 -0.693780481815338135 -0.160622000694274902 161 76 116 255
0.850650787353515625 -0.525731086730957031 0 169 88 126 255
-0.262865602970123291 -0.951056480407714844 0.162459895014762878 109 61 142 255
-0.525731086730957031 -0.850650787353515625 0 96 67 126 255
-0.262865602970123291 -0.951056480407714844 -0.162459895014762878 110 64 115 255
-0.5 -0.809017002582550049 0.309017002582550049 97 69 150 255
-0.5 -0.809017002582550049 -0.309017002582550049 100 72 105 255
-0.259891897439956665 -0.862668514251708984 -0.433888614177703857 111 71 99 255
-0.259891897439956665 -0.862668514251708984 0.433888614177703857 110 67 161 255
-0.702046394348144531 -0.693780481815338135 -0.160622000694274902 88 77 113 255
-0.702046394348144531 -0.693780481815338135 0.160622000694274902 85 76 137 255
-0.850650787353515625 -0.525731086730957031 0 77 86 123 255
0.951056480407714844 -0.162459895014762878 -0.262865602970123291 180 117 105 255
0.850650787353515625 0 -0.525731086730957031 176 133 80 255
0.951056480407714844 0.162459895014762878 -0.262865602970123291 183 144 106 255
1 0 0 186 133 129 255
0.809017002582550049 -0.309017002582550049 -0.5 168 104 87 255
0.809017002582550049 0.309017002582550049 -0.5 174 151 84 255
0.961938321590423584 0.273266613483428955 0 182 151 131 255
0.862668514251708984 0.433888614177703857 -0.259891897439956665 176 160 108 255
0.862668514251708984 -0.433888614177703857 -0.259891897439956665 171 94 108 255
0.961938321590423584 -0.273266613483428955 0 178 108 127 255
0.693780481815338135 0.160622000694274902 -0.702046394348144531 164 141 66 255
0.693780481815338135 -0.160622000694274902 -0.702046394348144531 163 118 71 255
0.525731086730957031 0 -0.850650787353515625 154 130 58 255
0.951056480407714844 0.162459895014762878 0.262865602970123291 181 147 154 255
0.850650787353515625 0 0.525731086730957031 172 138 176 255
0.951056480407714844 -0.162459895014762878 0.262865602970123291 180 122 152 255
0.809017002582550049 0.309017002582550049 0.5 167 156 173 255
0.809017002582550049 -0.309017002582550049 0.5 167 114 174 255
0.862668514251708984 -0.433888614177703857 0.259891897439956665 170 99 152 255
0.862668514251708984 0.433888614177703857 0.259891897439956665 171 162 155 255
0.693780481815338135 -0.160622000694274902 0.702046394348144531 161 127 187 255
0.693780481815338135 0.160622000694274902 0.702046394348144531 161 150 188 255
0.525731086730957031 0 0.850650787353515625 153 140 194 255
-0.951056480407714844 -0.162459895014762878 0.262865602970123291 66 112 142 255
-0.850650787353515625 0 0.525731086730957031 74 129 169 255
-0.951056480407714844 0.162459895014762878 0.262865602970123291 66 132 144 255
-1 0 0 61 124 119 255
-0.809017002582550049 -0.309017002582550049 0.5 78 103 163 255
-0.809017002582550049 0.309017002582550049 0.5 81 145 169 255
-0.961938321590423584 0.273266613483428955 0 64 135 117 255
-0.862668514251708984 0.433888614177703857 0.259891897439956665 75 147 149 255
-0.862668514251708984 -0.433888614177703857 0.259891897439956665 73 92 142 255
-0.961938321590423584 -0.273266613483428955 0 66 103 122 255
-0.693780481815338135 0.160622000694274902 0.702046394348144531 90 141 183 255
-0.693780481815338135 -0.160622000694274902 0.702046394348144531 88 119 181 255
-0.525731086730957031 0 0.850650787353515625 102 135 193 255
-0.951056480407714844 0.162459895014762878 -0.262865602970123291 66 133 96 255
-0.850650787353515625 0 -0.525731086730957031 73 127 79 255
-0.951056480407714844 -0.162459895014762878 -0.262865602970123291 66 113 101 255
-0.809017002582550049 0.309017002582550049 -0.5 77 139 80 255
-0.809017002582550049 -0.309017002582550049 -0.5 80 101 87 255
-0.862668514251708984 -0.433888614177703857 -0.259891897439956665 77 91 105 255
-0.862668514251708984 0.433888614177703857 -0.259891897439956665 69 141 96 255
-0.693780481815338135 -0.160622000694274902 -0.702046394348144531 88 114 72 255
-0.693780481815338135 0.160622000694274902 -0.702046394348144531 86 135 69 255
-0.525731086730957031 0 -0.850650787353515625 98 127 62 255
-0.162459895014762878 -0.262865602970123291 0.951056480407714844 122 117 197 255
0 -0.525731086730957031 0.850650787353515625 129 99 191 255
0.162459895014762878 -0.262865602970123291 0.951056480407714844 138 119 197 255
0 0 1 131 138 200 255
-0.309017002582550049 -0.5 0.809017002582550049 113 97 188 255
0.309017002582550049 -0.5 0.809017002582550049 141 103 190 255
0.273266613483428955 0 0.961938321590423584 143 140 199 255
0.433888614177703857 -0.259891897439956665 0.862668514251708984 148 120 193 255
-0.433888614177703857 -0.259891897439956665 0.862668514251708984 106 115 192 255
-0.273266613483428955 0 0.961938321590423584 117 137 199 255
0.160622000694274902 -0.702046394348144531 0.693780481815338135 133 86 183 255
-0.160622000694274902 -0.702046394348144531 0.693780481815338135 118 83 181 255
0.162459895014762878 0.262865602970123291 0.951056480407714844 139 151 194 255
0 0.525731086730957031 0.850650787353515625 133 159 189 255
-0.162459895014762878 0.262865602970123291 0.951056480407714844 125 149 196 255
0.309017002582550049 0.5 0.809017002582550049 145 160 186 255
-0.309017002582550049 0.5 0.809017002582550049 118 157 189 255
-0.433888614177703857 0.259891897439956665 0.862668514251708984 110 148 192 255
0.433888614177703857 0.259891897439956665 0.862668514251708984 148 152 190 255
-0.160622000694274902 0.702046394348144531 0.693780481815338135 128 165 183 255
0.160622000694274902 0.702046394348144531 0.693780481815338135 142 167 180 255
-0.162459895014762878 0.262865602970123291 -0.951056480407714844 116 140 53 255
0 0.525731086730957031 -0.850650787353515625 126 154 58 255
0.162459895014762878 0.262865602970123291 -0.951056480407714844 133 141 52 255
0 0 -1 124 129 51 255
-0.309017002582550049 0.5 -0.809017002582550049 107 149 61 255
0.309017002582550049 0.5 -0.809017002582550049 144 156 60 255
0.273266613483428955 0 -0.961938321590423584 139 129 52 255
0.433888614177703857 0.259891897439956665 -0.862668514251708984 149 143 57 255
-0.433888614177703857 0.259891897439956665 -0.862668514251708984 102 140 59 255
-0.273266613483428955 0 -0.961938321590423584 111 128 54 255
0.160622000694274902 0.702046394348144531 -0.693780481815338135 140 165 68 255
-0.160622000694274902 0.702046394348144531 -0.693780481815338135 119 160 65 255
0.162459895014762878 -0.262865602970123291 -0.951056480407714844 131 111 60 255
0 -0.525731086730957031 -0.850650787353515625 123 95 71 255
-0.162459895014762878 -0.262865602970123291 -0.951056480407714844 116 111 61 255
0.309017002582550049 -0.5 -0.809017002582550049 138 95 72 255
-0.309017002582550049 -0.5 -0.809017002582550049 109 96 73 255
-0.433888614177703857 -0.259891897439956665 -0.862668514251708984 104 110 66 255
0.433888614177703857 -0.259891897439956665 -0.862668514251708984 146 111 64 255
-0.160622000694274902 -0.702046394348144531 -0.693780481815338135 116 83 82 255
0.160622000694274902 -0.702046394348144531 -0.693780481815338135 132 82 82 255
0.587785303592681885 0.425325393676757812 0.688190877437591553 155 160 182 255
0.688190877437591553 0.587785303592681885 0.425325393676757812 162 167 167 255
0.425325393676757812 0.688190877437591553 0.587785303592681885 152 168 176 255
-0.688190877437591553 0.587785303592681885 0.425325393676757812 89 158 167 255
-0.587785303592681885 0.425325393676757812 0.688190877437591553 99 154 183 255
-0.425325393676757812 0.688190877437591553 0.587785303592681885 109 165 178 255
0.688190877437591553 0.587785303592681885 -0.425325393676757812 167 166 94 255
0.587785303592681885 0.425325393676757812 -0.688190877437591553 159 154 68 255
0.425325393676757812 0.688190877437591553 -0.587785303592681885 153 167 76 255
-0.587785303592681885 0.425325393676757812 -0.688190877437591553 91 143 68 255
-0.688190877437591553 0.587785303592681885 -0.425325393676757812 80 146 84 255
-0.425325393676757812 0.688190877437591553 -0.587785303592681885 98 154 70 255
0.688190877437591553 -0.587785303592681885 0.425325393676757812 158 88 168 255
0.587785303592681885 -0.425325393676757812 0.688190877437591553 154 108 186 255
0.425325393676757812 -0.688190877437591553 0.587785303592681885 143 84 178 255
-0.587785303592681885 -0.425325393676757812 0.688190877437591553 94 97 177 255
-0.688190877437591553 -0.587785303592681885 0.425325393676757812 86 82 156 255
-0.425325393676757812 -0.688190877437591553 0.587785303592681885 102 78 170 255
0.587785303592681885 -0.425325393676757812 -0.688190877437591553 153 97 77 255
0.688190877437591553 -0.587785303592681885 -0.425325393676757812 161 82 97 255
0.425325393676757812 -0.688190877437591553 -0.587785303592681885 145 80 87 255
-0.688190877437591553 -0.587785303592681885 -0.425325393676757812 90 84 97 255
-0.587785303592681885 -0.425325393676757812 -0.688190877437591553 96 97 80 255
-0.425325393676757812 -0.688190877437591553 -0.587785303592681885 104 82 89 255
