ply
format ascii 1.0
element sh_coefficients 144
property uchar l
property char m
property list uchar float coefficients
element vertex 162
property float x
property float y
property float z
property uchar red
property uchar green
property uchar blue
property uchar alpha
end_header
0 0 3 1.75121641159057617 1.7422250509262085 1.77962040901184082
1 -1 3 0.0323000475764274597 0.5001792311668396 -0.00293550314381718636
1 0 3 0.0142825236544013023 0.0307566709816455841 0.627135634422302246
1 1 3 0.452611923217773438 0.0413743294775485992 0.0256406441330909729
2 -2 3 0.0182652957737445831 0.023481566458940506 0.000787559198215603828
2 -1 3 0.0102017801254987717 0.00720929820090532303 0.0320601686835289001
2 0 3 0.00974199268966913223 0.0390174649655818939 -0.0125543829053640366
2 1 3 -0.0123422499746084213 0.00490045733749866486 0.0077841784805059433
2 2 3 -0.026119353249669075 0.0259497519582509995 -0.0269473288208246231
3 -3 3 -0.0166708715260028839 0.0105972848832607269 -0.00401931628584861755
3 -2 3 -0.0142552722245454788 -0.0146934306249022484 -0.0166637040674686432
3 -1 3 -0.00168989493977278471 -0.0170166920870542526 -0.0289448853582143784
3 0 3 0.00964216701686382294 0.00500914454460144043 -0.0316109433770179749
3 1 3 -0.0219282656908035278 -0.000552970159333199263 -0.0131297837942838669
3 2 3 -0.00797888170927762985 0.0103021711111068726 0.00941304862499237061
3 3 3 0.0124394865706562996 0.00397041905671358109 0.00228852499276399612
4 -4 3 -0.00069996219826862216 0.00468503497540950775 0.00559745961800217628
4 -3 3 0.001060646609403193 0.00168091524392366409 0.00491570588201284409
4 -2 3 -0.00119561178144067526 -0.00457949237897992134 -0.00603328133001923561
4 -1 3 -0.00501433433964848518 -0.00192867300938814878 -0.00667014392092823982
4 0 3 0.00146827986463904381 0.00472125550732016563 -0.000947649066802114248
4 1 3 0.00172428518999367952 0.000927050074096769094 0.000711512810084968805
4 2 3 0.00168109196238219738 0.0145627511665225029 0.0100043853744864464
4 3 3 0.00525595853105187416 0.00377585925161838531 0.00532574579119682312
4 4 3 0.0118300728499889374 0.0199271496385335922 -0.000598475045990198851
5 -5 3 0.00707297911867499352 0.00434562424197793007 -0.00103884132113307714
5 -4 3 -0.00161900743842124939 0.000784493051469326019 0.00199458911083638668
5 -3 3 0.000500345020554959774 0.00662419572472572327 0.00170883024111390114
5 -2 3 0.000797892571426928043 0.00119125645142048597 0.00580838415771722794
5 -1 3 -0.00112731382250785828 0.00442278012633323669 0.0069129294715821743
5 0 3 0.00066878035431727767 -0.00117818184662610292 0.00660887686535716057
5 1 3 -6.37532793916761875e-05 -0.00286764465272426605 -0.00151234655641019344
5 2 3 -0.00271462835371494293 0.000334840093273669481 0.00698225805535912514
5 3 3 0.00133844546508044004 -0.00469682971015572548 -0.00180561945307999849
5 4 3 0.000977575895376503468 -0.00469702016562223434 0.00428829202428460121
5 5 3 0.00760289095342159271 -0.00723771797493100166 -0.000881596351973712444
6 -6 3 -0.00399943767115473747 -0.00346940499730408192 0.000105244245787616819
6 -5 3 -0.00348333013243973255 -0.0038170977495610714 -0.000281253567663952708
6 -4 3 -0.00260739517398178577 -0.00275658466853201389 -0.00346835842356085777
6 -3 3 -0.000432145810918882489 -0.000147938408190384507 -0.00156463240273296833
6 -2 3 -0.000806358060799539089 0.000206433600396849215 0.00204862328246235847
6 -1 3 0.00126402487512677908 0.000501885137055069208 -7.49909013393335044e-05
6 0 3 -0.000895123928785324097 -0.000444542703917250037 0.00022061722120270133
6 1 3 -0.000158090319018810987 -0.000116850038466509432 -0.00369467027485370636
6 2 3 0.000558205880224704742 0.00015351928595919162 -0.00344448722898960114
6 3 3 -0.000295230507617816329 -0.00213063717819750309 -0.000558731495402753353
6 4 3 0.00158171996008604765 0.00494567491114139557 -0.00137544702738523483
6 5 3 -0.000128281040815636516 0.00227969884872436523 -0.000410092703532427549
6 6 3 -0.000273379555437713861 0.0027916724793612957 0.000226464107981882989
7 -7 3 0.000242175461607985198 0.00170619983691722155 -0.000385120423743501306
7 -6 3 0.000226512784138321877 0.00225826958194375038 0.000402067962568253279
7 -5 3 0.000927436631172895432 0.00227584340609610081 0.0024806903675198555
7 -4 3 0.000584634835831820965 0.00142540049273520708 0.00117291952483355999
7 -3 3 0.000176263667526654899 -0.000673403206747025251 -0.000622116669546812773
7 -2 3 -0.00102743157185614109 0.0019611394964158535 -0.000110057044366840273
7 -1 3 -0.000600597646553069353 3.20553735946305096e-05 -0.00174460676498711109
7 0 3 -0.000906599278096109629 0.0014317856403067708 0.00266103236936032772
7 1 3 0.00178684026468545198 0.000308411195874214172 0.000820301414933055639
7 2 3 -0.00138199992943555117 0.00105299556162208319 -0.000656166695989668369
7 3 3 -0.000105060040368698537 0.000494232517667114735 0.00185623648576438427
7 4 3 -0.00083168660057708621 0.000604077649768441916 0.00202184123918414116
7 5 3 0.00159956200513988733 0.00102045375388115644 -0.000419048999901860952
7 6 3 0.000568099028896540403 -0.00295158312655985355 0.00183675438165664673
7 7 3 0.00427652942016720772 -0.000119397285743616521 -0.000789558282122015953
8 -8 3 0.00284707872197031975 0.00194287160411477089 0.000380380428396165371
8 -7 3 -0.000615928147453814745 -0.000998890609480440617 0.000383853679522871971
8 -6 3 -0.000621903047431260347 -0.000400655204430222511 -0.000162359385285526514
8 -5 3 0.00044641669956035912 0.00026960638933815062 -0.00130236940458416939
8 -4 3 0.000192273641005158424 -0.000196046690689399838 0.00126421905588358641
8 -3 3 0.00145655067171901464 0.00124958681408315897 0.000815029488876461983
8 -2 3 -0.000111999361251946539 0.000451845611678436399 -0.00166654982604086399
8 -1 3 -0.000206509939744137228 0.00217764195986092091 0.00149474607314914465
8 0 3 -0.00026284513296559453 0.00122857105452567339 -0.0020698073785752058
8 1 3 0.000365351035725325346 -8.38589112390764058e-05 0.00167489703744649887
8 2 3 0.00108985800761729479 0.00217044074088335037 -0.000249223376158624887
8 3 3 0.000573579047340899706 5.13178856635931879e-05 0.00167590251658111811
8 4 3 0.000419469812186434865 -0.000499072892125695944 0.00145424355287104845
8 5 3 -0.00218074326403439045 -0.00241071241907775402 -0.00205235555768013
8 6 3 -0.00230289739556610584 0.00205874675884842873 -0.0024045286700129509
8 7 3 0.000450441497378051281 -0.00170278758741915226 -0.000519349647220224142
8 8 3 -0.000297549180686473846 0.00240638712421059608 -0.000632903247606009245
9 -9 3 0.0012766494182869792 -0.00129069352988153696 0.000670453766360878944
9 -8 3 0.00147866702172905207 0.000240785695496015251 0.000528673699591308832
9 -7 3 0.000166270503541454673 0.000267296942183747888 -1.40867914524278603e-05
9 -6 3 -0.000260357017396017909 0.00181371730286628008 0.000898134661838412285
9 -5 3 -0.000958337797783315182 0.000706014630850404501 -0.00125751399900764227
9 -4 3 -0.000617554818745702505 0.00121006718836724758 -0.000534783641342073679
9 -3 3 0.000421704637119546533 0.000703691795933991671 -0.000706662074662744999
9 -2 3 0.000284962996374815702 -9.23733095987699926e-05 -0.00102272629737854004
9 -1 3 0.0010252874344587326 0.00115207384806126356 -0.000757120724301785231
9 0 3 0.000363714410923421383 -0.000286595546640455723 0.000777628622017800808
9 1 3 0.000308260234305635095 -7.01033559380448423e-06 0.000292408833047375083
9 2 3 -0.00083959952462464571 0.000102681522548664361 0.00311866961419582367
9 3 3 0.000512121012434363365 5.02456459798850119e-05 -9.97182905848603696e-06
9 4 3 0.000233474769629538059 0.000798893510363996029 0.000735042209271341562
9 5 3 0.000925407104659825563 3.46372471540234983e-05 0.000831811514217406511
9 6 3 0.000310801027808338404 -0.000122220502817071974 0.00183023465797305107
9 7 3 0.00158047978766262531 -0.000960353587288409472 0.000872957054525613785
9 8 3 0.000274324673227965832 -0.000718211696948856115 -0.00033686542883515358
9 9 3 0.00099774007685482502 -0.000980865675956010818 0.000372929003788158298
10 -10 3 -0.000332876312313601375 0.000311620213324204087 0.000773187377490103245
10 -9 3 -0.000526413321495056152 0.000544489012099802494 -0.000132475761347450316
10 -8 3 0.000927499379031360149 -0.000214052983210422099 9.6223207947332412e-05
10 -7 3 0.00136189884506165981 0.000358126475475728512 0.00123777124099433422
10 -6 3 0.000138965639052912593 0.00112692697439342737 0.000169716775417327881
10 -5 3 0.000466313067590817809 0.00019592710305005312 0.00172565714456140995
10 -4 3 -0.000793664716184139252 -2.04627122002420947e-05 0.000445861020125448704
10 -3 3 -0.000691938446834683418 -0.00129794701933860779 -0.00153434905223548412
10 -2 3 -0.000320695311529561877 -0.000228985547437332571 0.00154384097550064325
10 -1 3 0.000751428480725735426 -0.000296428974252194166 0.000185482524102553725
10 0 3 0.000202673705643974245 0.00192309101112186909 0.00181144406087696552
10 1 3 0.000986214377917349339 0.000588539638556540012 0.000335003656800836325
10 2 3 -0.000130707223434001207 0.00281971530057489872 0.000485253054648637772
10 3 3 -0.000593414588365703821 -0.00014489390014205128 -0.000647165055852383375
10 4 3 0.000234358973102644086 0.00150670332368463278 -0.000432734639616683125
10 5 3 0.000667733314912766218 0.000986539176665246487 0.00122563866898417473
10 6 3 0.000160033654537983239 0.000738880422431975603 0.000934797630179673433
10 7 3 0.000266557268332690001 -0.000474010012112557888 0.00133469502907246351
10 8 3 7.82201532274484634e-05 0.000285201414953917265 0.000122535828268155456
10 9 3 -0.000650623929686844349 0.000530384364537894726 -0.00046127461246214807
10 10 3 0.00217506987974047661 0.00335486698895692825 -8.31377983558923006e-05
11 -11 3 0.000309023511363193393 0.000632306851912289858 -0.000528582138940691948
11 -10 3 0.000948601402342319489 0.000465005869045853615 0.000144838981213979423
11 -9 3 -0.000839351268950849771 0.00055666378466412425 -0.000293427496217191219
11 -8 3 0.000333114963723346591 0.000342759740306064487 0.00151582283433526754
11 -7 3 -0.00037862910539843142 0.000445211015176028013 0.000623200205154716969
11 -6 3 0.00078961614053696394 -0.000473276508273556828 0.000546645140275359154
11 -5 3 -0.000121432094601914287 -0.000340474070981144905 0.000315868703182786703
11 -4 3 -0.000234662467846646905 -0.000511887774337083101 -0.000445918092736974359
11 -3 3 0.00108588975854218006 -0.00144739274401217699 -0.000415669754147529602
11 -2 3 -0.000429772684583440423 -0.000131929511553607881 -0.000319994171150028706
11 -1 3 0.000202975337742827833 -0.00167928636074066162 -0.000544889771845191717
11 0 3 -0.00029734385316260159 -0.000661404163111001253 -0.000652110844384878874
11 1 3 0.000301558815408498049 0.00116503576282411814 0.000735113746486604214
11 2 3 0.000363810278940945864 0.000366843654774129391 0.000426691112807020545
11 3 3 0.000494402076583355665 0.000108479041955433786 -0.000297312013572081923
11 4 3 6.46418266114778817e-05 -0.000317324185743927956 0.000792478502262383699
11 5 3 -0.000472941639600321651 0.000534174323547631502 -0.000632868206594139338
11 6 3 0.000501729431562125683 0.000186798075446859002 0.00107435882091522217
11 7 3 0.000636894605122506618 0.000361936778062954545 -0.000813363119959831238
11 8 3 -0.000226492644287645817 0.000333999894792214036 0.00187696225475519896
11 9 3 0.000926036911550909281 1.61339303303975612e-05 -0.000517809239681810141
11 10 3 6.28820707788690925e-05 -0.00144426070619374514 0.000164044846314936876
11 11 3 0.000502045382745563984 -0.000179321854375302792 0.000138503877678886056
0.262865602970123291 0.951056480407714844 0.162459895014762878 151 182 152 255
0.525731086730957031 0.850650787353515625 0 161 179 137 255
0.262865602970123291 0.951056480407714844 -0.162459895014762878 150 184 121 255
0 1 0 138 187 138 255
0.5 0.809017002582550049 0.309017002582550049 158 175 159 255
0.5 0.809017002582550049 -0.309017002582550049 159 176 106 255
0 0.961938321590423584 -0.273266613483428955 136 183 109 255
0.259891897439956665 0.862668514251708984 -0.433888614177703857 148 176 92 255
0 0.850650787353515625 -0.525731086730957031 133 172 81 255
0.259891897439956665 0.862668514251708984 0.433888614177703857 148 176 168 255
0 0.961938321590423584 0.273266613483428955 139 182 162 255
0 0.850650787353515625 0.525731086730957031 137 174 174 255
0.702046394348144531 0.693780481815338135 -0.160622000694274902 168 173 121 255
0.702046394348144531 0.693780481815338135 0.160622000694274902 166 173 147 255
0.850650787353515625 0.525731086730957031 0 173 166 133 255
-0.262865602970123291 0.951056480407714844 -0.162459895014762878 119 185 119 255
-0.525731086730957031 0.850650787353515625 0 96 171 134 255
-0.262865602970123291 0.951056480407714844 0.162459895014762878 122 183 153 255
-0.5 0.809017002582550049 -0.309017002582550049 93 163 98 255
-0.5 0.809017002582550049 0.309017002582550049 101 170 163 255
-0.259891897439956665 0.862668514251708984 0.433888614177703857 123 174 172 255
-0.259891897439956665 0.862668514251708984 -0.433888614177703857 114 172 87 255
-0.702046394348144531 0.693780481815338135 0.160622000694274902 85 160 145 255
-0.702046394348144531 0.693780481815338135 -0.160622000694274902 78 155 109 255
-0.850650787353515625 0.525731086730957031 0 72 148 120 255
0.262865602970123291 -0.951056480407714844 -0.162459895014762878 139 60 117 255
0.525731086730957031 -0.850650787353515625 0 151 63 128 255
0.262865602970123291 -0.951056480407714844 0.162459895014762878 138 61 146 255
0 -1 0 122 58 129 255
0.5 -0.809017002582550049 -0.309017002582550049 150 69 107 255
0.5 -0.809017002582550049 0.309017002582550049 147 69 158 255
0 -0.961938321590423584 0.273266613483428955 123 63 152 255
0.259891897439956665 -0.862668514251708984 0.433888614177703857 136 69 166 255
0 -0.850650787353515625 0.525731086730957031 124 70 171 255
0.259891897439956665 -0.862668514251708984 -0.433888614177703857 138 70 98 255
0 -0.961938321590423584 -0.273266613483428955 123 64 109 255
0 -0.850650787353515625 -0.525731086730957031 124 72 92 255
0.702046394348144531 -0.693780481815338135 0.160622000694274902 158 75 141 255
0.702046394348144531 -0.693780481815338135 -0.160622000694274902 161 76 116 255
0.850650787353515625 -0.525731086730957031 0 169 88 126 255
-0.262865602970123291 -0.951056480407714844 0.162459895014762878 109 61 142 255
-0.525731086730957031 -0.850650787353515625 0 96 67 126 255
-0.262865602970123291 -0.951056480407714844 -0.162459895014762878 110 64 115 255
-0.5 -0.809017002582550049 0.309017002582550049 97 69 150 255
-0.5 -0.809017002582550049 -0.309017002582550049 100 72 105 255
-0.259891897439956665 -0.862668514251708984 -0.433888614177703857 111 71 99 255
-0.259891897439956665 -0.862668514251708984 0.433888614177703857 110 67 161 255
-0.702046394348144531 -0.693780481815338135 -0.160622000694274902 88 77 113 255
-0.702046394348144531 -0.693780481815338135 0.160622000694274902 85 76 137 255
-0.850650787353515625 -0.525731086730957031 0 77 86 123 255
0.951056480407714844 -0.162459895014762878 -0.262865602970123291 180 117 105 255
0.850650787353515625 0 -0.525731086730957031 176 133 80 255
0.951056480407714844 0.162459895014762878 -0.262865602970123291 183 144 106 255
1 0 0 186 133 129 255
0.809017002582550049 -0.309017002582550049 -0.5 168 104 87 255
0.809017002582550049 0.309017002582550049 -0.5 174 151 84 255
0.961938321590423584 0.273266613483428955 0 182 151 131 255
0.862668514251708984 0.433888614177703857 -0.259891897439956665 176 160 108 255
0.862668514251708984 -0.433888614177703857 -0.259891897439956665 171 94 108 255
0.961938321590423584 -0.273266613483428955 0 178 108 127 255
0.693780481815338135 0.160622000694274902 -0.702046394348144531 164 141 66 255
0.693780481815338135 -0.160622000694274902 -0.702046394348144531 163 118 71 255
0.525731086730957031 0 -0.850650787353515625 154 130 58 255
0.951056480407714844 0.162459895014762878 0.262865602970123291 181 147 154 255
0.850650787353515625 0 0.525731086730957031 172 138 176 255
0.951056480407714844 -0.162459895014762878 0.262865602970123291 180 122 152 255
0.809017002582550049 0.309017002582550049 0.5 167 156 173 255
0.809017002582550049 -0.309017002582550049 0.5 167 114 174 255
0.862668514251708984 -0.433888614177703857 0.259891897439956665 170 99 152 255
0.862668514251708984 0.433888614177703857 0.259891897439956665 171 162 155 255
0.693780481815338135 -0.160622000694274902 0.702046394348144531 161 127 187 255
0.693780481815338135 0.160622000694274902 0.702046394348144531 161 150 188 255
0.525731086730957031 0 0.850650787353515625 153 140 194 255
-0.951056480407714844 -0.162459895014762878 0.262865602970123291 66 112 142 255
-0.850650787353515625 0 0.525731086730957031 74 129 169 255
-0.951056480407714844 0.162459895014762878 0.262865602970123291 66 132 144 255
-1 0 0 61 124 119 255
-0.809017002582550049 -0.309017002582550049 0.5 78 103 163 255
-0.809017002582550049 0.309017002582550049 0.5 81 145 169 255
-0.961938321590423584 0.273266613483428955 0 64 135 117 255
-0.862668514251708984 0.433888614177703857 0.259891897439956665 75 147 149 255
-0.862668514251708984 -0.433888614177703857 0.259891897439956665 73 92 142 255
-0.961938321590423584 -0.273266613483428955 0 66 103 122 255
-0.693780481815338135 0.160622000694274902 0.702046394348144531 90 141 183 255
-0.693780481815338135 -0.160622000694274902 0.702046394348144531 88 119 181 255
-0.525731086730957031 0 0.850650787353515625 102 135 193 255
-0.951056480407714844 0.162459895014762878 -0.262865602970123291 66 133 96 255
-0.850650787353515625 0 -0.525731086730957031 73 127 79 255
-0.951056480407714844 -0.162459895014762878 -0.262865602970123291 66 113 101 255
-0.809017002582550049 0.309017002582550049 -0.5 77 139 80 255
-0.809017002582550049 -0.309017002582550049 -0.5 80 101 87 255
-0.862668514251708984 -0.433888614177703857 -0.259891897439956665 77 91 105 255
-0.862668514251708984 0.433888614177703857 -0.259891897439956665 69 141 96 255
-0.693780481815338135 -0.160622000694274902 -0.702046394348144531 88 114 72 255
-0.693780481815338135 0.160622000694274902 -0.702046394348144531 86 135 69 255
-0.525731086730957031 0 -0.850650787353515625 98 127 62 255
-0.162459895014762878 -0.262865602970123291 0.951056480407714844 122 117 197 255
0 -0.525731086730957031 0.850650787353515625 129 99 191 255
0.162459895014762878 -0.262865602970123291 0.951056480407714844 138 119 197 255
0 0 1 131 138 200 255
-0.309017002582550049 -0.5 0.809017002582550049 113 97 188 255
0.309017002582550049 -0.5 0.809017002582550049 141 103 190 255
0.273266613483428955 0 0.961938321590423584 143 140 199 255
0.433888614177703857 -0.259891897439956665 0.862668514251708984 148 120 193 255
-0.433888614177703857 -0.259891897439956665 0.862668514251708984 106 115 192 255
-0.273266613483428955 0 0.961938321590423584 117 137 199 255
0.160622000694274902 -0.702046394348144531 0.693780481815338135 133 86 183 255
-0.160622000694274902 -0.702046394348144531 0.693780481815338135 118 83 181 255
0.162459895014762878 0.262865602970123291 0.951056480407714844 139 151 194 255
0 0.525731086730957031 0.850650787353515625 133 159 189 255
-0.162459895014762878 0.262865602970123291 0.951056480407714844 125 149 196 255
0.309017002582550049 0.5 0.809017002582550049 145 160 186 255
-0.309017002582550049 0.5 0.809017002582550049 118 157 189 255
-0.433888614177703857 0.259891897439956665 0.862668514251708984 110 148 192 255
0.433888614177703857 0.259891897439956665 0.862668514251708984 148 152 190 255
-0.160622000694274902 0.702046394348144531 0.693780481815338135 128 165 183 255
0.160622000694274902 0.702046394348144531 0.693780481815338135 142 167 180 255
-0.162459895014762878 0.262865602970123291 -0.951056480407714844 116 140 53 255
0 0.525731086730957031 -0.850650787353515625 126 154 58 255
0.162459895014762878 0.262865602970123291 -0.951056480407714844 133 141 52 255
0 0 -1 124 129 51 255
-0.309017002582550049 0.5 -0.809017002582550049 107 149 61 255
0.309017002582550049 0.5 -0.809017002582550049 144 156 60 255
0.273266613483428955 0 -0.961938321590423584 139 129 52 255
0.433888614177703857 0.259891897439956665 -0.862668514251708984 149 143 57 255
-0.433888614177703857 0.259891897439956665 -0.862668514251708984 102 140 59 255
-0.273266613483428955 0 -0.961938321590423584 111 128 54 255
0.160622000694274902 0.702046394348144531 -0.693780481815338135 140 165 68 255
-0.160622000694274902 0.702046394348144531 -0.693780481815338135 119 160 65 255
0.162459895014762878 -0.262865602970123291 -0.951056480407714844 131 111 60 255
0 -0.525731086730957031 -0.850650787353515625 123 95 71 255
-0.162459895014762878 -0.262865602970123291 -0.951056480407714844 116 111 61 255
0.309017002582550049 -0.5 -0.809017002582550049 138 95 72 255
-0.309017002582550049 -0.5 -0.809017002582550049 109 96 73 255
-0.433888614177703857 -0.259891897439956665 -0.862668514251708984 104 110 66 255
0.433888614177703857 -0.259891897439956665 -0.862668514251708984 146 111 64 255
-0.160622000694274902 -0.702046394348144531 -0.693780481815338135 116 83 82 255
0.160622000694274902 -0.702046394348144531 -0.693780481815338135 132 82 82 255
0.587785303592681885 0.425325393676757812 0.688190877437591553 155 160 182 255
0.688190877437591553 0.587785303592681885 0.425325393676757812 162 167 167 255
0.425325393676757812 0.688190877437591553 0.587785303592681885 152 168 176 255
-0.688190877437591553 0.587785303592681885 0.425325393676757812 89 158 167 255
-0.587785303592681885 0.425325393676757812 0.688190877437591553 99 154 183 255
-0.425325393676757812 0.688190877437591553 0.587785303592681885 109 165 178 255
0.688190877437591553 0.587785303592681885 -0.425325393676757812 167 166 94 255
0.587785303592681885 0.425325393676757812 -0.688190877437591553 159 154 68 255
0.425325393676757812 0.688190877437591553 -0.587785303592681885 153 167 76 255
-0.587785303592681885 0.425325393676757812 -0.688190877437591553 91 143 68 255
-0.688190877437591553 0.587785303592681885 -0.425325393676757812 80 146 84 255
-0.425325393676757812 0.688190877437591553 -0.587785303592681885 98 154 70 255
0.688190877437591553 -0.587785303592681885 0.425325393676757812 158 88 168 255
0.587785303592681885 -0.425325393676757812 0.688190877437591553 154 108 186 255
0.425325393676757812 -0.688190877437591553 0.587785303592681885 143 84 178 255
-0.587785303592681885 -0.425325393676757812 0.688190877437591553 94 97 177 255
-0.688190877437591553 -0.587785303592681885 0.425325393676757812 86 82 156 255
-0.425325393676757812 -0.688190877437591553 0.587785303592681885 102 78 170 255
0.587785303592681885 -0.425325393676757812 -0.688190877437591553 153 97 77 255
0.688190877437591553 -0.587785303592681885 -0.425325393676757812 161 82 97 255
0.425325393676757812 -0.688190877437591553 -0.587785303592681885 145 80 87 255
-0.688190877437591553 -0.587785303592681885 -0.425325393676757812 90 84 97 255
-0.587785303592681885 -0.425325393676757812 -0.688190877437591553 96 97 80 255
-0.425325393676757812 -0.688190877437591553 -0.587785303592681885 104 82 89 255
